<?xml version="1.0" encoding="UTF-8"?>
<svg id="Layer_2" data-name="Layer 2" xmlns="http://www.w3.org/2000/svg" viewBox="0 0 2437.2766 2437.2766">
  <defs>
    <style>
      .cls-1 {
        stroke-width: .91681px;
      }

      .cls-1, .cls-2, .cls-3, .cls-4, .cls-5, .cls-6, .cls-7, .cls-8, .cls-9, .cls-10, .cls-11, .cls-12, .cls-13 {
        fill: none;
        stroke: #fff;
        stroke-miterlimit: 10;
      }

      .cls-2 {
        stroke-width: 1.02505px;
      }

      .cls-4 {
        stroke-width: .4516px;
      }

      .cls-5 {
        stroke-width: 2px;
      }

      .cls-6 {
        stroke-width: 1.09643px;
      }

      .cls-7 {
        stroke-width: .80554px;
      }

      .cls-8 {
        stroke-width: .10288px;
      }

      .cls-9 {
        stroke-width: .5px;
      }

      .cls-10 {
        stroke-width: .88084px;
      }

      .cls-11 {
        stroke-width: 1.06262px;
      }

      .cls-12 {
        stroke-width: .09664px;
      }

      .cls-13 {
        stroke-width: .78571px;
      }
    </style>
  </defs>
  <circle class="cls-3" cx="1218.88677" cy="1218.6383" r="111.06383"/>
  <circle class="cls-9" cx="1218.88677" cy="1218.6383" r="85.78723"/>
  <g>
    <circle class="cls-8" cx="1218.88677" cy="1218.6383" r="91.14894"/>
    <circle class="cls-12" cx="1218.88677" cy="1218.6383" r="100.05185"/>
    <circle class="cls-12" cx="1218.88677" cy="1218.6383" r="102.76596"/>
  </g>
  <circle class="cls-9" cx="1218.88677" cy="1218.6383" r="108.76596"/>
  <g>
    <circle class="cls-3" cx="1294.71656" cy="1218.6383" r="7.37234"/>
    <circle class="cls-13" cx="1294.71656" cy="1218.6383" r="5.79255"/>
    <polygon class="cls-13" points="1297.18744 1214.35861 1292.24568 1214.35861 1289.7748 1218.6383 1292.24568 1222.91799 1297.18744 1222.91799 1299.65832 1218.6383 1297.18744 1214.35861"/>
  </g>
  <g>
    <circle class="cls-3" cx="1276.97987" cy="1267.37585" r="7.37234"/>
    <circle class="cls-13" cx="1276.97987" cy="1267.37585" r="5.79255"/>
    <polygon class="cls-13" points="1281.62346 1265.68528 1277.83758 1262.50909 1273.19399 1264.19967 1272.33627 1269.06642 1276.12215 1272.24261 1280.76574 1270.55204 1281.62346 1265.68528"/>
  </g>
  <g>
    <circle class="cls-3" cx="1232.06706" cy="1293.31384" r="7.37234"/>
    <circle class="cls-13" cx="1232.06706" cy="1293.31384" r="5.79255"/>
    <polygon class="cls-13" points="1236.71108 1295.00324 1235.85213 1290.1367 1231.20811 1288.4473 1227.42304 1291.62444 1228.28199 1296.49098 1232.92601 1298.18038 1236.71108 1295.00324"/>
  </g>
  <g>
    <circle class="cls-3" cx="1180.98848" cy="1284.3184" r="7.37234"/>
    <circle class="cls-13" cx="1180.98848" cy="1284.3184" r="5.79255"/>
    <polygon class="cls-13" points="1183.46044 1288.59747 1185.93024 1284.31715 1183.45828 1280.03809 1178.51651 1280.03933 1176.04672 1284.31965 1178.51868 1288.59872 1183.46044 1288.59747"/>
  </g>
  <g>
    <circle class="cls-3" cx="1147.63882" cy="1244.59762" r="7.37234"/>
    <circle class="cls-13" cx="1147.63882" cy="1244.59762" r="5.79255"/>
    <polygon class="cls-13" points="1146.78234 1249.4646 1151.4255 1247.77285 1152.28199 1242.90588 1148.49531 1239.73065 1143.85215 1241.4224 1142.99566 1246.28937 1146.78234 1249.4646"/>
  </g>
  <g>
    <circle class="cls-3" cx="1147.61916" cy="1192.733" r="7.37234"/>
    <circle class="cls-13" cx="1147.61916" cy="1192.733" r="5.79255"/>
    <polygon class="cls-13" points="1143.83489 1195.9111 1148.47934 1197.59932 1152.26361 1194.42123 1151.40343 1189.5549 1146.75898 1187.86668 1142.97471 1191.04478 1143.83489 1195.9111"/>
  </g>
  <g>
    <circle class="cls-3" cx="1180.93869" cy="1152.98695" r="7.37234"/>
    <circle class="cls-13" cx="1180.93869" cy="1152.98695" r="5.79255"/>
    <polygon class="cls-13" points="1175.99693 1152.98945 1178.46997 1157.26789 1183.41173 1157.26539 1185.88045 1152.98445 1183.40741 1148.70601 1178.46564 1148.70851 1175.99693 1152.98945"/>
  </g>
  <g>
    <circle class="cls-3" cx="1232.01043" cy="1143.95278" r="7.37234"/>
    <circle class="cls-13" cx="1232.01043" cy="1143.95278" r="5.79255"/>
    <polygon class="cls-13" points="1228.22295 1140.77851 1227.3677 1145.6457 1231.15518 1148.81997 1235.79792 1147.12705 1236.65317 1142.25986 1232.86569 1139.08559 1228.22295 1140.77851"/>
  </g>
  <g>
    <circle class="cls-3" cx="1276.94289" cy="1169.85671" r="7.37234"/>
    <circle class="cls-13" cx="1276.94289" cy="1169.85671" r="5.79255"/>
    <polygon class="cls-13" points="1276.08149 1164.99061 1272.29802 1168.16966 1273.15943 1173.03576 1277.8043 1174.72282 1281.58777 1171.54376 1280.72636 1166.67766 1276.08149 1164.99061"/>
  </g>
  <g>
    <path class="cls-1" d="m1238.47494,1191.64497c.06449.047.1288.09422.19293.14167,1.20641.8925,2.83906.93694,4.05634.05932l20.21082-14.57133c1.71041-1.23315,1.92103-3.73196.39607-5.1882-4.045-3.8627-8.59217-7.20236-13.53452-9.91321-1.85033-1.0149-4.1711-.0579-4.82875,1.9474l-7.76744,23.68446c-.46609,1.42121.0658,2.95897,1.27455,3.83989Z"/>
    <path class="cls-1" d="m1250.61759,1208.34904c.00802.02482.01602.04965.02398.0745.45839,1.42963,1.75594,2.42189,3.25726,2.42189h24.91135c2.10751,0,3.73885-1.90218,3.35657-3.97472-1.01697-5.51358-2.73308-10.78105-5.05882-15.70553-.8995-1.90458-3.33525-2.4909-5.04381-1.25909l-20.2191,14.5772c-1.21666.87717-1.68876,2.43857-1.22744,3.86576Z"/>
    <path class="cls-1" d="m1278.80913,1226.43127h-24.91056c-1.4999,0-2.79801.99014-3.25485,2.41877-.02458.07688-.04944.15364-.07457.23028-.46638,1.42251.00061,2.98232,1.21091,3.86335l20.148,14.66662c1.70339,1.23997,4.14206.66391,5.0508-1.23695,2.38978-4.99886,4.15111-10.35399,5.18709-15.96476.38284-2.07343-1.24834-3.97732-3.35682-3.97732Z"/>
    <path class="cls-1" d="m1199.22914,1191.69371c.06455-.04735.12927-.09447.19416-.14136,1.2118-.87561,1.75009-2.41027,1.2907-3.83299l-7.6573-23.71448c-.64847-2.00829-2.96484-2.9759-4.81979-1.96948-4.95469,2.6882-9.51593,6.00669-13.57748,9.85001-1.53154,1.44925-1.33232,3.94894.3724,5.18987l20.1393,14.66024c1.21379.88357,2.84747.84619,4.05801-.04182Z"/>
    <path class="cls-1" d="m1215.54496,1182.92628c.46254,1.43247,1.8108,2.35709,3.31609,2.35558.00858,0,.01715-.00001.02573-.00001.06378,0,.1275.00023.19117.00068,1.50053.01066,2.84563-.9116,3.31324-2.33745l7.76669-23.68222c.65727-2.00416-.64371-4.14864-2.73432-4.42798-2.79286-.37318-5.64172-.5687-8.53678-.5687-2.79598,0-5.54813.18455-8.24865.53449-2.08959.27077-3.39722,2.40824-2.74977,4.41336l7.6566,23.71224Z"/>
    <path class="cls-1" d="m1222.22882,1254.35018c-.46254-1.43246-1.81079-2.35709-3.31608-2.35557-.00866,0-.01731.00001-.02597.00001-.06364,0-.12723-.00023-.19076-.00068-1.50053-.01064-2.84564.9116-3.31326,2.33745l-7.76672,23.68227c-.65728,2.00418.64373,4.14866,2.73435,4.42799,2.79272.37313,5.64147.56864,8.53639.56864,2.79607,0,5.54831-.18456,8.24891-.5345,2.0896-.27077,3.39723-2.40824,2.74978-4.41337l-7.65664-23.71224Z"/>
    <path class="cls-1" d="m1238.54405,1245.58301c-.06435.0472-.12887.09418-.19357.14092-1.21182.87561-1.75012,2.41029-1.29072,3.83302l7.65737,23.71457c.64847,2.00828,2.96482,2.97589,4.81977,1.96948,4.95447-2.68806,9.51549-6.00646,13.57687-9.84961,1.53155-1.44925,1.33232-3.94894-.3724-5.18987l-20.13938-14.66027c-1.21376-.88355-2.8474-.84618-4.05794.04177Z"/>
    <path class="cls-1" d="m1199.29887,1245.63173c-.0645-.047-.12882-.09423-.19297-.14169-1.2064-.89244-2.83901-.93685-4.05625-.05925l-20.21086,14.57136c-1.71042,1.23316-1.92103,3.73199-.39604,5.18822,4.04503,3.86265,8.59223,7.20234,13.53458,9.91315,1.85033,1.01488,4.17108.05788,4.82873-1.94741l7.76743-23.68445c.4661-1.42124-.06582-2.95903-1.27462-3.83993Z"/>
    <path class="cls-1" d="m1187.15602,1228.92785c-.00805-.0249-.01607-.0498-.02406-.07473-.4584-1.42962-1.75594-2.42186-3.25725-2.42186h-24.91135c-2.10751,0-3.73885,1.90217-3.35657,3.97472,1.01698,5.51363,2.73311,10.7812,5.05892,15.70578.8995,1.90458,3.33525,2.49088,5.0438,1.25908l20.21908-14.57719c1.21668-.87718,1.68877-2.43861,1.22742-3.8658Z"/>
    <path class="cls-1" d="m1158.9644,1210.84543h24.91062c1.49989,0,2.798-.99013,3.25485-2.41875.02456-.07681.0494-.1535.0745-.23007.46637-1.4225-.00064-2.9823-1.21093-3.86332l-20.14815-14.66667c-1.70339-1.23997-4.14208-.6639-5.0508,1.23697-2.3897,4.99877-4.15097,10.35385-5.1869,15.96453-.38283,2.07343,1.24835,3.9773,3.35682,3.9773Z"/>
  </g>
  <path class="cls-13" d="m1239.20485,1145.56129c12.50626,3.46969,23.71304,10.06367,32.727,18.88863"/>
  <path class="cls-13" d="m1281.40669,1175.69261c7.35447,10.69379,11.70586,22.94686,12.94353,35.50073"/>
  <path class="cls-13" d="m1294.38776,1225.89603c-1.23468,12.91979-5.77245,25.10507-12.88953,35.52038"/>
  <path class="cls-13" d="m1272.0809,1272.70731c-9.24676,9.10729-20.55281,15.52958-32.69824,18.93838"/>
  <path class="cls-13" d="m1224.91199,1294.24762c-12.93706,1.0382-25.72712-1.30418-37.22433-6.4951"/>
  <path class="cls-13" d="m1174.92699,1280.44939c-10.58079-7.51614-18.877-17.52839-24.35238-28.89288"/>
  <path class="cls-13" d="m1145.48807,1237.76167c-3.27923-12.55755-3.20409-25.56012-.09854-37.7866"/>
  <path class="cls-13" d="m1150.35449,1186.136c5.55499-11.72977,13.96637-21.64547,24.20137-29.01949"/>
  <path class="cls-13" d="m1187.25177,1149.70137c11.79289-5.41969,24.60917-7.61408,37.18995-6.68915"/>
  <path class="cls-3" d="m1244.7802,1147.34444c2.76608-2.79259,8.99838-2.55229,14.76327.77606,5.76589,3.32894,9.0903,8.60738,8.05318,12.39932"/>
  <path class="cls-3" d="m1284.54996,1180.6695c3.91399-.36116,8.53366,3.82907,10.81025,10.08439,2.27699,6.25641,1.43057,12.4368-1.80136,14.67487"/>
  <path class="cls-3" d="m1293.59327,1231.76168c3.23039,2.23928,4.07569,8.41866,1.79868,14.67382-2.27741,6.25625-6.89858,10.44654-10.81298,10.08347"/>
  <path class="cls-3" d="m1267.67841,1276.71291c1.03516,3.79186-2.28946,9.06882-8.05457,12.39679-5.76612,3.32855-11.9996,3.56793-14.76477.7736"/>
  <path class="cls-3" d="m1218.93198,1294.48869c-1.64447,3.57008-7.58328,5.47531-14.13875,4.31879-6.55662-1.15672-11.48554-4.98027-11.80753-8.89827"/>
  <path class="cls-3" d="m1170.16439,1276.77102c-3.55458,1.67772-9.32857-.68031-13.60685-5.78014-4.27902-5.10071-5.59692-11.19799-3.32507-14.40628"/>
  <path class="cls-3" d="m1144.19597,1231.85072c-3.80136-.99972-6.70866-6.5176-6.70775-13.17431.0009-6.65788,2.91071-12.17573,6.71332-13.17301"/>
  <path class="cls-3" d="m1153.17837,1180.74779c-2.26933-3.20935-.94949-9.30503,3.33017-14.40369,4.28041-5.09955,10.05631-7.45595,13.61028-5.77556"/>
  <path class="cls-3" d="m1192.90838,1147.37535c.32461-3.91719,5.25398-7.73827,11.80977-8.89301,6.55694-1.15494,12.49616.75277,14.13844,4.3245"/>
  <path class="cls-9" d="m1212.84375,1174.62032c1.97599-.26874,3.99329-.40755,6.04302-.40755,2.11302,0,4.19159.14752,6.22597.43282"/>
  <path class="cls-9" d="m1188.1132,1186.59738c2.94529-2.8295,6.27986-5.25681,9.91538-7.19359"/>
  <path class="cls-9" d="m1175.14251,1210.84517c.72661-4.1064,2.0173-8.01804,3.78915-11.65198"/>
  <path class="cls-9" d="m1178.84339,1237.90132c-1.7265-3.58244-2.98641-7.43205-3.7009-11.46998"/>
  <path class="cls-9" d="m1197.84936,1257.77679c-3.62619-1.95322-6.94987-4.39567-9.88268-7.23899"/>
  <path class="cls-9" d="m1224.91136,1262.65878c-1.9701.2671-3.98123.40505-6.02458.40505-2.11293,0-4.1914-.14751-6.22569-.43278"/>
  <path class="cls-9" d="m1249.66012,1250.67943c-2.94517,2.82935-6.27958,5.25654-9.91492,7.19325"/>
  <path class="cls-9" d="m1262.63102,1226.43153c-.72664,4.10652-2.01739,8.01826-3.78933,11.65229"/>
  <path class="cls-9" d="m1258.93028,1199.37553c1.72645,3.5824,2.98633,7.43196,3.70079,11.46984"/>
  <path class="cls-9" d="m1239.9245,1179.49998c3.62615,1.95323,6.94979,4.39569,9.88256,7.239"/>
  <circle class="cls-3" cx="1218.88677" cy="1218.6383" r="21.03773"/>
  <circle class="cls-10" cx="1218.88677" cy="1218.6383" r="18.53095"/>
  <circle class="cls-7" cx="1218.88677" cy="1218.6383" r="16.94681"/>
  <path class="cls-7" d="m1215.64177,1197.81383l.98013-4.55384c.21565-1.00196,1.10151-1.71744,2.12642-1.71744h0c1.02491,0,1.91076.71548,2.12642,1.71744l.98013,4.55384"/>
  <circle class="cls-9" cx="1218.74831" cy="1194.17553" r="1.0959"/>
  <path class="cls-7" d="m1237.6915,1209.12144l4.63394-.47396c1.01959-.10428,1.97364.51734,2.29013,1.49216h0c.31648.97483-.09048,2.03832-.97689,2.55283l-4.02863,2.33842"/>
  <circle class="cls-9" cx="1242.11127" cy="1210.95269" r="1.0959"/>
  <path class="cls-7" d="m1233.7453,1233.5853l1.88173,4.26112c.41403.93756.11739,2.03694-.71207,2.63898h0c-.82945.60204-1.96664.54336-2.72973-.14085l-3.46815-3.10966"/>
  <circle class="cls-9" cx="1233.36834" cy="1238.35454" r="1.0959"/>
  <path class="cls-7" d="m1209.25845,1237.3862l-3.47182,3.10557c-.76389.68331-1.90115.74064-2.72989.13763h0c-.82874-.60302-1.12409-1.70275-.70895-2.63982l1.88675-4.2589"/>
  <circle class="cls-9" cx="1204.60587" cy="1238.50037" r="1.0959"/>
  <path class="cls-7" d="m1198.08194,1215.26973l-4.02587-2.34317c-.8858-.51556-1.29151-1.57953-.97387-2.55398h0c.31763-.97445,1.27242-1.59495,2.29189-1.48946l4.63338.47943"/>
  <circle class="cls-9" cx="1195.58553" cy="1211.18858" r="1.0959"/>
  <circle class="cls-9" cx="1218.74831" cy="1194.17553" r="2.18101"/>
  <circle class="cls-9" cx="1242.10911" cy="1210.94615" r="2.18101"/>
  <circle class="cls-9" cx="1233.37944" cy="1238.34638" r="2.18101"/>
  <circle class="cls-9" cx="1204.62266" cy="1238.51243" r="2.18101"/>
  <circle class="cls-9" cx="1195.57716" cy="1211.21483" r="2.18101"/>
  <circle class="cls-9" cx="1219.02523" cy="1243.10106" r="2.18101"/>
  <circle class="cls-9" cx="1195.66444" cy="1226.33045" r="2.18101"/>
  <circle class="cls-9" cx="1204.3941" cy="1198.93021" r="2.18101"/>
  <circle class="cls-9" cx="1233.15089" cy="1198.76417" r="2.18101"/>
  <circle class="cls-9" cx="1242.19639" cy="1226.06177" r="2.18101"/>
  <circle class="cls-3" cx="1218.88677" cy="1218.6383" r="227.10638"/>
  <circle class="cls-9" cx="1218.88677" cy="1218.6383" r="196.34043"/>
  <polygon class="cls-3" points="1424.17644 1218.6383 1421.31778 1221.78833 1424.07899 1225.02413 1421.12531 1228.08522 1423.78593 1231.4042 1420.73946 1234.37292 1423.29643 1237.77237 1420.15962 1240.64544 1422.61002 1244.12244 1419.38553 1246.89669 1421.72661 1250.44817 1418.41727 1253.12058 1420.64644 1256.74331 1417.25527 1259.31101 1419.37011 1263.0016 1415.90027 1265.46189 1417.89853 1269.21682 1414.35334 1271.56715 1416.23296 1275.38282 1412.61585 1277.6208 1414.37493 1281.49347 1410.68944 1283.61689 1412.32626 1287.54276 1408.57603 1289.54956 1410.08903 1293.52475 1406.2778 1295.41304 1407.66558 1299.43361 1403.79705 1301.20182 1405.05832 1305.26396 1401.13644 1306.91025 1402.27021 1311.00973 1398.29886 1312.53267 1399.30419 1316.66546 1395.28732 1318.06376 1396.1634 1322.22583 1392.10496 1323.49832 1392.85113 1327.68559 1388.75511 1328.83123 1389.3708 1333.03965 1385.24117 1334.05756 1385.72595 1338.28308 1381.56672 1339.17242 1381.92028 1343.41095 1377.73549 1344.171 1377.95762 1348.41844 1373.75132 1349.04858 1373.84192 1353.30086 1369.61815 1353.80058 1369.57721 1358.05361 1365.34002 1358.42249 1365.16764 1362.67221 1360.92108 1362.90993 1360.61745 1367.15228 1356.36558 1367.25862 1355.93096 1371.48954 1351.67785 1371.46436 1351.11261 1375.67982 1346.86233 1375.52308 1346.16693 1379.71902 1341.92354 1379.43079 1341.09855 1383.60318 1336.86613 1383.18362 1335.91229 1387.32837 1331.69499 1386.77769 1330.61295 1390.89086 1326.41476 1390.20952 1325.20539 1394.28711 1321.03035 1393.47558 1319.69463 1397.51359 1315.54682 1396.57249 1314.08591 1400.56693 1309.96953 1399.49691 1308.38476 1403.44378 1304.30387 1402.24572 1302.59662 1406.14112 1298.55523 1404.81604 1296.72701 1408.65612 1292.7291 1407.20519 1290.78155 1410.98614 1286.83104 1409.4107 1284.76594 1413.12877 1280.8667 1411.4303 1278.686 1415.08183 1274.84182 1413.26199 1272.54776 1416.84335 1268.76242 1414.90393 1266.35698 1418.41171 1262.63434 1416.35466 1260.12056 1419.78536 1256.46425 1417.61283 1253.84454 1420.96328 1250.25777 1418.67767 1247.53463 1421.94482 1244.02072 1419.54862 1241.19687 1422.72956 1237.75894 1420.22543 1234.83837 1423.31732 1231.47929 1420.70812 1228.46392 1423.70849 1225.1868 1420.99717 1222.08043 1423.90362 1218.88677 1421.09332 1215.69352 1423.90363 1212.58752 1420.99719 1209.3098 1423.7085 1206.29448 1420.70813 1202.93491 1423.3173 1200.01361 1420.22534 1196.57501 1422.72938 1193.75097 1419.54839 1190.23633 1421.94446 1187.51264 1418.67718 1183.92512 1420.96261 1181.30471 1417.61197 1177.64762 1419.78427 1175.1333 1416.35336 1171.41009 1418.41018 1169.00447 1414.90225 1165.21871 1416.84143 1162.92427 1413.25985 1159.07963 1415.07942 1156.89866 1411.42767 1152.99891 1413.12582 1150.93355 1409.40751 1146.98254 1410.9826 1145.03476 1407.2014 1141.03639 1408.65196 1139.20802 1404.81163 1135.16606 1406.13627 1133.45862 1402.24057 1129.37731 1403.43822 1127.79253 1399.49111 1123.67588 1400.56077 1122.21511 1396.56617 1118.06717 1397.50696 1116.73164 1393.46881 1112.55647 1394.28001 1111.34728 1390.20228 1107.14893 1390.88329 1106.06705 1386.76996 1101.84956 1387.32024 1100.89584 1383.1753 1096.6633 1383.59451 1095.83852 1379.42199 1091.59503 1379.70986 1090.89986 1375.51381 1086.6495 1375.67018 1086.08451 1371.45463 1081.83135 1371.47946 1081.397 1367.24847 1077.14512 1367.1418 1076.84178 1362.89941 1072.59524 1362.66138 1072.42319 1358.41166 1068.18604 1358.04249 1068.14545 1353.78949 1063.92176 1353.28951 1064.01272 1349.03731 1059.80652 1348.40693 1060.02901 1344.15958 1055.84435 1343.39931 1056.19827 1339.1609 1052.03916 1338.27135 1052.52436 1334.04603 1048.3949 1333.02799 1049.01096 1328.81973 1044.91508 1327.67391 1045.66159 1323.48679 1041.60329 1322.21411 1042.47969 1318.05218 1038.46294 1316.65368 1039.4686 1312.52108 1035.49746 1310.99807 1036.63162 1306.89894 1032.71 1305.25275 1033.9717 1301.19111 1030.10349 1299.42318 1031.49164 1295.40303 1027.68067 1293.51493 1029.19402 1289.54023 1025.44405 1287.53368 1027.0812 1283.60832 1023.39595 1281.48517 1025.15532 1277.613 1021.53841 1275.37526 1023.41832 1271.56018 1019.8733 1269.21007 1021.87176 1265.4555 1018.40212 1262.99561 1020.5172 1259.30572 1017.12623 1256.73866 1019.35561 1253.11674 1016.04644 1250.44499 1018.38766 1246.89414 1015.16329 1244.12056 1017.61375 1240.64379 1014.47702 1237.77136 1017.03406 1234.37266 1013.98763 1231.40443 1016.64824 1228.0854 1013.69458 1225.02492 1016.45577 1221.78872 1013.59711 1218.6383 1016.45576 1215.48827 1013.69455 1212.25247 1016.64823 1209.19138 1013.98761 1205.8724 1017.03408 1202.90367 1014.47712 1199.50423 1017.61392 1196.63116 1015.16352 1193.15416 1018.38801 1190.37991 1016.04694 1186.82842 1019.35627 1184.15602 1017.12711 1180.53329 1020.51828 1177.96559 1018.40344 1174.275 1021.87327 1171.81471 1019.87501 1168.05977 1023.4202 1165.70944 1021.54058 1161.89378 1025.15769 1159.65579 1023.39862 1155.78313 1027.0841 1153.6597 1025.44729 1149.73384 1029.19751 1147.72703 1027.68451 1143.75185 1031.49575 1141.86356 1030.10796 1137.84298 1033.97649 1136.07478 1032.71522 1132.01264 1036.63711 1130.36635 1035.50334 1126.26687 1039.47468 1124.74393 1038.46936 1120.61113 1042.48623 1119.21283 1041.61015 1115.05077 1045.66858 1113.77828 1044.92241 1109.59101 1049.01844 1108.44537 1048.40274 1104.23694 1052.53237 1103.21903 1052.04759 1098.99351 1056.20682 1098.10417 1055.85326 1093.86565 1060.03805 1093.1056 1059.81592 1088.85816 1064.02222 1088.22801 1063.93162 1083.97574 1068.1554 1083.47602 1068.19633 1079.22299 1072.43352 1078.85411 1072.6059 1074.60439 1076.85246 1074.36666 1077.1561 1070.12431 1081.40796 1070.01798 1081.84258 1065.78705 1086.09569 1065.81223 1086.66093 1061.59678 1090.91122 1061.75352 1091.60661 1057.55758 1095.85 1057.84581 1096.67499 1053.67342 1100.90741 1054.09298 1101.86126 1049.94823 1106.07855 1050.4989 1107.16059 1046.38573 1111.35879 1047.06708 1112.56816 1042.98949 1116.74319 1043.80102 1118.07892 1039.763 1122.22672 1040.7041 1123.68764 1036.70966 1127.80402 1037.77968 1129.38878 1033.83281 1133.46967 1035.03087 1135.17692 1031.13547 1139.21831 1032.46055 1141.04653 1028.62048 1145.04444 1030.0714 1146.992 1026.29046 1150.94251 1027.8659 1153.0076 1024.14783 1156.90684 1025.8463 1159.08755 1022.19477 1162.93172 1024.01461 1165.22579 1020.43325 1169.01113 1022.37266 1171.41656 1018.86488 1175.13921 1020.92193 1177.65299 1017.49123 1181.30929 1019.66376 1183.92901 1016.31331 1187.51577 1018.59893 1190.23891 1015.33178 1193.75283 1017.72798 1196.57668 1014.54704 1200.01461 1017.05116 1202.93518 1013.95928 1206.29425 1016.56848 1209.30962 1013.5681 1212.58675 1016.27942 1215.69312 1013.37298 1218.88677 1016.18328 1222.08003 1013.37297 1225.18602 1016.2794 1228.46374 1013.5681 1231.47907 1016.56846 1234.83863 1013.9593 1237.75993 1017.05126 1241.19853 1014.54722 1244.02257 1017.72821 1247.53721 1015.33214 1250.26091 1018.59942 1253.84843 1016.31398 1256.46883 1019.66462 1260.12592 1017.49233 1262.64024 1020.92323 1266.36345 1018.86641 1268.76907 1022.37435 1272.55483 1020.43516 1274.84928 1024.01675 1278.69391 1022.19717 1280.87488 1025.84892 1284.77463 1024.15077 1286.83999 1027.86909 1290.79101 1026.294 1292.73878 1030.0752 1296.73716 1028.62464 1298.56552 1032.46496 1302.60748 1031.14033 1304.31492 1035.03602 1308.39623 1033.83838 1309.98102 1037.78548 1314.09766 1036.71583 1315.55844 1040.71043 1319.70637 1039.76963 1321.0419 1043.80778 1325.21708 1042.99658 1326.42627 1047.07431 1330.62461 1046.39331 1331.7065 1050.50664 1335.92398 1049.95636 1336.8777 1054.10129 1341.11024 1053.68209 1341.93502 1057.8546 1346.17851 1057.56674 1346.87368 1061.76279 1351.12405 1061.60642 1351.68904 1065.82196 1355.9422 1065.79713 1356.37654 1070.02812 1360.62843 1070.1348 1360.93176 1074.37718 1365.17831 1074.61521 1365.35036 1078.86494 1369.5875 1079.2341 1369.62809 1083.4871 1373.85179 1083.98708 1373.76082 1088.23929 1377.96703 1088.86967 1377.74453 1093.11702 1381.9292 1093.87728 1381.57528 1098.1157 1385.73438 1099.00525 1385.24919 1103.23057 1389.37865 1104.24861 1388.76258 1108.45686 1392.85846 1109.60268 1392.11196 1113.78981 1396.17026 1115.06248 1395.29386 1119.22441 1399.3106 1120.62291 1398.30494 1124.75552 1402.27608 1126.27852 1401.14193 1130.37766 1405.06355 1132.02385 1403.80184 1136.08549 1407.67006 1137.85342 1406.2819 1141.87356 1410.09288 1143.76166 1408.57952 1147.73636 1412.32949 1149.74292 1410.69234 1153.66827 1414.37759 1155.79142 1412.61822 1159.6636 1416.23513 1161.90134 1414.35523 1165.71642 1417.90024 1168.06652 1415.90178 1171.82109 1419.37143 1174.28099 1417.25635 1177.97088 1420.64731 1180.53793 1418.41793 1184.15986 1421.7271 1186.83161 1419.38588 1190.38245 1422.61025 1193.15604 1420.1598 1196.6328 1423.29652 1199.50524 1420.73948 1202.90393 1423.78592 1205.87217 1421.1253 1209.1912 1424.07897 1212.25168 1421.31778 1215.48787 1424.17644 1218.6383"/>
  <polygon class="cls-2" points="1428.99935 1218.6383 1426.70699 1221.87209 1428.89962 1225.17433 1426.5094 1228.33647 1428.59967 1231.70441 1426.11328 1234.79147 1428.09866 1238.22226 1425.51801 1241.23093 1427.39612 1244.72154 1424.72331 1247.64859 1426.49196 1251.19588 1423.72927 1254.0382 1425.38642 1257.63888 1422.53633 1260.39347 1424.08011 1264.04414 1421.14524 1266.70816 1422.57398 1270.40532 1419.55712 1272.97604 1420.8693 1276.7161 1417.77334 1279.19093 1418.96764 1282.97024 1415.79562 1285.34672 1416.87086 1289.16157 1413.62593 1291.43741 1414.5811 1295.28403 1411.26648 1297.45705 1412.10074 1301.33165 1408.71975 1303.39981 1409.43234 1307.29874 1405.98829 1309.26026 1406.57874 1313.17946 1403.07516 1315.03241 1403.54305 1318.96805 1399.98343 1320.71078 1400.32849 1324.65904 1396.71635 1326.29003 1396.93841 1330.24708 1393.27732 1331.76492 1393.37631 1335.72695 1389.66984 1337.13038 1389.64581 1341.09359 1385.89759 1342.3814 1385.75072 1346.34196 1381.96439 1347.51302 1381.69494 1351.46714 1377.87418 1352.52043 1377.48251 1356.4643 1373.63101 1357.3989 1373.11757 1361.32876 1369.23903 1362.14382 1368.60436 1366.05592 1364.70249 1366.75069 1363.94722 1370.6413 1360.02575 1371.21511 1359.15059 1375.0805 1355.21327 1375.53279 1354.219 1379.36926 1350.26958 1379.69953 1349.15709 1383.50339 1345.19935 1383.71126 1343.9696 1387.47884 1340.00732 1387.56398 1338.66147 1391.29157 1334.69853 1391.25372 1333.23762 1394.93777 1329.27773 1394.77691 1327.703 1398.41381 1323.74998 1398.12993 1322.06278 1401.7161 1318.12044 1401.3093 1316.32231 1404.84116 1312.39464 1404.3116 1310.48725 1407.78559 1306.57811 1407.13361 1304.56317 1410.54628 1300.67638 1409.77239 1298.55572 1413.12034 1294.69507 1412.22517 1292.47063 1415.50508 1288.63992 1414.48942 1286.31377 1417.69803 1282.51672 1416.56282 1280.09106 1419.69695 1276.33136 1418.44329 1273.80868 1421.49984 1270.09002 1420.12898 1267.47253 1423.10504 1263.79873 1421.61835 1261.08964 1424.51095 1257.46432 1422.91003 1254.66622 1425.71653 1251.09257 1424.00322 1248.20809 1426.72113 1244.68919 1424.89739 1241.72117 1427.52433 1238.26079 1425.59221 1235.2133 1428.12589 1231.8141 1426.08773 1228.68907 1428.52625 1225.35427 1426.38446 1222.15552 1428.72597 1218.88677 1426.48316 1215.6184 1428.72597 1212.42 1426.38449 1209.08456 1428.52626 1205.95954 1426.08773 1202.55981 1428.12586 1199.51154 1425.59209 1196.05045 1427.52412 1193.0822 1424.89712 1189.56284 1426.72076 1186.67778 1424.00272 1183.10337 1425.71585 1180.30455 1422.90915 1176.67844 1424.50983 1173.96879 1421.61702 1170.29443 1423.10348 1167.67673 1420.12726 1163.95767 1421.49789 1161.43458 1418.44111 1157.67443 1419.69451 1155.24848 1416.56014 1151.45094 1417.69504 1149.12449 1414.48617 1145.29329 1415.50148 1143.0686 1412.2213 1139.20751 1413.11611 1137.08667 1409.76789 1133.19951 1410.54143 1131.18434 1407.12844 1127.2748 1407.78002 1125.36735 1404.30577 1121.43945 1404.83499 1119.64142 1401.30294 1115.69898 1401.70945 1114.01194 1398.12312 1110.05881 1398.40669 1108.48423 1394.76963 1104.52422 1394.93017 1103.06343 1391.24594 1099.10033 1391.2834 1097.75456 1387.5556 1093.7922 1387.47012 1092.56263 1383.70239 1088.60482 1383.49419 1087.49252 1379.69019 1083.54305 1379.35957 1082.549 1375.52298 1078.61166 1375.07037 1077.73674 1371.20488 1073.81528 1370.63076 1073.06028 1366.74008 1069.15846 1366.04504 1068.52409 1362.1329 1064.64563 1361.31759 1064.13251 1357.38772 1060.28112 1356.4529 1059.88978 1352.50906 1056.06916 1351.45557 1055.80005 1347.50151 1052.01387 1346.33027 1051.86733 1342.36978 1048.11926 1341.0818 1048.09563 1337.11877 1044.38936 1335.71523 1044.4887 1331.75335 1040.82778 1330.23536 1041.05016 1326.27843 1037.43818 1324.64729 1037.78354 1320.69913 1034.22406 1318.95624 1034.69228 1315.02075 1031.18891 1313.16779 1031.77974 1309.2489 1028.33598 1307.28752 1029.04899 1303.38907 1025.66825 1301.32104 1026.50288 1297.44684 1023.18853 1295.27404 1024.14406 1291.42789 1020.8994 1289.15233 1021.97496 1285.33798 1018.8032 1282.9618 1019.99778 1279.18296 1016.90204 1276.70841 1018.21451 1272.96892 1015.19782 1270.39845 1016.62676 1266.70165 1013.69209 1264.03805 1015.23612 1260.38808 1012.38624 1257.63416 1014.0436 1254.03428 1011.28109 1251.19265 1013.04987 1247.646 1010.37715 1244.71936 1012.25533 1241.22902 1009.67477 1238.22104 1011.66023 1234.79105 1009.17388 1231.70452 1011.26415 1228.33656 1008.87395 1225.17507 1011.06656 1221.87246 1008.77419 1218.6383 1011.06655 1215.40451 1008.87393 1212.10226 1011.26414 1208.94013 1009.17388 1205.57218 1011.66026 1202.48512 1009.67489 1199.05433 1012.25553 1196.04567 1010.37742 1192.55505 1013.05023 1189.62801 1011.28159 1186.08071 1014.04427 1183.2384 1012.38713 1179.63772 1015.23722 1176.88312 1013.69343 1173.23245 1016.6283 1170.56843 1015.19956 1166.87128 1018.21643 1164.30056 1016.90425 1160.5605 1020.0002 1158.08567 1018.80591 1154.30636 1021.97792 1151.92987 1020.90269 1148.11503 1024.14762 1145.83919 1023.19244 1141.99257 1026.50706 1139.81955 1025.6728 1135.94495 1029.05379 1133.87678 1028.34121 1129.97786 1031.78526 1128.01633 1031.19481 1124.09713 1034.69839 1122.24419 1034.23049 1118.30854 1037.79012 1116.56581 1037.44506 1112.61755 1041.0572 1110.98656 1040.83514 1107.02952 1044.49623 1105.51168 1044.39723 1101.54965 1048.1037 1100.14621 1048.12773 1096.18301 1051.87595 1094.8952 1052.02283 1090.93464 1055.80915 1089.76357 1056.07861 1085.80946 1059.89936 1084.75617 1060.29103 1080.81229 1064.14254 1079.8777 1064.65597 1075.94783 1068.53452 1075.13278 1069.16918 1071.22067 1073.07105 1070.52591 1073.82632 1066.6353 1077.74779 1066.06148 1078.62295 1062.19609 1082.56028 1061.7438 1083.55454 1057.90734 1087.50396 1057.57706 1088.61645 1053.7732 1092.5742 1053.56534 1093.80394 1049.79776 1097.76622 1049.71262 1099.11207 1045.98503 1103.07501 1046.02287 1104.53592 1042.33883 1108.49581 1042.49968 1110.07054 1038.86279 1114.02357 1039.14667 1115.71076 1035.56049 1119.6531 1035.96729 1121.45123 1032.43543 1125.3789 1032.965 1127.28629 1029.491 1131.19543 1030.14299 1133.21037 1026.73031 1137.09717 1027.50421 1139.21783 1024.15625 1143.07847 1025.05142 1145.30291 1021.77151 1149.13363 1022.78718 1151.45977 1019.57857 1155.25683 1020.71378 1157.68249 1017.57964 1161.44219 1018.8333 1163.96486 1015.77676 1167.68352 1017.14762 1170.30101 1014.17156 1173.97482 1015.65825 1176.6839 1012.76565 1180.30922 1014.36657 1183.10733 1011.56006 1186.68097 1013.27338 1189.56545 1010.55547 1193.08436 1012.37921 1196.05237 1009.75227 1199.51275 1011.68439 1202.56024 1009.1507 1205.95944 1011.18887 1209.08447 1008.75034 1212.41927 1010.89213 1215.61802 1008.55063 1218.88677 1010.79343 1222.15515 1008.55062 1225.35354 1010.89211 1228.68898 1008.75034 1231.814 1011.18886 1235.21373 1009.15074 1238.26201 1011.6845 1241.7231 1009.75247 1244.69135 1012.37948 1248.2107 1010.55583 1251.09577 1013.27388 1254.67017 1011.56074 1257.46899 1014.36745 1261.0951 1012.76676 1263.80476 1015.65958 1267.47911 1014.17312 1270.09681 1017.14934 1273.81588 1015.7787 1276.33896 1018.83548 1280.09911 1017.58209 1282.52506 1020.71646 1286.32261 1019.58156 1288.64905 1022.79043 1292.48026 1021.77511 1294.70495 1025.0553 1298.56604 1024.16048 1300.68687 1027.50871 1304.57404 1026.73517 1306.58921 1030.14816 1310.49874 1029.49658 1312.40619 1032.97083 1316.33409 1032.44161 1318.13213 1035.97365 1322.07456 1035.56715 1323.7616 1039.15347 1327.71473 1038.8699 1329.28932 1042.50696 1333.24932 1042.34643 1334.71012 1046.03066 1338.67321 1045.99319 1340.01898 1049.72099 1343.98134 1049.80647 1345.21091 1053.5742 1349.16873 1053.78241 1350.28102 1057.58641 1354.23049 1057.91702 1355.22454 1061.75361 1359.16189 1062.20623 1360.03681 1066.07171 1363.95826 1066.64584 1364.71326 1070.53651 1368.61508 1071.23156 1369.24945 1075.1437 1373.12791 1075.95901 1373.64103 1079.88887 1377.49242 1080.82369 1377.88376 1084.76753 1381.70438 1085.82103 1381.9735 1089.77508 1385.75968 1090.94633 1385.90621 1094.90681 1389.65428 1096.1948 1389.67791 1100.15783 1393.38418 1101.56136 1393.28484 1105.52325 1396.94576 1107.04123 1396.72339 1110.99817 1400.33537 1112.6293 1399.99001 1116.57746 1403.54948 1118.32035 1403.08127 1122.25584 1406.58463 1124.10881 1405.9938 1128.0277 1409.43756 1129.98908 1408.72455 1133.88753 1412.10529 1135.95556 1411.27067 1139.82976 1414.58501 1142.00255 1413.62949 1145.84871 1416.87415 1148.12426 1415.79859 1151.93862 1418.97035 1154.3148 1417.77577 1158.09363 1420.87151 1160.56819 1419.55904 1164.30767 1422.57572 1166.87814 1421.14679 1170.57495 1424.08145 1173.23855 1422.53743 1176.88852 1425.3873 1179.64244 1423.72995 1183.24231 1426.49246 1186.08394 1424.72367 1189.63059 1427.39639 1192.55723 1425.51822 1196.04758 1428.09877 1199.05556 1426.11332 1202.48555 1428.59966 1205.57208 1426.5094 1208.94004 1428.8996 1212.10152 1426.70699 1215.40413 1428.99935 1218.6383"/>
  <polygon class="cls-11" points="1436.37546 1218.6383 1434.64909 1221.99557 1436.27222 1225.40397 1434.44395 1228.70684 1435.96174 1232.16341 1434.0327 1235.40843 1435.44313 1238.91014 1433.41469 1242.09393 1434.71593 1245.63762 1432.58962 1248.75684 1433.78003 1252.33923 1431.55759 1255.39065 1432.63568 1259.00838 1430.31904 1261.98885 1431.28353 1265.63845 1428.87478 1268.54492 1429.72454 1272.22288 1427.22594 1275.0524 1427.96004 1278.75512 1425.37398 1281.50488 1425.99164 1285.22874 1423.32066 1287.896 1423.82128 1291.63735 1421.06802 1294.21952 1421.45116 1297.97467 1418.61837 1300.46928 1418.88375 1304.23453 1415.97429 1306.63921 1416.12177 1310.41089 1413.1385 1312.72352 1413.16801 1316.49803 1410.11402 1318.71629 1410.02578 1322.48981 1406.90413 1324.6117 1406.69837 1328.38058 1403.5122 1330.40418 1403.18928 1334.16479 1399.94174 1336.0883 1399.50213 1339.83705 1396.19642 1341.6588 1395.64066 1345.39212 1392.28002 1347.11047 1391.6088 1350.82477 1388.19654 1352.43818 1387.41062 1356.12991 1383.95005 1357.63691 1383.05027 1361.30256 1379.54475 1362.70178 1378.53206 1366.33784 1374.98497 1367.628 1373.86037 1371.231 1370.27511 1372.41089 1369.0397 1375.97739 1365.41969 1377.04588 1364.07463 1380.57248 1360.42333 1381.52853 1358.96987 1385.01184 1355.29076 1385.85449 1353.73022 1389.29115 1350.02679 1390.0195 1348.36059 1393.40618 1344.63637 1394.01944 1342.86599 1397.35285 1339.12463 1397.85025 1337.25171 1401.12706 1333.49668 1401.50807 1331.5228 1404.72513 1327.75767 1404.98922 1325.68458 1408.14335 1321.91299 1408.29011 1319.74261 1411.3781 1315.96834 1411.40715 1313.70274 1414.42588 1309.92948 1414.33703 1307.57074 1417.28347 1303.80216 1417.07667 1301.35245 1419.94787 1297.59221 1419.62322 1295.05381 1422.41629 1291.30558 1421.97402 1288.68088 1424.6862 1284.9483 1424.12668 1282.23979 1426.75527 1278.52648 1426.07905 1275.73695 1428.62142 1272.04656 1427.82917 1269.17843 1430.28296 1265.51476 1429.37547 1262.57154 1431.73821 1258.93823 1430.71653 1255.92265 1432.98611 1252.32294 1431.8515 1249.23783 1434.02596 1245.67484 1432.77984 1242.52318 1434.85737 1239.00081 1433.50121 1235.7868 1435.48005 1232.30783 1434.01566 1229.03343 1435.89447 1225.60125 1434.32373 1222.27037 1436.1012 1218.88677 1434.4262 1215.50356 1436.10121 1212.17305 1434.32376 1208.7402 1435.89448 1205.46582 1434.01567 1201.9863 1435.48002 1198.77147 1433.50109 1195.24837 1434.85715 1192.09646 1432.77956 1188.533 1434.02559 1185.44728 1431.85098 1181.84679 1432.9854 1178.83046 1430.71561 1175.19636 1431.73705 1172.25251 1429.37409 1168.58829 1430.28134 1165.71993 1427.82738 1162.02914 1428.61941 1159.23915 1426.07678 1155.52541 1426.75274 1152.81657 1424.12389 1149.08351 1424.6831 1146.45847 1421.97064 1142.70976 1422.41257 1140.17107 1419.61919 1136.41041 1419.94348 1133.96047 1417.072 1130.19155 1417.27843 1127.83268 1414.33173 1124.05905 1414.42018 1121.79335 1411.40117 1118.01887 1411.37178 1115.84856 1408.28357 1112.0769 1408.13653 1110.00393 1404.98223 1106.23872 1404.71784 1104.26495 1401.50058 1100.50983 1401.11926 1098.637 1397.84223 1094.89551 1397.34447 1093.12526 1394.01088 1089.401 1393.39731 1087.73494 1390.01044 1084.03147 1389.28177 1082.47109 1385.84493 1078.79197 1385.00197 1077.33869 1381.51851 1073.6874 1380.56216 1072.34256 1377.03543 1068.7226 1375.96665 1067.48743 1372.40005 1063.90224 1371.2199 1062.77792 1367.61683 1059.23094 1366.32645 1058.21854 1362.69036 1054.71317 1361.29094 1053.8137 1357.6253 1050.3533 1356.11813 1049.5677 1352.42642 1046.15562 1350.81287 1045.48472 1347.0986 1042.12426 1345.38012 1041.56882 1341.64684 1038.26334 1339.82504 1037.82406 1336.07639 1034.57672 1334.15278 1034.25411 1330.39225 1031.06812 1328.36854 1030.86265 1324.59973 1027.74118 1322.47772 1027.65324 1318.70432 1024.5995 1316.48608 1024.62939 1312.71186 1021.64643 1310.39942 1021.79426 1306.62804 1018.88508 1304.22354 1019.15082 1300.45867 1016.31833 1297.96432 1016.70183 1294.20963 1013.94886 1291.62777 1014.44981 1287.88692 1011.7791 1285.21999 1012.39704 1281.4966 1009.81122 1278.74716 1010.5456 1275.04501 1008.0472 1272.21576 1008.89716 1268.53815 1006.48862 1265.63214 1007.45336 1261.98324 1005.13694 1259.00349 1006.21526 1255.38659 1003.993 1252.33589 1005.18355 1248.75415 1003.05733 1245.63535 1004.35864 1242.09195 1002.33029 1238.90887 1003.74081 1235.40799 1001.81181 1232.16352 1003.32959 1228.70693 1001.50134 1225.40473 1003.12446 1221.99596 1001.39808 1218.6383 1003.12445 1215.28102 1001.50132 1211.87263 1003.32959 1208.56976 1001.81181 1205.11319 1003.74084 1201.86816 1002.33041 1198.36645 1004.35886 1195.18267 1003.05761 1191.63898 1005.18393 1188.51976 1003.99352 1184.93736 1006.21596 1181.88594 1005.13786 1178.26821 1007.4545 1175.28775 1006.49002 1171.63814 1008.89876 1168.73167 1008.049 1165.05372 1010.5476 1162.22419 1009.81351 1158.52147 1012.39956 1155.77172 1011.78191 1152.04786 1014.45289 1149.38059 1013.95227 1145.63925 1016.70553 1143.05707 1016.32238 1139.30193 1019.15517 1136.80732 1018.88979 1133.04206 1021.79925 1130.63738 1021.65177 1126.86571 1024.63504 1124.55308 1024.60553 1120.77857 1027.65952 1118.56031 1027.74777 1114.78678 1030.86941 1112.6649 1031.07517 1108.89602 1034.26135 1106.87242 1034.58426 1103.11181 1037.8318 1101.1883 1038.27141 1097.43955 1041.57713 1095.6178 1042.13288 1091.88448 1045.49352 1090.16613 1046.16474 1086.45182 1049.57701 1084.83842 1050.36293 1081.14668 1053.8235 1079.63968 1054.72327 1075.97404 1058.22879 1074.57482 1059.24148 1070.93876 1062.78857 1069.6486 1063.91317 1066.0456 1067.49843 1064.86571 1068.73385 1061.2992 1072.35385 1060.23071 1073.69891 1056.70411 1077.35021 1055.74806 1078.80367 1052.26475 1082.48279 1051.42211 1084.04332 1047.98545 1087.74675 1047.2571 1089.41296 1043.87042 1093.13717 1043.25716 1094.90756 1039.92375 1098.64892 1039.42635 1100.52183 1036.14953 1104.27687 1035.76853 1106.25075 1032.55146 1110.01587 1032.28737 1112.08896 1029.13325 1115.86056 1028.98649 1118.03094 1025.89849 1121.8052 1025.86944 1124.0708 1022.85072 1127.84406 1022.93957 1130.2028 1019.99313 1133.97139 1020.19992 1136.4211 1017.32873 1140.18133 1017.65338 1142.71973 1014.8603 1146.46796 1015.30257 1149.09267 1012.5904 1152.82524 1013.14991 1155.53375 1010.52132 1159.24706 1011.19755 1162.0366 1008.65517 1165.72699 1009.44743 1168.59511 1006.99364 1172.25878 1007.90112 1175.20201 1005.53839 1178.83531 1006.56007 1181.85089 1004.29049 1185.4506 1005.4251 1188.53571 1003.25063 1192.0987 1004.49676 1195.25037 1002.41923 1198.77273 1003.77539 1201.98674 1001.79655 1205.46572 1003.26093 1208.74011 1001.38212 1212.17229 1002.95286 1215.50317 1001.1754 1218.88677 1002.85039 1222.26998 1001.17539 1225.60049 1002.95284 1229.03334 1001.38212 1232.30772 1003.26093 1235.78725 1001.79658 1239.00207 1003.7755 1242.52517 1002.41945 1245.67709 1004.49703 1249.24054 1003.25101 1252.32626 1005.42562 1255.92675 1004.29119 1258.94309 1006.56098 1262.57719 1005.53954 1265.52103 1007.9025 1269.18525 1006.99526 1272.05361 1009.44922 1275.7444 1008.65719 1278.53439 1011.19982 1282.24814 1010.52386 1284.95698 1013.1527 1288.69004 1012.5935 1291.31508 1015.30596 1295.06378 1014.86403 1297.60248 1017.6574 1301.36314 1017.33312 1303.81307 1020.2046 1307.582 1019.99816 1309.94086 1022.94487 1313.71449 1022.85642 1315.9802 1025.87543 1319.75467 1025.90482 1321.92499 1028.99302 1325.69665 1029.14006 1327.76962 1032.29437 1331.53482 1032.55876 1333.50859 1035.77601 1337.26371 1036.15733 1339.13655 1039.43436 1342.87804 1039.93213 1344.64828 1043.26571 1348.37254 1043.87929 1350.03861 1047.26616 1353.74207 1047.99483 1355.30245 1051.43166 1358.98158 1052.27462 1360.43486 1055.75809 1364.08614 1056.71444 1365.43099 1060.24117 1369.05095 1061.30994 1370.28612 1064.87655 1373.8713 1066.0567 1374.99563 1069.65976 1378.5426 1070.95015 1379.555 1074.58624 1383.06038 1075.98566 1383.95984 1079.6513 1387.42024 1081.15847 1388.20584 1084.85018 1391.61793 1086.46373 1392.28883 1090.17799 1395.64928 1091.89648 1396.20473 1095.62976 1399.51021 1097.45156 1399.94948 1101.2002 1403.19682 1103.12381 1403.51943 1106.88435 1406.70542 1108.90806 1406.91089 1112.67687 1410.03236 1114.79888 1410.1203 1118.57227 1413.17404 1120.79052 1413.14416 1124.56474 1416.12711 1126.87717 1415.97929 1130.64855 1418.88847 1133.05306 1418.62273 1136.81793 1421.45522 1139.31228 1421.07172 1143.06696 1423.82469 1145.64882 1423.32373 1149.38968 1425.99445 1152.0566 1425.3765 1155.78 1427.96232 1158.52944 1427.22794 1162.23159 1429.72634 1165.06083 1428.87639 1168.73844 1431.28492 1171.64446 1430.32019 1175.29335 1432.6366 1178.27311 1431.55829 1181.89001 1433.78055 1184.94071 1432.58999 1188.52245 1434.71621 1191.64124 1433.4149 1195.18465 1435.44325 1198.36772 1434.03274 1201.86861 1435.96173 1205.11308 1434.44395 1208.56967 1436.2722 1211.87186 1434.64909 1215.28064 1436.37546 1218.6383"/>
  <polygon class="cls-6" points="1442.98562 1218.6383 1441.82532 1222.10714 1442.87924 1225.60977 1441.61337 1229.04148 1442.55931 1232.57477 1441.18844 1235.96587 1442.02494 1239.52663 1440.54988 1242.87368 1441.27563 1246.4586 1439.69737 1249.75818 1440.31128 1253.36389 1438.63101 1256.61266 1439.13216 1260.2357 1437.35126 1263.43035 1437.73892 1267.06723 1435.85895 1270.20454 1436.13257 1273.85172 1434.15526 1276.92853 1434.31445 1280.58243 1432.24168 1283.59568 1432.28625 1287.25272 1430.12004 1290.19945 1430.04995 1293.85603 1427.79245 1296.73336 1427.60782 1300.3859 1425.26131 1303.19104 1424.96241 1306.83596 1422.52926 1309.56624 1422.1165 1313.19999 1419.59919 1315.85282 1419.07306 1319.47197 1416.47411 1322.04495 1415.83533 1325.64584 1413.15745 1328.13646 1412.40681 1331.71564 1409.6527 1334.12161 1408.79107 1337.67565 1405.9635 1339.99478 1404.99185 1343.52033 1402.09361 1345.75055 1401.013 1349.24426 1398.04698 1351.38352 1396.85858 1354.84206 1393.8277 1356.8884 1392.53277 1360.30848 1389.44 1362.26002 1388.03987 1365.63838 1384.88822 1367.49331 1383.3843 1370.82675 1380.17682 1372.58333 1378.57058 1375.86867 1375.31035 1377.52526 1373.60335 1380.75937 1370.29348 1382.31438 1368.48734 1385.49417 1365.13099 1386.94609 1363.22738 1390.06849 1359.82774 1391.4159 1357.82845 1394.47789 1354.38873 1395.71941 1352.29558 1398.71802 1348.81906 1399.85238 1346.63396 1402.78466 1343.12392 1403.81065 1340.84894 1406.67366 1337.30879 1407.59012 1334.9459 1410.38109 1331.37891 1411.18706 1328.93025 1413.90319 1325.33982 1414.59773 1322.8077 1417.23625 1319.19743 1417.81846 1316.5843 1420.37664 1312.95769 1420.8458 1310.26597 1423.32106 1306.62652 1423.67659 1303.85874 1426.06641 1300.20997 1426.30785 1297.36873 1428.60984 1293.71418 1428.73687 1290.80218 1430.94871 1287.14539 1430.96115 1284.1654 1433.08064 1280.50991 1432.97847 1277.4648 1435.00354 1273.81422 1434.78686 1270.70705 1436.71554 1267.06514 1436.3846 1263.89943 1438.215 1260.26984 1437.77026 1257.04853 1439.50081 1253.43452 1438.94298 1250.16058 1440.57226 1246.56532 1439.90219 1243.24186 1441.42892 1239.66936 1440.64755 1236.30072 1442.07053 1232.75387 1441.1791 1229.34203 1442.49755 1225.82437 1441.49741 1222.37329 1442.71057 1218.88677 1441.60328 1215.40064 1442.71057 1211.94993 1441.49743 1208.43157 1442.49756 1205.01974 1441.1791 1201.47231 1442.07049 1198.1028 1440.64742 1194.52955 1441.42869 1191.20581 1439.90189 1187.61006 1440.57185 1184.33547 1438.94242 1180.72066 1439.50006 1177.49855 1437.76929 1173.86814 1438.21378 1170.70177 1436.38314 1167.05929 1436.71383 1163.95185 1434.78497 1160.30086 1435.00141 1157.25545 1432.97612 1153.59953 1433.07802 1150.61917 1430.95826 1146.96191 1430.9455 1144.04953 1428.73337 1140.39452 1428.60599 1137.55295 1426.30369 1133.90377 1426.06189 1131.13573 1423.67175 1127.49595 1423.31586 1124.80408 1420.84032 1121.17725 1420.37082 1118.56397 1417.81234 1114.95352 1417.22979 1112.42143 1414.59104 1108.83096 1413.89623 1106.38239 1411.17989 1102.81535 1410.37363 1100.45253 1407.58244 1096.91233 1406.66568 1094.63739 1403.80242 1091.12734 1402.77615 1088.94235 1399.84366 1085.46581 1398.70901 1083.37277 1395.71018 1079.93305 1394.46836 1077.93388 1391.40616 1074.53426 1390.05846 1072.6308 1386.93587 1069.27451 1385.48367 1067.46854 1382.30372 1064.15875 1380.74845 1062.45196 1377.51421 1059.19185 1375.85739 1057.58586 1372.57195 1054.37852 1370.81517 1052.87487 1367.48166 1049.7234 1365.62657 1048.32356 1362.24818 1045.23099 1360.2965 1043.93636 1356.87642 1040.90569 1354.82996 1039.7176 1351.37143 1036.75178 1349.23206 1035.67147 1345.73837 1032.77343 1343.50803 1031.80211 1339.98257 1028.97476 1337.66337 1028.11343 1334.10938 1025.35953 1331.70333 1024.60916 1328.12419 1021.93148 1325.63348 1021.293 1322.03269 1018.69433 1319.45977 1018.16856 1315.84089 1015.65153 1313.18815 1015.23912 1309.55468 1012.80627 1306.82461 1012.50774 1303.18006 1010.16153 1300.37522 1009.97727 1296.72312 1007.72007 1293.84616 1007.65032 1290.19005 1005.48439 1287.24369 1005.52926 1283.58712 1003.45673 1280.5742 1003.61617 1276.92069 1001.63907 1273.8442 1001.91289 1270.19737 1000.03315 1267.06056 1000.42107 1263.42441 998.64041 1260.23052 999.14179 1256.60833 997.46171 1253.36032 998.07577 1249.7553 996.49761 1246.45617 997.22344 1242.87154 995.74848 1239.52525 996.58506 1235.96535 995.21424 1232.57483 996.16018 1229.04153 994.89433 1225.61054 995.94823 1222.10753 994.78793 1218.6383 995.94822 1215.16946 994.89431 1211.66682 996.16018 1208.23512 995.21424 1204.70182 996.5851 1201.31072 995.74861 1197.74997 997.22367 1194.40292 996.49791 1190.818 998.07618 1187.51841 997.46226 1183.9127 999.14254 1180.66394 998.64138 1177.04089 1000.42228 1173.84624 1000.03462 1170.20936 1001.91459 1167.07206 1001.64098 1163.42488 1003.61829 1160.34807 1003.45909 1156.69417 1005.53187 1153.68091 1005.48729 1150.02387 1007.65351 1147.07714 1007.72359 1143.42056 1009.9811 1140.54324 1010.16572 1136.8907 1012.51224 1134.08555 1012.81113 1130.44063 1015.24428 1127.71035 1015.65704 1124.07661 1018.17435 1121.42378 1018.70049 1117.80463 1021.29943 1115.23165 1021.93821 1111.63075 1024.61609 1109.14014 1025.36674 1105.56096 1028.12085 1103.15499 1028.98248 1099.60094 1031.81005 1097.28181 1032.7817 1093.75627 1035.67994 1091.52605 1036.76054 1088.03234 1039.72657 1085.89307 1040.91496 1082.43453 1043.94585 1080.38819 1045.24077 1076.96811 1048.33354 1075.01658 1049.73367 1071.63821 1052.88532 1069.78329 1054.38924 1066.44985 1057.59672 1064.69327 1059.20296 1061.40792 1062.46319 1059.75133 1064.17019 1056.51722 1067.48006 1054.96221 1069.28621 1051.78243 1072.64256 1050.3305 1074.54616 1047.2081 1077.9458 1045.8607 1079.9451 1042.7987 1083.38481 1041.55718 1085.47796 1038.55857 1088.95449 1037.42422 1091.13959 1034.49193 1094.64962 1033.46595 1096.9246 1030.60293 1100.46475 1029.68648 1102.82764 1026.89551 1106.39463 1026.08954 1108.84329 1023.37341 1112.43372 1022.67886 1114.96584 1020.04035 1118.57611 1019.45813 1121.18924 1016.89996 1124.81586 1016.43079 1127.50757 1013.95554 1131.14702 1013.60001 1133.91481 1011.21018 1137.56357 1010.96874 1140.40481 1008.66676 1144.05936 1008.53973 1146.97137 1006.32789 1150.62815 1006.31545 1153.60814 1004.19596 1157.26363 1004.29813 1160.30874 1002.27306 1163.95932 1002.48973 1167.0665 1000.56106 1170.7084 1000.89199 1173.87412 999.0616 1177.5037 999.50634 1180.72501 997.77579 1184.33902 998.33362 1187.61296 996.70434 1191.20822 997.3744 1194.53169 995.84767 1198.10418 996.62905 1201.47283 995.20606 1205.01968 996.0975 1208.43152 994.77904 1211.94917 995.77919 1215.40025 994.56603 1218.88677 995.67331 1222.3729 994.56602 1225.82361 995.77916 1229.34197 994.77904 1232.7538 996.09749 1236.30124 995.2061 1239.67074 996.62918 1243.244 995.8479 1246.56774 997.3747 1250.16348 996.70474 1253.43807 998.33417 1257.05288 997.77653 1260.275 999.5073 1263.9054 999.06282 1267.07178 1000.89346 1270.71425 1000.56276 1273.8217 1002.49163 1277.47268 1002.27519 1280.5181 1004.30047 1284.17401 1004.19857 1287.15437 1006.31833 1290.81163 1006.33109 1293.72401 1008.54323 1297.37902 1008.67061 1300.2206 1010.97291 1303.86977 1011.21471 1306.63781 1013.60485 1310.27759 1013.96074 1312.96946 1016.43628 1316.59629 1016.90577 1319.20957 1019.46426 1322.82003 1020.04681 1325.35212 1022.68556 1328.94258 1023.38037 1331.39116 1026.09671 1334.9582 1026.90296 1337.32101 1029.69415 1340.86122 1030.61091 1343.13615 1033.47417 1346.6462 1034.50044 1348.83119 1037.43294 1352.30773 1038.56759 1354.40078 1041.56641 1357.84049 1042.80823 1359.83966 1045.87044 1363.23929 1047.21813 1365.14274 1050.34072 1368.49904 1051.79293 1370.30501 1054.97288 1373.61479 1056.52814 1375.32158 1059.76239 1378.58169 1061.41921 1380.18769 1064.70465 1383.39502 1066.46143 1384.89867 1069.79493 1388.05015 1071.65002 1389.44998 1075.02842 1392.54256 1076.9801 1393.83718 1080.40018 1396.86786 1082.44664 1398.05595 1085.90516 1401.02176 1088.04454 1402.10208 1091.53823 1405.00011 1093.76856 1405.97143 1097.29403 1408.79878 1099.61322 1409.66011 1103.16722 1412.41401 1105.57326 1413.16438 1109.1524 1415.84206 1111.64311 1416.48054 1115.24391 1419.07921 1117.81683 1419.60498 1121.43571 1422.12202 1124.08844 1422.53443 1127.72191 1424.96727 1130.45198 1425.26581 1134.09653 1427.61201 1136.90138 1427.79628 1140.55347 1430.05347 1143.43044 1430.12322 1147.08655 1432.28915 1150.0329 1432.24428 1153.68948 1434.31681 1156.70239 1434.15737 1160.35591 1436.13447 1163.4324 1435.86065 1167.07922 1437.74039 1170.21603 1437.35247 1173.85219 1439.13313 1177.04607 1438.63175 1180.66827 1440.31184 1183.91627 1439.69777 1187.5213 1441.27593 1190.82042 1440.55011 1194.40505 1442.02507 1197.75135 1441.18848 1201.31124 1442.5593 1204.70176 1441.61336 1208.23506 1442.87921 1211.66606 1441.82532 1215.16907 1442.98562 1218.6383"/>
  <circle class="cls-3" cx="1218.88677" cy="1218.6383" r="163.40426"/>
  <circle class="cls-9" cx="1218.88677" cy="1218.6383" r="159.57447"/>
  <circle class="cls-4" cx="1218.88677" cy="1218.6383" r="144.12766"/>
  <circle class="cls-3" cx="1218.88677" cy="1218.6383" r="136.85106"/>
  <g>
    <line class="cls-5" x1="1252.0414" y1="1185.12856" x2="1239.37852" y2="1181.16344"/>
    <line class="cls-5" x1="1278.05772" y1="1193.27504" x2="1270.62113" y2="1190.94642"/>
    <line class="cls-5" x1="1296.58004" y1="1199.07492" x2="1291.75852" y2="1197.56516"/>
    <line class="cls-5" x1="1359.05698" y1="1218.6383" x2="1329.57166" y2="1209.40557"/>
    <line class="cls-5" x1="1224.64565" y1="1176.07076" x2="1213.64866" y2="1177.0535"/>
    <line class="cls-5" x1="1263.74802" y1="1172.57641" x2="1241.54767" y2="1174.56033"/>
    <line class="cls-5" x1="1348.39324" y1="1165.01215" x2="1317.63787" y2="1167.76058"/>
    <line class="cls-5" x1="1198.74159" y1="1181.90543" x2="1195.49352" y2="1183.60349"/>
    <line class="cls-5" x1="1227.6965" y1="1166.76808" x2="1212.80788" y2="1174.55171"/>
    <line class="cls-5" x1="1261.2625" y1="1149.2201" x2="1255.51373" y2="1152.2255"/>
    <line class="cls-5" x1="1318.02453" y1="1119.54544" x2="1290.64041" y2="1133.8616"/>
    <line class="cls-5" x1="1197.84904" y1="1178.50319" x2="1189.95694" y2="1187.93991"/>
    <line class="cls-5" x1="1218.11888" y1="1154.26619" x2="1209.58542" y2="1164.4698"/>
    <line class="cls-5" x1="1272.57159" y1="1089.15614" x2="1252.76647" y2="1112.83747"/>
    <line class="cls-5" x1="1192.4655" y1="1162.91482" x2="1185.60949" y2="1184.77522"/>
    <line class="cls-5" x1="1199.64036" y1="1140.03777" x2="1197.84283" y2="1145.7692"/>
    <line class="cls-5" x1="1218.95028" y1="1078.4681" x2="1209.69069" y2="1107.99228"/>
    <line class="cls-5" x1="1174.84204" y1="1196.21575" x2="1176.14272" y2="1210.84537"/>
    <line class="cls-5" x1="1165.3193" y1="1089.10755" x2="1168.05393" y2="1119.86564"/>
    <line class="cls-5" x1="1175.70297" y1="1226.43123" x2="1180.95377" y2="1236.48613"/>
    <line class="cls-5" x1="1159.13069" y1="1194.69658" x2="1167.54052" y2="1210.80076"/>
    <line class="cls-5" x1="1119.83884" y1="1119.45566" x2="1134.14281" y2="1146.84668"/>
    <line class="cls-5" x1="1189.99341" y1="1249.07615" x2="1195.45121" y2="1253.64481"/>
    <line class="cls-5" x1="1162.94144" y1="1226.43126" x2="1177.66191" y2="1238.75359"/>
    <line class="cls-5" x1="1140.77606" y1="1207.87688" x2="1143.52565" y2="1210.17853"/>
    <line class="cls-5" x1="1089.42895" y1="1164.89482" x2="1113.10117" y2="1184.71056"/>
    <line class="cls-5" x1="1185.75231" y1="1252.13385" x2="1198.39771" y2="1256.10608"/>
    <line class="cls-5" x1="1159.69328" y1="1243.94806" x2="1167.19048" y2="1246.30312"/>
    <line class="cls-5" x1="1078.71662" y1="1218.51129" x2="1108.19364" y2="1227.77075"/>
    <line class="cls-5" x1="1213.151" y1="1261.19514" x2="1224.1256" y2="1260.22443"/>
    <line class="cls-5" x1="1173.9938" y1="1264.65864" x2="1196.2381" y2="1262.6911"/>
    <line class="cls-5" x1="1153.62831" y1="1266.45998" x2="1159.69328" y2="1265.92353"/>
    <line class="cls-5" x1="1089.33177" y1="1272.14708" x2="1120.09036" y2="1269.42645"/>
    <line class="cls-5" x1="1238.95106" y1="1255.41423" x2="1242.24827" y2="1253.69428"/>
    <line class="cls-5" x1="1210.09033" y1="1270.46907" x2="1224.94378" y2="1262.72095"/>
    <line class="cls-5" x1="1119.65927" y1="1317.64128" x2="1147.05715" y2="1303.34953"/>
    <line class="cls-5" x1="1239.99911" y1="1258.65999" x2="1247.8127" y2="1249.33433"/>
    <line class="cls-5" x1="1219.60054" y1="1283.00606" x2="1228.17665" y2="1272.77031"/>
    <line class="cls-5" x1="1206.19218" y1="1299.00918" x2="1210.38375" y2="1294.00646"/>
    <line class="cls-5" x1="1165.08465" y1="1348.07176" x2="1184.91117" y2="1324.40845"/>
    <line class="cls-5" x1="1257.08187" y1="1236.8031" x2="1260.19229" y2="1226.91691"/>
    <line class="cls-5" x1="1245.27626" y1="1274.32619" x2="1252.14667" y2="1252.48921"/>
    <line class="cls-5" x1="1218.69626" y1="1358.80838" x2="1227.9691" y2="1329.33548"/>
    <line class="cls-5" x1="1262.89527" y1="1240.92003" x2="1261.62034" y2="1226.43128"/>
    <line class="cls-5" x1="1266.55421" y1="1282.50149" x2="1266.15445" y2="1277.95855"/>
    <line class="cls-5" x1="1272.33685" y1="1348.21753" x2="1269.63102" y2="1317.46743"/>
    <line class="cls-5" x1="1262.1001" y1="1210.92763" x2="1256.86745" y2="1200.88534"/>
    <line class="cls-5" x1="1278.62111" y1="1242.6341" x2="1270.17843" y2="1226.43125"/>
    <line class="cls-5" x1="1285.8355" y1="1256.47968" x2="1285.24336" y2="1255.34326"/>
    <line class="cls-5" x1="1317.84479" y1="1317.91065" x2="1303.56538" y2="1290.50615"/>
    <line class="cls-5" x1="1247.77843" y1="1188.20209" x2="1242.35404" y2="1183.65303"/>
    <line class="cls-5" x1="1274.77881" y1="1210.84543" x2="1260.09771" y2="1198.53341"/>
    <line class="cls-5" x1="1348.29584" y1="1272.49905" x2="1324.64152" y2="1252.66182"/>
  </g>
  <g>
    <line class="cls-5" x1="1189.03749" y1="1187.21381" x2="1198.74556" y2="1181.91269"/>
    <line class="cls-5" x1="1155.91788" y1="1205.29887" x2="1173.86051" y2="1195.50125"/>
    <line class="cls-5" x1="1137.76012" y1="1215.21397" x2="1143.32663" y2="1212.17436"/>
    <line class="cls-5" x1="1081.40996" y1="1245.98414" x2="1108.52369" y2="1231.17861"/>
    <line class="cls-5" x1="1213.65086" y1="1177.07396" x2="1218.87809" y2="1176.51132"/>
    <line class="cls-5" x1="1180.00493" y1="1180.69543" x2="1197.82662" y2="1178.77719"/>
    <line class="cls-5" x1="1081.40686" y1="1191.30801" x2="1112.10209" y2="1188.00414"/>
    <line class="cls-5" x1="1212.36344" y1="1173.07325" x2="1224.46441" y2="1176.62332"/>
    <line class="cls-5" x1="1183.78591" y1="1164.68944" x2="1194.27097" y2="1167.76545"/>
    <line class="cls-5" x1="1102.32193" y1="1140.7903" x2="1131.97149" y2="1149.48861"/>
    <line class="cls-5" x1="1239.32727" y1="1181.31992" x2="1248.66217" y2="1188.8371"/>
    <line class="cls-5" x1="1208.26833" y1="1156.30891" x2="1226.35109" y2="1170.87052"/>
    <line class="cls-5" x1="1193.84334" y1="1144.69282" x2="1195.90606" y2="1146.35388"/>
    <line class="cls-5" x1="1140.97285" y1="1102.11749" x2="1165.02493" y2="1121.48605"/>
    <line class="cls-5" x1="1241.98539" y1="1173.56838" x2="1249.36105" y2="1187.06106"/>
    <line class="cls-5" x1="1191.47871" y1="1081.17381" x2="1206.29624" y2="1108.28031"/>
    <line class="cls-5" x1="1258.92325" y1="1199.27023" x2="1260.17091" y2="1210.81267"/>
    <line class="cls-5" x1="1255.278" y1="1165.54699" x2="1257.00761" y2="1181.54809"/>
    <line class="cls-5" x1="1253.1314" y1="1145.68817" x2="1253.73504" y2="1151.27259"/>
    <line class="cls-5" x1="1246.15483" y1="1081.14595" x2="1249.47258" y2="1111.83936"/>
    <line class="cls-5" x1="1260.23888" y1="1226.46894" x2="1257.81955" y2="1234.72946"/>
    <line class="cls-5" x1="1270.64097" y1="1190.95223" x2="1264.82554" y2="1210.80831"/>
    <line class="cls-5" x1="1296.68202" y1="1102.03812" x2="1287.99734" y2="1131.69094"/>
    <line class="cls-5" x1="1266.37612" y1="1226.43125" x2="1257.68086" y2="1237.23913"/>
    <line class="cls-5" x1="1282.13421" y1="1206.84453" x2="1278.91536" y2="1210.84544"/>
    <line class="cls-5" x1="1295.2716" y1="1190.51523" x2="1291.15315" y2="1195.63432"/>
    <line class="cls-5" x1="1335.37233" y1="1140.67152" x2="1316.01448" y2="1164.7326"/>
    <line class="cls-5" x1="1248.80867" y1="1250.01163" x2="1238.9476" y2="1255.4079"/>
    <line class="cls-5" x1="1281.86782" y1="1231.92067" x2="1263.88972" y2="1241.75883"/>
    <line class="cls-5" x1="1356.33889" y1="1191.16788" x2="1329.2389" y2="1205.99781"/>
    <line class="cls-5" x1="1224.12316" y1="1260.20192" x2="1218.93376" y2="1260.76523"/>
    <line class="cls-5" x1="1257.63769" y1="1256.56386" x2="1239.97965" y2="1258.48067"/>
    <line class="cls-5" x1="1291.64977" y1="1252.8718" x2="1286.34732" y2="1253.44739"/>
    <line class="cls-5" x1="1356.39153" y1="1245.84399" x2="1325.69959" y2="1249.17565"/>
    <line class="cls-5" x1="1225.40394" y1="1264.18349" x2="1213.31127" y2="1260.64775"/>
    <line class="cls-5" x1="1254.03776" y1="1272.55564" x2="1243.49018" y2="1269.47167"/>
    <line class="cls-5" x1="1335.52224" y1="1296.38064" x2="1305.86541" y2="1287.70937"/>
    <line class="cls-5" x1="1198.44888" y1="1255.94996" x2="1189.13853" y2="1248.46645"/>
    <line class="cls-5" x1="1229.52918" y1="1280.93179" x2="1211.43008" y2="1266.38403"/>
    <line class="cls-5" x1="1296.90638" y1="1335.08845" x2="1272.83656" y2="1315.74153"/>
    <line class="cls-5" x1="1195.87201" y1="1263.80738" x2="1188.42246" y2="1250.2088"/>
    <line class="cls-5" x1="1214.65111" y1="1298.08715" x2="1212.53237" y2="1294.21956"/>
    <line class="cls-5" x1="1246.41952" y1="1356.07788" x2="1231.57748" y2="1328.9849"/>
    <line class="cls-5" x1="1178.85248" y1="1237.90037" x2="1177.60655" y2="1226.47078"/>
    <line class="cls-5" x1="1182.54379" y1="1271.76248" x2="1180.79379" y2="1255.70886"/>
    <line class="cls-5" x1="1191.74344" y1="1356.15529" x2="1188.39634" y2="1325.45072"/>
    <line class="cls-5" x1="1177.53906" y1="1210.80626" x2="1179.93957" y2="1202.58241"/>
    <line class="cls-5" x1="1167.17871" y1="1246.29968" x2="1173.00763" y2="1226.33045"/>
    <line class="cls-5" x1="1159.19665" y1="1273.6453" x2="1160.96264" y2="1267.59521"/>
    <line class="cls-5" x1="1141.19735" y1="1335.3089" x2="1149.85518" y2="1305.64814"/>
    <line class="cls-5" x1="1171.425" y1="1210.84543" x2="1180.09973" y2="1200.04303"/>
    <line class="cls-5" x1="1155.62751" y1="1230.5176" x2="1158.93031" y2="1226.40472"/>
    <line class="cls-5" x1="1102.47204" y1="1296.71058" x2="1121.80814" y2="1272.63188"/>
  </g>
  <ellipse class="cls-9" cx="1359.05698" cy="1218.6383" rx="1.02128" ry="3.38298"/>
  <ellipse class="cls-9" cx="1356.36472" cy="1191.29779" rx="1.02128" ry="3.38298" transform="translate(-206.31337 287.44334) rotate(-11.24777)"/>
  <ellipse class="cls-9" cx="1348.39133" cy="1165.00755" rx="1.02128" ry="3.38298" transform="translate(-343.14535 604.55645) rotate(-22.49555)"/>
  <ellipse class="cls-9" cx="1335.44312" cy="1140.77749" rx="1.02128" ry="3.38298" transform="translate(-408.69517 933.98474) rotate(-33.74332)"/>
  <ellipse class="cls-9" cx="1318.01749" cy="1119.5384" rx="1.02128" ry="3.38298" transform="translate(-405.61661 1259.61633) rotate(-44.99109)"/>
  <ellipse class="cls-9" cx="1296.78382" cy="1102.10616" rx="1.02128" ry="3.38298" transform="translate(-340.12897 1567.72701) rotate(-56.23887)"/>
  <ellipse class="cls-9" cx="1272.55779" cy="1089.15042" rx="1.02128" ry="3.38298" transform="translate(-220.84971 1847.69244) rotate(-67.48664)"/>
  <ellipse class="cls-9" cx="1246.27003" cy="1081.16886" rx="1.02128" ry="3.38298" transform="translate(-57.53483 2092.21188) rotate(-78.73441)"/>
  <ellipse class="cls-9" cx="1218.93036" cy="1078.46809" rx="3.38298" ry="1.02128"/>
  <ellipse class="cls-9" cx="1191.58901" cy="1081.15186" rx="3.38298" ry="1.02128" transform="translate(-187.73652 252.75896) rotate(-11.22996)"/>
  <ellipse class="cls-9" cx="1165.29629" cy="1089.11707" rx="3.38298" ry="1.02128" transform="translate(-327.86628 528.26328) rotate(-22.47773)"/>
  <ellipse class="cls-9" cx="1141.06221" cy="1102.05774" rx="3.38298" ry="1.02128" transform="translate(-419.84594 819.00302) rotate(-33.7255)"/>
  <ellipse class="cls-9" cx="1119.8177" cy="1119.47677" rx="3.38298" ry="1.02128" transform="translate(-463.60254 1118.97931) rotate(-44.97328)"/>
  <ellipse class="cls-9" cx="1102.37886" cy="1140.70502" rx="3.38298" ry="1.02128" transform="translate(-458.6743 1422.76905) rotate(-56.22105)"/>
  <ellipse class="cls-9" cx="1089.41559" cy="1164.92702" rx="3.38298" ry="1.02128" transform="translate(-404.04282 1724.80492) rotate(-67.46882)"/>
  <ellipse class="cls-9" cx="1081.42586" cy="1191.2123" rx="3.38298" ry="1.02128" transform="translate(-298.35601 2018.66056) rotate(-78.7166)"/>
  <ellipse class="cls-9" cx="1078.71659" cy="1218.55113" rx="1.02128" ry="3.38298"/>
  <ellipse class="cls-9" cx="1081.39185" cy="1245.8933" rx="1.02128" ry="3.38298" transform="translate(-221.61478 234.04738) rotate(-11.21214)"/>
  <ellipse class="cls-9" cx="1089.34888" cy="1272.1885" rx="1.02128" ry="3.38298" transform="translate(-403.3927 512.6708) rotate(-22.45991)"/>
  <ellipse class="cls-9" cx="1102.28202" cy="1296.4266" rx="1.02128" ry="3.38298" transform="translate(-534.14376 829.67373) rotate(-33.70769)"/>
  <ellipse class="cls-9" cx="1119.69444" cy="1317.67653" rx="1.02128" ry="3.38298" transform="translate(-603.67775 1176.34232) rotate(-44.95546)"/>
  <ellipse class="cls-9" cx="1140.91727" cy="1335.12197" rx="1.02128" ry="3.38298" transform="translate(-603.22403 1540.58243) rotate(-56.20323)"/>
  <ellipse class="cls-9" cx="1165.13524" cy="1348.09277" rx="1.02128" ry="3.38298" transform="translate(-526.69675 1907.19812) rotate(-67.45101)"/>
  <ellipse class="cls-9" cx="1191.41803" cy="1356.09068" rx="1.02128" ry="3.38298" transform="translate(-371.85737 2258.65862) rotate(-78.69878)"/>
  <ellipse class="cls-9" cx="1218.75602" cy="1358.80845" rx="3.38298" ry="1.02128"/>
  <ellipse class="cls-9" cx="1246.09902" cy="1356.14169" rx="3.38298" ry="1.02128" transform="translate(-239.56974 267.71559) rotate(-11.19433)"/>
  <ellipse class="cls-9" cx="1272.39669" cy="1348.19283" rx="3.38298" ry="1.02128" transform="translate(-418.3081 587.84123) rotate(-22.4421)"/>
  <ellipse class="cls-9" cx="1296.63882" cy="1335.26723" rx="3.38298" ry="1.02128" transform="translate(-522.90155 943.49731) rotate(-33.68987)"/>
  <ellipse class="cls-9" cx="1317.89415" cy="1317.86142" rx="3.38298" ry="1.02128" transform="translate(-545.8654 1315.85621) rotate(-44.93764)"/>
  <ellipse class="cls-9" cx="1335.34619" cy="1296.64402" rx="3.38298" ry="1.02128" transform="translate(-485.09086 1684.51526) rotate(-56.18542)"/>
  <ellipse class="cls-9" cx="1348.32453" cy="1272.43008" rx="3.38298" ry="1.02128" transform="translate(-344.11263 2029.20866) rotate(-67.43319)"/>
  <ellipse class="cls-9" cx="1356.3306" cy="1246.14978" rx="3.38298" ry="1.02128" transform="translate(-131.79058 2331.51483) rotate(-78.68096)"/>
</svg>