<svg id="Layer_2" data-name="Layer 2" xmlns="http://www.w3.org/2000/svg" viewBox="0 0 2437.2766 2437.2766">
  <defs>
    <style>
      .cls-1 {
        stroke-width: 1.26531px;
      }

      .cls-1, .cls-2, .cls-3, .cls-4, .cls-5, .cls-6, .cls-7, .cls-8, .cls-9, .cls-10, .cls-11, .cls-12, .cls-13, .cls-14, .cls-15, .cls-16, .cls-17, .cls-18, .cls-19, .cls-20, .cls-21, .cls-22, .cls-23, .cls-24, .cls-25, .cls-26, .cls-27, .cls-28, .cls-29, .cls-30, .cls-31, .cls-32, .cls-33, .cls-34 {
        fill: none;
        stroke: #fff;
      }

      .cls-1, .cls-2, .cls-3, .cls-4, .cls-5, .cls-6, .cls-7, .cls-8, .cls-9, .cls-10, .cls-11, .cls-12, .cls-13, .cls-14, .cls-16, .cls-17, .cls-18, .cls-19, .cls-20, .cls-21, .cls-22, .cls-23, .cls-24, .cls-25, .cls-26, .cls-27, .cls-28, .cls-29, .cls-30, .cls-31, .cls-32, .cls-33, .cls-34 {
        stroke-miterlimit: 10;
      }

      .cls-2 {
        stroke-width: 2.1498px;
      }

      .cls-3 {
        stroke-width: 1.02505px;
      }

      .cls-5 {
        stroke-width: .36409px;
      }

      .cls-6 {
        stroke-width: .93756px;
      }

      .cls-7 {
        stroke-width: .26609px;
      }

      .cls-8 {
        stroke-width: .24806px;
      }

      .cls-9 {
        stroke-width: .4516px;
      }

      .cls-10 {
        stroke-width: 3px;
      }

      .cls-11 {
        stroke-width: 2px;
      }

      .cls-12 {
        stroke-width: 1.09643px;
      }

      .cls-13 {
        stroke-width: .79032px;
      }

      .cls-14 {
        stroke-width: .55519px;
      }

      .cls-15 {
        stroke-linecap: round;
        stroke-linejoin: round;
        stroke-width: 5px;
      }

      .cls-35 {
        fill: #fff;
        stroke-width: 0px;
      }

      .cls-16 {
        stroke-width: .5px;
      }

      .cls-17 {
        stroke-width: .35355px;
      }

      .cls-18 {
        stroke-width: .90881px;
      }

      .cls-19 {
        stroke-width: .43878px;
      }

      .cls-20 {
        stroke-width: .4096px;
      }

      .cls-21 {
        stroke-width: 1.06262px;
      }

      .cls-22 {
        stroke-width: .29758px;
      }

      .cls-23 {
        stroke-width: 1.10368px;
      }

      .cls-24 {
        stroke-width: .89293px;
      }

      .cls-25 {
        stroke-width: .42045px;
      }

      .cls-26 {
        stroke-width: 1.74676px;
      }

      .cls-27 {
        stroke-width: 4px;
      }

      .cls-28 {
        stroke-width: .223px;
      }

      .cls-29 {
        stroke-width: .2973px;
      }

      .cls-30 {
        stroke-width: 1.07144px;
      }

      .cls-31 {
        stroke-width: .63758px;
      }

      .cls-32 {
        stroke-width: .48872px;
      }

      .cls-33 {
        stroke-width: .42209px;
      }

      .cls-34 {
        stroke-width: .63441px;
      }
    </style>
  </defs>
  <path class="cls-4" d="m704.54634,1303.27654c-14.55318,0-19.34042-8.0425-19.34042-21.82974,0-30.89362,48.06383-35.23404,48.06383-60.51064v-12.51064l166.21276.00006c-18.54301,51.55029-58.69841,85.21484-124.34042,97.78723-6.35469-6.1239-60.25531-2.93628-70.59574-2.93628Z"/>
  <path class="cls-4" d="m733.26975,1208.42553l163.65957.00006s27.13873-243.2986,169.50238-293.19148c83.90187-29.40432,96.02953-74.59581,96.02953-106.63836,0-52.85106-53.3617-92.68085-53.3617-92.68085,0,0-26.51741,4.93931-53.15232-.08354s-149.57108-40.00157-149.57108-40.00157c.76596,11.68085,9.1332,35.4992,32.68085,40.08511,125.4169,24.42493,165.70213,51.44681,165.70213,91.91489,0,50.55319-65.61702,59.87234-147.06383,77.23404s-159.03191,20.96809-204.31915,66.25532c-39.94493,39.94493-118.91489,145.53191-107.17021,181.78723,6.80658,21.01161,62.23404,22.7234,74.93617,36.89362s12.12766,38.42553,12.12766,38.42553Z"/>
  <path class="cls-4" d="m1140.50378,744.2553s-46.21275-67.65956-158.29786-86.8085c-62.04255,6.12766-90.12766-16.08511-68.93618,30.89364,0,0,192.79709,62.02032,227.23404,55.91486Z"/>
  <g>
    <circle class="cls-16" cx="742.42414" cy="1220.93617" r="6.12766"/>
    <circle class="cls-17" cx="742.42414" cy="1220.93617" r="4.33291"/>
    <circle class="cls-16" cx="742.42414" cy="1220.93617" r="2.50532"/>
    <polygon class="cls-17" points="742.76166 1219.12507 741.02444 1219.73832 740.68692 1221.54942 742.08663 1222.74727 743.82384 1222.13402 744.16136 1220.32292 742.76166 1219.12507"/>
  </g>
  <g>
    <circle class="cls-16" cx="702.67799" cy="1112.17893" r="6.12766"/>
    <circle class="cls-17" cx="702.67799" cy="1112.17893" r="4.33291"/>
    <circle class="cls-16" cx="702.67799" cy="1112.17893" r="2.50532"/>
    <polygon class="cls-17" points="703.0155 1110.36783 701.27828 1110.98108 700.94077 1112.79218 702.34047 1113.99003 704.07769 1113.37678 704.4152 1111.56568 703.0155 1110.36783"/>
  </g>
  <g>
    <circle class="cls-16" cx="949.78039" cy="976.60326" r="6.12766"/>
    <circle class="cls-17" cx="949.78039" cy="976.60326" r="4.33291"/>
    <circle class="cls-16" cx="949.78039" cy="976.60326" r="2.50532"/>
    <polygon class="cls-17" points="950.1179 974.79216 948.38069 975.40541 948.04317 977.21651 949.44287 978.41436 951.18009 977.80111 951.51761 975.99001 950.1179 974.79216"/>
  </g>
  <g>
    <ellipse class="cls-25" cx="952.28571" cy="708.25244" rx="4.33291" ry="6.12766" transform="translate(73.34391 1505.70521) rotate(-78.8567)"/>
    <ellipse class="cls-29" cx="952.28571" cy="708.25244" rx="3.06383" ry="4.33291" transform="translate(73.34391 1505.70521) rotate(-78.8567)"/>
    <ellipse class="cls-25" cx="952.28571" cy="708.25244" rx="1.77153" ry="2.50532" transform="translate(73.34391 1505.70521) rotate(-78.8567)"/>
    <polygon class="cls-29" points="952.86436 707.06117 951.07609 707.15089 950.49744 708.34216 951.70705 709.44371 953.49533 709.35399 954.07398 708.16272 952.86436 707.06117"/>
  </g>
  <g>
    <circle class="cls-16" cx="785.61018" cy="1220.93617" r="6.12766"/>
    <circle class="cls-17" cx="785.61018" cy="1220.93617" r="4.33291"/>
    <circle class="cls-16" cx="785.61018" cy="1220.93617" r="2.50532"/>
    <polygon class="cls-17" points="785.94769 1219.12507 784.21047 1219.73832 783.87296 1221.54942 785.27266 1222.74727 787.00988 1222.13402 787.34739 1220.32292 785.94769 1219.12507"/>
  </g>
  <g>
    <circle class="cls-16" cx="828.79621" cy="1220.93617" r="6.12766"/>
    <circle class="cls-17" cx="828.79621" cy="1220.93617" r="4.33291"/>
    <circle class="cls-16" cx="828.79621" cy="1220.93617" r="2.50532"/>
    <polygon class="cls-17" points="829.13373 1219.12507 827.39651 1219.73832 827.05899 1221.54942 828.4587 1222.74727 830.19591 1222.13402 830.53343 1220.32292 829.13373 1219.12507"/>
  </g>
  <g>
    <circle class="cls-16" cx="871.98225" cy="1220.93617" r="6.12766"/>
    <circle class="cls-17" cx="871.98225" cy="1220.93617" r="4.33291"/>
    <circle class="cls-16" cx="871.98225" cy="1220.93617" r="2.50532"/>
    <polygon class="cls-17" points="872.31976 1219.12507 870.58254 1219.73832 870.24503 1221.54942 871.64473 1222.74727 873.38195 1222.13402 873.71946 1220.32292 872.31976 1219.12507"/>
  </g>
  <path class="cls-4" d="m712.20137,1164.05859c-.74981-3.51817-1.14438-7.16783-1.14438-10.90965,0-28.76581,23.3193-52.08511,52.08511-52.08511s52.08511,23.3193,52.08511,52.08511-23.3193,52.08511-52.08511,52.08511c-11.65897,0-22.42323-3.83074-31.10278-10.30223"/>
  <g>
    <circle class="cls-4" cx="747.16184" cy="1108.87613" r="3.20745"/>
    <polygon class="cls-17" points="748.75731 1107.95499 747.16184 1107.03385 745.56638 1107.95499 745.56638 1109.79728 747.16184 1110.71842 748.75731 1109.79728 748.75731 1107.95499"/>
  </g>
  <g>
    <circle class="cls-4" cx="800.99617" cy="1125.17541" r="3.20745"/>
    <polygon class="cls-17" points="802.3351 1126.44083 802.76152 1124.64858 801.42259 1123.38316 799.65724 1123.91 799.23082 1125.70225 800.56975 1126.96767 802.3351 1126.44083"/>
  </g>
  <g>
    <circle class="cls-4" cx="800.77249" cy="1181.42265" r="3.20745"/>
    <polygon class="cls-17" points="799.9428 1183.06753 801.78215 1182.96361 802.61183 1181.31873 801.60217 1179.77777 799.76282 1179.88168 798.93314 1181.52656 799.9428 1183.06753"/>
  </g>
  <g>
    <circle class="cls-4" cx="746.81022" cy="1197.29324" r="3.20745"/>
    <polygon class="cls-17" points="744.99677 1196.96859 745.62234 1198.70141 747.4358 1199.02606 748.62368 1197.61789 747.9981 1195.88507 746.18465 1195.56042 744.99677 1196.96859"/>
  </g>
  <g>
    <circle class="cls-4" cx="716.1709" cy="1150.12298" r="3.20745"/>
    <polygon class="cls-17" points="715.9634 1148.29242 714.48184 1149.3874 714.68934 1151.21796 716.3784 1151.95354 717.85996 1150.85856 717.65246 1149.028 715.9634 1148.29242"/>
  </g>
  <g>
    <circle class="cls-4" cx="646.70198" cy="1258.79588" r="3.20745"/>
    <polygon class="cls-17" points="646.49448 1256.96532 645.01292 1258.0603 645.22042 1259.89086 646.90948 1260.62644 648.39104 1259.53146 648.18354 1257.7009 646.49448 1256.96532"/>
  </g>
  <g>
    <circle class="cls-4" cx="606.9506" cy="1156.5395" r="3.20745"/>
    <polygon class="cls-17" points="606.7431 1154.70894 605.26154 1155.80392 605.46904 1157.63448 607.1581 1158.37006 608.63966 1157.27508 608.43216 1155.44452 606.7431 1154.70894"/>
  </g>
  <g>
    <circle class="cls-4" cx="584.09954" cy="1201.31885" r="3.20745"/>
    <polygon class="cls-17" points="583.89204 1199.48829 582.41048 1200.58327 582.61798 1202.41383 584.30704 1203.14941 585.7886 1202.05443 585.5811 1200.22387 583.89204 1199.48829"/>
  </g>
  <g>
    <circle class="cls-4" cx="469.20592" cy="1199.23404" r="3.20745"/>
    <polygon class="cls-17" points="468.99842 1197.40348 467.51686 1198.49846 467.72436 1200.32902 469.41342 1201.0646 470.89498 1199.96962 470.68748 1198.13906 468.99842 1197.40348"/>
  </g>
  <g>
    <circle class="cls-4" cx="487.5889" cy="1135.23553" r="3.20745"/>
    <polygon class="cls-17" points="487.3814 1133.40497 485.89984 1134.49995 486.10734 1136.33051 487.7964 1137.06609 489.27796 1135.97111 489.07046 1134.14055 487.3814 1133.40497"/>
  </g>
  <g>
    <circle class="cls-4" cx="509.46575" cy="1184.3617" r="3.20745"/>
    <polygon class="cls-17" points="509.25825 1182.53114 507.77669 1183.62612 507.98419 1185.45668 509.67325 1186.19226 511.15481 1185.09728 510.94731 1183.26672 509.25825 1182.53114"/>
  </g>
  <path class="cls-4" d="m699.38686,1256.21544c-3.0903.55255-6.27216.84092-9.52136.84092-29.67824,0-53.73721-24.05897-53.73721-53.73721,0-24.11357,15.88268-44.51754,37.7574-51.32129"/>
  <circle class="cls-4" cx="609.69528" cy="1192.97872" r="6.25532"/>
  <path class="cls-4" d="m613.22819,1183.05399c4.07893,1.45208,6.99901,5.34739,6.99901,9.92473,0,5.81662-4.7153,10.53191-10.53191,10.53191s-10.53191-4.7153-10.53191-10.53191c0-1.34917.25369-2.6391.71597-3.82466,0,0-3.42874-4.84023-8.18406-12.00512-3.5297-5.31824,8.36816-11.00711,15.83625-16.75179s8.99354-12.54608,8.99354-12.54608c0,0,3.51064-10.78723,6.70213-21.51064s-22.34043-83.3617-22.34043-83.3617l6.31915-2.93617,2.87234,5.87234-2.87234,1.2766s27.75391,67.48157,23.68085,80.29787-17.65858,55.56463-17.65858,55.56463Z"/>
  <circle class="cls-19" cx="609.69528" cy="1192.97872" r="2.74468"/>
  <circle class="cls-1" cx="310.81068" cy="1181.15344" r="7.91489"/>
  <circle class="cls-14" cx="310.81068" cy="1181.15344" r="3.47286"/>
  <circle class="cls-1" cx="418.57278" cy="988.44112" r="7.91489"/>
  <circle class="cls-4" cx="418.57278" cy="988.44112" r="11.71772"/>
  <circle class="cls-14" cx="418.57278" cy="988.44112" r="3.47286"/>
  <g>
    <rect class="cls-4" x="605.70453" y="1023.39847" width="52.21277" height="15.06383" transform="translate(-388.71963 382.45533) rotate(-26.06466)"/>
    <g>
      <rect class="cls-4" x="608.13238" y="1032.22805" width="4.46809" height="18.38298" transform="translate(-395.50934 374.09969) rotate(-26.06466)"/>
      <rect class="cls-4" x="614.25937" y="1029.23115" width="4.46809" height="18.38298" transform="translate(-393.56942 376.48702) rotate(-26.06466)"/>
      <rect class="cls-4" x="620.38637" y="1026.23425" width="4.46809" height="18.38298" transform="translate(-391.62951 378.87434) rotate(-26.06466)"/>
      <rect class="cls-4" x="626.51337" y="1023.23735" width="4.46809" height="18.38298" transform="translate(-389.68959 381.26166) rotate(-26.06466)"/>
      <rect class="cls-4" x="632.64037" y="1020.24045" width="4.46809" height="18.38298" transform="translate(-387.74967 383.64899) rotate(-26.06466)"/>
      <rect class="cls-4" x="638.76737" y="1017.24355" width="4.46809" height="18.38298" transform="translate(-385.80975 386.03631) rotate(-26.06466)"/>
      <rect class="cls-4" x="644.89436" y="1014.24665" width="4.46809" height="18.38298" transform="translate(-383.86984 388.42364) rotate(-26.06466)"/>
      <rect class="cls-4" x="651.02136" y="1011.24974" width="4.46809" height="18.38298" transform="translate(-381.92992 390.81096) rotate(-26.06466)"/>
    </g>
  </g>
  <circle class="cls-20" cx="1218.88677" cy="1218.6383" r="8.61702"/>
  <circle class="cls-5" cx="1218.88677" cy="1218.6383" r="7.65957"/>
  <circle class="cls-28" cx="1218.88677" cy="1218.6383" r="4.69149"/>
  <polygon class="cls-32" points="1217.99016 1212.06579 1212.74651 1216.12853 1213.64311 1222.70104 1219.78338 1225.21081 1225.02704 1221.14807 1224.13043 1214.57556 1217.99016 1212.06579"/>
  <polygon class="cls-4" points="1237.05488 1227.48717 1221.80426 1236.30637 1214.37883 1233.4113 1206.99755 1220.6472 1203.48265 1214.56905 1223.04323 1203.25748 1237.05488 1227.48717"/>
  <polygon class="cls-4" points="1224.95066 1196.99305 1223.04323 1203.25748 1203.48265 1214.56905 1197.10171 1213.09766 1093.18862 1033.40563 1121.03757 1017.30101 1224.95066 1196.99305"/>
  <circle class="cls-7" cx="1209.73207" cy="1202.8075" r="3.82979"/>
  <path class="cls-4" d="m1206.7579,1220.23278l-26.88228-1.43057c-3.11481-.16576-5.93495-1.89415-7.49645-4.59438h0c-1.81262-3.13449-1.62416-7.03949.48188-9.98485l10.56453-14.77482"/>
  <circle class="cls-4" cx="1179.30429" cy="1210.11749" r="6"/>
  <circle class="cls-32" cx="1179.30429" cy="1210.11749" r="4.24264"/>
  <polygon class="cls-32" points="1179.30213 1207.0356 1176.63421 1208.57842 1176.63637 1211.66031 1179.30645 1213.19939 1181.97437 1211.65657 1181.97221 1208.57468 1179.30213 1207.0356"/>
  <path class="cls-4" d="m1161.57513,1151.66322l-21.17663-1.12694c-3.11481-.16576-5.93495-1.89415-7.49645-4.59438h0c-1.81262-3.13449-1.62416-7.03949.48188-9.98485l10.56453-14.77482"/>
  <circle class="cls-4" cx="1139.82717" cy="1141.85156" r="6"/>
  <circle class="cls-32" cx="1139.82717" cy="1141.85156" r="4.24264"/>
  <polygon class="cls-32" points="1139.82501 1138.76967 1137.15709 1140.31249 1137.15925 1143.39438 1139.82933 1144.93346 1142.49725 1143.39064 1142.49509 1140.30875 1139.82501 1138.76967"/>
  <polygon class="cls-4" points="1121.03757 1017.30101 1093.18862 1033.40563 1087.66247 1031.88233 1122.47366 1011.75156 1121.03757 1017.30101"/>
  <rect class="cls-4" x="1083.364" y="1015.86266" width="40.21277" height="6.38298" transform="translate(-361.92136 689.28867) rotate(-30.04012)"/>
  <rect class="cls-4" x="1078.18752" y="1002.95377" width="40.21277" height="14.29787" transform="translate(-358.13554 685.49488) rotate(-30.04012)"/>
  <line class="cls-4" x1="983.79271" y1="838.97149" x2="1004.69814" y2="875.12227"/>
  <polyline class="cls-4" points="1031.98503 868.56757 979.95126 778.58801 956.66208 792.05577 965.71107 807.70377"/>
  <polyline class="cls-4" points="1036.20342 929.60287 1075.9129 998.27062 1099.20208 984.80285 1060.29927 917.53005"/>
  <polygon class="cls-4" points="1099.20208 984.80285 1075.9129 998.27062 1077.3095 1013.97943 1112.12069 993.84867 1099.20208 984.80285"/>
  <path class="cls-24" d="m1150.89796,1003.36934c-9.89269,3.13473-19.66591,6.98707-29.25069,11.57543"/>
  <path class="cls-24" d="m1150.08072,975.35471c25.43434-7.21355,51.47826-10.2571,77.21135-9.37657l-23.71381,27.42705c-15.84346,1.06491-31.68988,3.81634-47.27311,8.32542"/>
  <path class="cls-24" d="m1108.43645,991.26886c11.84296-5.76814,23.94832-10.52784,36.21179-14.30696"/>
  <path class="cls-24" d="m1046.41626,1033.77948c9.38952-8.7446,19.54992-16.86332,30.45336-24.25189"/>
  <path class="cls-24" d="m1062.04375,1056.26312c-11.65642,11.24194-21.9253,23.5845-30.7359,36.76287l-35.60044,6.87404c12.06241-22.7244,27.67522-43.76364,46.59309-62.19954"/>
  <path class="cls-24" d="m1090.84229,1032.75881c-8.74298,6.00871-16.94384,12.54608-24.58423,19.54352"/>
  <path class="cls-24" d="m1156.21698,1078.14024c.54828-1.29033,1.50447-2.42009,2.8116-3.17598,3.20428-1.85299,7.30401-.75754,9.15699,2.44674,1.85299,3.20428.75754,7.30401-2.44674,9.15699-1.30712.75589-2.76324,1.02114-4.15508.85274"/>
  <path class="cls-24" d="m1133.64436,1103.57764c-.54828,1.29033-1.50447,2.42009-2.8116,3.17598-3.20428,1.85299-7.30401.75754-9.15699-2.44674-1.85299-3.20428-.75754-7.30401,2.44674-9.15699,1.30712-.75589,2.76324-1.02114,4.15508-.85274"/>
  <path class="cls-24" d="m1159.53017,969.46933h0c1.4796,0,2.68085,1.20125,2.68085,2.68085v113.87693h-5.3617v-113.87693c0-1.4796,1.20125-2.68085,2.68085-2.68085Z" transform="translate(-204.58681 292.92751) rotate(-13.24174)"/>
  <path class="cls-24" d="m1080.32543,1013.7219h5.3617v113.87693c0,1.4796-1.20125,2.68085-2.68085,2.68085h0c-1.4796,0-2.68085-1.20125-2.68085-2.68085v-113.87693h0Z" transform="translate(2605.7923 1015.33507) rotate(133.1615)"/>
  <polyline class="cls-4" points="1134.08457 1134.97717 1129.84422 1135.85057 1120.77439 1146.6383 1121.32294 1154.7766 1142.57826 1181.39362 1160.29103 1194.79787 1171.13986 1208.42559"/>
  <line class="cls-4" x1="1156.08456" y1="1151.37103" x2="1179.30429" y2="1195.2119"/>
  <line class="cls-32" x1="1150.20592" y1="1151.37103" x2="1175.60793" y2="1200.38137"/>
  <circle class="cls-32" cx="1146.61894" cy="1175.23404" r="4.4806"/>
  <polygon class="cls-32" points="1148.19092 1172.51128 1145.04695 1172.51128 1143.47496 1175.23404 1145.04695 1177.95681 1148.19092 1177.95681 1149.76291 1175.23404 1148.19092 1172.51128"/>
  <circle class="cls-32" cx="1129.34557" cy="1153.38215" r="4.4806"/>
  <polygon class="cls-32" points="1130.91756 1150.65939 1127.77358 1150.65939 1126.20159 1153.38215 1127.77358 1156.10491 1130.91756 1156.10491 1132.48955 1153.38215 1130.91756 1150.65939"/>
  <circle class="cls-32" cx="1109.276" cy="1250.66024" r="4.4806"/>
  <polygon class="cls-32" points="1110.84799 1247.93747 1107.70401 1247.93747 1106.13202 1250.66024 1107.70401 1253.383 1110.84799 1253.383 1112.41998 1250.66024 1110.84799 1247.93747"/>
  <circle class="cls-32" cx="1111.46365" cy="1179.71464" r="4.4806"/>
  <polygon class="cls-32" points="1113.03564 1176.99188 1109.89166 1176.99188 1108.31967 1179.71464 1109.89166 1182.43741 1113.03564 1182.43741 1114.60763 1179.71464 1113.03564 1176.99188"/>
  <circle class="cls-32" cx="1119.08823" cy="1167.22078" r="4.4806"/>
  <polygon class="cls-32" points="1120.66022 1164.49802 1117.51624 1164.49802 1115.94425 1167.22078 1117.51624 1169.94354 1120.66022 1169.94354 1122.23221 1167.22078 1120.66022 1164.49802"/>
  <circle class="cls-32" cx="1113.7566" cy="1265.42749" r="4.4806"/>
  <polygon class="cls-32" points="1115.32859 1262.70472 1112.18461 1262.70472 1110.61262 1265.42749 1112.18461 1268.15025 1115.32859 1268.15025 1116.90058 1265.42749 1115.32859 1262.70472"/>
  <polyline class="cls-32" points="1120.77439 1148.90155 1101.56762 1179.19149 1104.7954 1184.93617 1113.05698 1187.74468 1113.7566 1193.10638 1108.33358 1201.14894 1104.7954 1230.51064 1100.03571 1234.34043 1100.03571 1260.94689 1110.76439 1271.67557 1118.2372 1271.67557 1123.97188 1256.61702 1133.73784 1244.68085 1133.73784 1206.63792 1139.59082 1200.78493 1139.59082 1191.44681 1142.57826 1181.39362"/>
  <g>
    <path class="cls-35" d="m1021.68678,939.33641c-7.94747,29.1529-9.1679,64.56269,16.33885,91.71016,5.55176,5.90918,11.38965,11.78516,17.03516,17.46777,17.29199,17.40527,33.62402,33.8457,44.29102,52.85352,12.06738,21.50293,14.62012,43.27344,7.80664,66.55469l-4.79883-1.4043c14.31055-48.89551-17.33887-80.75195-50.84668-114.47949-5.66895-5.70703-11.53223-11.6084-17.13184-17.56836-17.81152-18.95801-25.16992-43.76758-21.86914-73.74023.58268-5.29011,1.51459-10.73477,2.77503-16.27495l6.3998-5.1188Z"/>
    <path class="cls-35" d="m1050.58517,862.85166c.34145-10.13492-2.13201-19.00533-5.07321-25.83537-5.84473-13.57227-14.54395-21.96387-14.91113-22.31445l-3.45312,3.61523c.08398.08008,8.41895,8.15137,13.84082,20.83789,3.63523,8.50398,5.15839,16.95476,4.57357,25.29221l5.02308-1.59551Z"/>
  </g>
  <polyline class="cls-32" points="1102.56793 1177.61396 1097.55546 1171.89209 1100.9772 1166.17021 1108.31967 1168.5432"/>
  <g>
    <path class="cls-35" d="m1002.30734,1150.0941c-23.27697-55.07816-24.01463-123.80135-17.43364-174.38467l6.12888-7.30668c-3.30828,22.03403-5.28421,48.27053-4.43594,75.42996.89855,28.76618,5.13882,65.32596,18.1962,98.93483l-2.45551,7.32657Z"/>
    <path class="cls-35" d="m1060.20451,859.52141c8.4034-8.76072,14.11799-21.64063,14.11799-46.5852,0-20.81641-6.37207-36.98438-18.93848-48.05469-23.1543-20.39941-56.44691-16.14648-57.94984-15.95801l-1.63805,4.96094c.34668-.04395,34.86621-4.14062,56.30371,14.7666,11.42773,10.08008,17.22266,24.97949,17.22266,44.28516,0,32.44273-9.83636,42.60831-23.16492,51.52822l14.04693-4.94302Z"/>
  </g>
  <g>
    <path class="cls-35" d="m1028.82593,869.39913c1.96885-23.37173,1.84228-38.24257,1.8374-38.62307l-5,.06445c.00499.38546.13375,15.78982-1.96144,39.85773l5.12404-1.29912Z"/>
    <path class="cls-35" d="m1018.23013,942.19237c-5.38349,25.6406-13.09385,53.34674-24.13516,80.40595-19.69043,48.25391-42.98145,71.36133-59.05273,82.25-6.79085,4.60035-12.8887,7.4853-17.85775,9.29445l1.85887-6.13759c3.9922-1.71852,8.59018-4.1423,13.58092-7.56018,15.3877-10.53809,37.74121-32.92676,56.8418-79.73535,10.03614-24.59585,17.29195-49.73693,22.53707-73.33982l6.227-5.17746Z"/>
  </g>
  <path class="cls-4" d="m619.19567,1243.29168l.7124.24023,10.53192,13.52441,10.12781,1.08337c-.27991,2.60913,1.13824,5.20813,3.67133,6.3114,3.12329,1.36011,6.75787-.06909,8.11804-3.19238.25708-.59033.41382-1.19873.479-1.80664l38.94891,4.16626"/>
  <path class="cls-4" d="m614.29636,1152.89904l-1.79307.96564c-.61859-1.28564-1.67914-2.36609-3.08984-2.98047-3.12329-1.36011-6.75787.06909-8.11804,3.19238-.82556,1.89575-.61841,3.97705.36633,5.62646l-9.51965,5.12671s-6.64642,12.91174-7.85394,30.3269c-2.4469-.07397-4.80664,1.31787-5.84381,3.69934-1.36017,3.12329.06909,6.75793,3.19238,8.11804,1.04773.4563,2.15186.59204,3.20953.46191,1.21422,5.82015,3.78261,11.24063,6.6335,15.85101"/>
  <line class="cls-4" x1="647.09539" y1="1135.23553" x2="624.5698" y2="1147.36641"/>
  <path class="cls-16" d="m616.57497,879.32962s49.0352-69.45728,108.52457-36.01047-3.35354,107.08166-3.35354,107.08166"/>
  <path class="cls-4" d="m597.43996,952.34043s-84.76596,10.46809-156.76596,3.82979-106.21277-19.91489-111.06383-24.76596-8.93617-25.78723-20.68085-25.78723-21.44681,16.59574-36.25532,14.55319-18.38298-7.40426-18.38298-7.40426c0,0,33.95745-39.82979,68.17021-49.02128s49.53191-7.65957,49.53191-7.65957c0,0-8.80851,27.44681,1.40426,44.29787s31.6527,32.80715,77.23404,36.12766c77.10638,5.61705,150.46746-2.32979,150.46746-2.32979l-3.65894,18.15957Z"/>
  <path class="cls-4" d="m604.92587,907.54254l-3.82696,24.75534s-70.99937,8.10638-148.61432,3.07943c-45.60657-2.95384-67.02128-19.2766-77.23404-36.12766s-1.40427-42.9092-1.40427-42.9092c20.50815-1.66571,34.83011,6.86554,43.27454,25.08514,7.73526,4.42542,14.33237,10.02087,19.91489,16.65955,7.71692.88403,15.03989,3.09009,21.82979,7.08508,8.63065-.04932,16.66125.85242,23.74469,3.25537,7.51732-.70557,14.58835-.43164,21.06383,1.14893,9.4701-.65527,18.50719-.6239,26.80851.57446,8.49407-1.10754,16.74574-1.30164,24.70213-.38306,8.49549-1.78528,17.68579-2.2981,27.57447-1.53186,7.7214-1.07617,15.16039-1.43408,22.16676-.69153Z"/>
  <path class="cls-16" d="m385.66996,856.59857s-5.41085,19.46526-.00397,32.32507c5.50994,13.10493,11.98674,22.43806,48.36972,27.41678s98.17021,7.02128,165.19149,2.04255"/>
  <path class="cls-4" d="m957.59395,828.68844c-.5221-1.68395-.80329-3.47385-.80329-5.32944,0-9.92654,8.04705-17.97359,17.97359-17.97359s17.97359,8.04705,17.97359,17.97359c0,9.88799-7.98468,17.91107-17.85804,17.97322"/>
  <circle class="cls-4" cx="950.64126" cy="856.44881" r="13.426"/>
  <circle class="cls-8" cx="950.64126" cy="856.44881" r="8.91689"/>
  <path class="cls-22" d="m964.06076,856.11214l19.91446-27.34618.09149-.12213c.88754-1.55891,1.39453-3.36266,1.39453-5.28483,0-5.90778-4.78921-10.69699-10.69699-10.69699-3.6462,0-6.86631,1.82429-8.79738,4.60992l.00131.00091-19.15671,26.30565"/>
  <g>
    <path class="cls-22" d="m983.37879,829.54778c.88754-1.55891,1.39453-3.36266,1.39453-5.28483,0-5.90778-4.78921-10.69699-10.69699-10.69699-3.6462,0-6.86631,1.82429-8.79738,4.60992"/>
    <path class="cls-22" d="m982.64271,830.55431c.88754-1.55891,1.39453-3.36266,1.39453-5.28483,0-5.90778-4.78921-10.69699-10.69699-10.69699-3.6462,0-6.86631,1.82429-8.79738,4.60992"/>
    <path class="cls-22" d="m981.90663,831.56084c.88754-1.55891,1.39453-3.36266,1.39453-5.28483,0-5.90778-4.78921-10.69699-10.69699-10.69699-3.6462,0-6.86631,1.82429-8.79738,4.60992"/>
    <path class="cls-22" d="m981.17055,832.56736c.88754-1.55891,1.39453-3.36266,1.39453-5.28483,0-5.90778-4.78921-10.69699-10.69699-10.69699-3.6462,0-6.86631,1.82429-8.79738,4.60992"/>
    <path class="cls-22" d="m980.43447,833.57389c.88754-1.55891,1.39453-3.36266,1.39453-5.28483,0-5.90778-4.78921-10.69699-10.69699-10.69699-3.6462,0-6.86631,1.82429-8.79738,4.60992"/>
    <path class="cls-22" d="m979.69839,834.58042c.88754-1.55891,1.39453-3.36266,1.39453-5.28483,0-5.90778-4.78921-10.69699-10.69699-10.69699-3.6462,0-6.86631,1.82429-8.79738,4.60992"/>
    <path class="cls-22" d="m978.96231,835.58694c.88754-1.55891,1.39453-3.36266,1.39453-5.28483,0-5.90778-4.78921-10.69699-10.69699-10.69699-3.6462,0-6.86631,1.82429-8.79738,4.60992"/>
    <path class="cls-22" d="m978.22623,836.59347c.88754-1.55891,1.39453-3.36266,1.39453-5.28483,0-5.90778-4.78921-10.69699-10.69699-10.69699-3.6462,0-6.86631,1.82429-8.79738,4.60992"/>
    <path class="cls-22" d="m977.49015,837.6c.88754-1.55891,1.39453-3.36266,1.39453-5.28483,0-5.90778-4.78921-10.69699-10.69699-10.69699-3.6462,0-6.86631,1.82429-8.79738,4.60992"/>
    <path class="cls-22" d="m976.75407,838.60653c.88754-1.55891,1.39453-3.36266,1.39453-5.28483,0-5.90778-4.78921-10.69699-10.69699-10.69699-3.6462,0-6.86631,1.82429-8.79738,4.60992"/>
    <path class="cls-22" d="m976.01798,839.61305c.88754-1.55891,1.39453-3.36266,1.39453-5.28483,0-5.90778-4.78921-10.69699-10.69699-10.69699-3.6462,0-6.86631,1.82429-8.79738,4.60992"/>
    <path class="cls-22" d="m975.2819,840.61958c.88754-1.55891,1.39453-3.36266,1.39453-5.28483,0-5.90778-4.78921-10.69699-10.69699-10.69699-3.6462,0-6.86631,1.82429-8.79738,4.60992"/>
    <path class="cls-22" d="m974.54582,841.62611c.88754-1.55891,1.39453-3.36266,1.39453-5.28483,0-5.90778-4.78921-10.69699-10.69699-10.69699-3.6462,0-6.86631,1.82429-8.79738,4.60992"/>
    <path class="cls-22" d="m973.80974,842.63263c.88754-1.55891,1.39453-3.36266,1.39453-5.28483,0-5.90778-4.78921-10.69699-10.69699-10.69699-3.6462,0-6.86631,1.82429-8.79738,4.60992"/>
    <path class="cls-22" d="m973.07366,843.63916c.88754-1.55891,1.39453-3.36266,1.39453-5.28483,0-5.90778-4.78921-10.69699-10.69699-10.69699-3.6462,0-6.86631,1.82429-8.79738,4.60992"/>
    <path class="cls-22" d="m972.33758,844.64569c.88754-1.55891,1.39453-3.36266,1.39453-5.28483,0-5.90778-4.78921-10.69699-10.69699-10.69699-3.6462,0-6.86631,1.82429-8.79738,4.60992"/>
    <path class="cls-22" d="m971.6015,845.65221c.88754-1.55891,1.39453-3.36266,1.39453-5.28483,0-5.90778-4.78921-10.69699-10.69699-10.69699-3.6462,0-6.86631,1.82429-8.79738,4.60992"/>
    <path class="cls-22" d="m970.86542,846.65874c.88754-1.55891,1.39453-3.36266,1.39453-5.28483,0-5.90778-4.78921-10.69699-10.69699-10.69699-3.6462,0-6.86631,1.82429-8.79738,4.60992"/>
    <path class="cls-22" d="m970.12934,847.66527c.88754-1.55891,1.39453-3.36266,1.39453-5.28483,0-5.90778-4.78921-10.69699-10.69699-10.69699-3.6462,0-6.86631,1.82429-8.79738,4.60992"/>
    <path class="cls-22" d="m969.39326,848.67179c.88754-1.55891,1.39453-3.36266,1.39453-5.28483,0-5.90778-4.78921-10.69699-10.69699-10.69699-3.6462,0-6.86631,1.82429-8.79738,4.60992"/>
    <path class="cls-22" d="m968.65718,849.67832c.88754-1.55891,1.39453-3.36266,1.39453-5.28483,0-5.90778-4.78921-10.69699-10.69699-10.69699-3.6462,0-6.86631,1.82429-8.79738,4.60992"/>
    <path class="cls-22" d="m967.9211,850.68485c.88754-1.55891,1.39453-3.36266,1.39453-5.28483,0-5.90778-4.78921-10.69699-10.69699-10.69699-3.6462,0-6.86631,1.82429-8.79738,4.60992"/>
    <path class="cls-22" d="m967.18501,851.69137c.88754-1.55891,1.39453-3.36266,1.39453-5.28483,0-5.90778-4.78921-10.69699-10.69699-10.69699-3.6462,0-6.86631,1.82429-8.79738,4.60992"/>
    <path class="cls-22" d="m966.44893,852.6979c.88754-1.55891,1.39453-3.36266,1.39453-5.28483,0-5.90778-4.78921-10.69699-10.69699-10.69699-3.6462,0-6.86631,1.82429-8.79738,4.60992"/>
    <path class="cls-22" d="m965.71285,853.70443c.88754-1.55891,1.39453-3.36266,1.39453-5.28483,0-5.90778-4.78921-10.69699-10.69699-10.69699-3.6462,0-6.86631,1.82429-8.79738,4.60992"/>
    <path class="cls-22" d="m964.97677,854.71095c.88754-1.55891,1.39453-3.36266,1.39453-5.28483,0-5.90778-4.78921-10.69699-10.69699-10.69699-3.6462,0-6.86631,1.82429-8.79738,4.60992"/>
    <path class="cls-22" d="m964.24069,855.71748c.88754-1.55891,1.39453-3.36266,1.39453-5.28483,0-5.90778-4.78921-10.69699-10.69699-10.69699-3.3243,0-6.29443,1.51641-8.2564,3.89523"/>
    <path class="cls-22" d="m964.06729,855.58213c.53576-1.27421.83185-2.674.83185-4.14295,0-5.90778-4.78921-10.69699-10.69699-10.69699-2.78936,0-5.32936,1.06764-7.23366,2.81656"/>
    <path class="cls-22" d="m963.9548,854.55673c.1366-.68246.20826-1.38837.20826-2.11103,0-5.90778-4.78921-10.69699-10.69699-10.69699-2.03238,0-3.93238.56679-5.55056,1.55094"/>
    <path class="cls-22" d="m963.33935,852.07663c-.67503-5.25806-5.16767-9.32139-10.60936-9.32139-.82638,0-1.63087.09371-2.40342.27107"/>
  </g>
  <path class="cls-4" d="m956.34008,868.60876c2.69964,13.26919,3.26525,16.04924,3.26525,16.04924"/>
  <path class="cls-4" d="m754.24059,950.46623h-30.92829c-14.74468,0-28.7234-16.57261-44.04255-16.57261h-72.38298c0-126.57447,124.18707-140.3617,211.78723-144.57447,79.0585-3.80199,119.15575,22.60183,130.81517,50.35521"/>
  <path class="cls-18" d="m1092.37781,840.20443c-7.97816-5.58808-13.46976-17.29151-13.46976-30.82432,0-14.76735,6.53925-27.35633,15.71301-32.19773"/>
  <g>
    <path class="cls-30" d="m975.63474,726.43107c-.37909,1.44894-.7953,2.9683-1.24337,4.53118-2.7251,9.50533-5.59649,17.02105-6.41343,16.78685s.72994-8.12966,3.45504-17.63499c.43005-1.50003.86373-2.9505,1.29242-4.3288"/>
    <path class="cls-30" d="m967.97794,747.7491l26.35791,7.5566c.81694.23421,3.68832-7.28152,6.41343-16.78685.56588-1.97381,1.08095-3.8782,1.5346-5.65899"/>
  </g>
  <g>
    <ellipse class="cls-30" cx="962.11018" cy="745.23082" rx="17.90426" ry="1.53878" transform="translate(-19.4097 1464.70542) rotate(-74.00282)"/>
    <line class="cls-30" x1="967.04441" y1="728.0199" x2="971.65609" y2="729.34203"/>
    <path class="cls-30" d="m984.39005,769.05205c1.22132-2.18659,3.29245-7.9443,5.3811-15.22967"/>
    <line class="cls-30" x1="957.17594" y1="762.44174" x2="968.43477" y2="765.66955"/>
  </g>
  <polygon class="cls-23" points="1019.92121 793.34043 1000.88242 793.34043 1012.94625 782.42553 1031.98503 782.42553 1019.92121 793.34043"/>
  <polyline class="cls-23" points="1031.98503 785.44829 1019.92121 796.36319 1000.88242 796.36319"/>
  <polyline class="cls-23" points="1031.98503 799.92797 1019.92121 810.84286 1000.88242 810.84286"/>
  <line class="cls-23" x1="1000.88242" y1="793.34043" x2="1000.88242" y2="810.84286"/>
  <line class="cls-23" x1="1019.92121" y1="810.84286" x2="1019.92121" y2="793.34043"/>
  <line class="cls-23" x1="1031.98503" y1="799.92797" x2="1031.98503" y2="782.42553"/>
  <path class="cls-27" d="m999.98085,741.12971s78.74169,27.25248,12.42085,93.57332"/>
  <path class="cls-27" d="m988.85003,756.93987s17.10057,8.25162,25.71759,25.48566"/>
  <path class="cls-27" d="m1023.70189,807.42224s37.7615,19.71001,49.35617,46.28218"/>
  <path class="cls-10" d="m1090.78039,809.61702s-62.12196-.54263-84.19928,15.02074"/>
  <path class="cls-10" d="m1087.71881,805.15279s-62.12196-.54263-84.19928,15.02074"/>
  <path class="cls-4" d="m956.66208,792.05577l23.28918-13.46777,10.68019-6.11992-3.19149-3.82979s-5.92688.94566-6.34705,1.36582-5.45818-8.09087-5.45818-8.09087l-15.50835,8.09087-14.17579.93205-4.22624-1.25347-1.39079-1.55504-12.38298,6.51064.51064,2.34621-2.29787,6.97294,6.6383,13.40426,11.74468-6.18495,12.11574.87902Z"/>
  <circle class="cls-30" cx="960.12639" cy="780.79787" r="5.24721"/>
  <circle class="cls-31" cx="960.12639" cy="780.79787" r="3.12246"/>
  <rect class="cls-6" x="931.63049" y="796.4851" width="23.90194" height="5.39939" transform="translate(-259.29069 512.58246) rotate(-26.86188)"/>
  <polyline class="cls-6" points="936.22786 805.93556 938.35486 811.81915 933.09447 817.59207"/>
  <polyline class="cls-6" points="963.57619 860.04499 969.13749 861.44681 967.66533 872.68085 958.39741 878.7209"/>
  <path class="cls-10" d="m986.80947,844.18829c-7.18872,5.49003-10.46582,24.34814-10.13306,36.88733"/>
  <path class="cls-10" d="m991.37121,852.07665c-6.07037,5.87695-9.12711,15.7226-10.27829,28.07758"/>
  <path class="cls-10" d="m769.4939,1304.0682s-9.41563,6.86797-28.56457,6.86797h-130.77046l-71.69762-13.14894-41.3617-23.74468-127.40426-57.95745s2.17021-13.02128,10.46809-26.42553,18.76596-19.91489,18.76596-19.91489l113.74468,73.40426,37.53191,20.29787,59.48936,13.02128h75.95209"/>
  <path class="cls-4" d="m662.61018,1276.46807c-2.10638,10.80859-2.80851,22.29797-2.10638,34.46814"/>
  <path class="cls-4" d="m550.20592,1263.44683c-5.9575,10.17041-9.87238,21.61731-11.74468,34.34045"/>
  <path class="cls-4" d="m512.67401,1243.14898c-7.23405,8.76599-12.42554,19.06384-15.57446,30.89355"/>
  <path class="cls-4" d="m609.69528,1276.46807c-2.06377,11.95264-1.8232,23.42407.46358,34.46814"/>
  <path class="cls-4" d="m552.18463,1122.3852c0-7.29724-5.91553-13.21277-13.21271-13.21277s-13.21277,5.91553-13.21277,13.21277c0,1.3324.2016,2.61707.56848,3.82983h-.00385l6.05389,20.80847h13.18842l6.05389-20.80847h-.00385c.36688-1.21277.56848-2.49744.56848-3.82983Z"/>
  <circle class="cls-4" cx="538.9719" cy="1121.87461" r="9.8936"/>
  <circle class="cls-13" cx="538.9719" cy="1121.87461" r="7.81914"/>
  <rect class="cls-13" x="538.14209" y="1117.98099" width="1.6596" height="7.78723" transform="translate(-463.03299 383.57958) rotate(-27.95595)"/>
  <polygon class="cls-13" points="572.36724 1185.28677 565.01443 1181.04162 557.66162 1185.28677 557.66162 1193.77706 565.01443 1198.02221 572.36724 1193.77706 572.36724 1185.28677"/>
  <circle class="cls-13" cx="531.4719" cy="1233.95745" r="5.71274"/>
  <path class="cls-4" d="m698.71993,940.59916l-38.415,7.7411c-.00055.00012-.00104.00024-.00159.00024l-11.93103,2.4043h-50.61085m100.04196,7.47501l33.35995-7.75359m-66.71989,20.94113l3.41736-6.22823,3.71536-.86353m-32.44173,53.2181l5.24188-9.55346m-30.63623,55.83533l10.72173-19.54064m-227.41588-93.53012h-28.472l-111.96875-29.79199c-4.80371-1.27734-9.7334,1.58008-11.01123,6.38281-1.27832,4.80371,1.57959,9.7334,6.3833,11.01172l114.24316,30.39746h64.03656l98.7193,219.57617c.01947.04333.04675.08032.06683.12329.33337.71326.76013,1.38391,1.27655,1.99463.06458.07642.1297.15112.19653.2251.23737.26245.48773.51489.75879.75061.02313.02014.04401.04321.06732.06311.28247.2406.58765.46045.90466.66821.09406.06177.19006.11841.28619.17651.10834.06543.21051.13721.32251.19873.1156.06348.23602.10767.35315.16553.15192.07495.30292.14893.45868.21509.24084.10278.48407.18909.72919.26929.13208.04321.26178.09033.39581.12744.29071.08044.58319.13965.87701.18994.10181.01746.20142.04297.30396.05688.40088.05444.80249.08716,1.203.08716.00238,0,.0047-.00049.00708-.00049.0022,0,.00439.00049.00659.00049.35919,0,.72003-.02844,1.08081-.07239.09637-.01184.19104-.0304.28693-.04529.26416-.04089.52716-.09277.78992-.15796.11377-.02832.2262-.05835.33875-.09106.24188-.07031.48157-.15356.72046-.24536.11163-.04272.224-.08179.33392-.12891.04443-.01917.08997-.0321.13428-.052.284-.12769.55804-.26843.82196-.4209.01648-.00952.03149-.02148.04791-.03101.29749-.17456.57855-.36719.84918-.57056.08368-.06287.16376-.13013.24536-.19604.21582-.17432.42175-.35718.61841-.54883.06836-.06653.138-.13049.20441-.19946.25494-.26489.495-.54114.71375-.83252.02625-.03491.04895-.07324.07477-.10864.19836-.27246.37823-.55603.54413-.84766.02466-.04321.05579-.08032.07983-.12427l64.99937-118.46305m-3.33643-31.33736l-.79154,1.44261m4.82487-8.79345l-.6969,1.27012m-7.78527,14.18885l-64.30382,117.19533-87.99286-195.7179h195.38116l-33.98812,61.9442"/>
  <path class="cls-4" d="m366.22045,968.74481c41.26765,13.89612,75.92661,36.02808,97.51041,74.4541"/>
  <polyline class="cls-4" points="476.92933 968.74481 476.92933 983.74468 485.99315 992.80851 549.18464 992.80851 549.18464 968.74481"/>
  <rect class="cls-4" x="553.78039" y="968.74481" width="50.54059" height="12.03185"/>
  <circle class="cls-4" cx="487.5889" cy="1135.23553" r="7.13756"/>
  <circle class="cls-4" cx="469.20592" cy="1199.23404" r="7.13756"/>
  <circle class="cls-4" cx="509.46575" cy="1184.3617" r="7.13756"/>
  <line class="cls-4" x1="481.9124" y1="1139.55023" x2="465.99766" y2="1192.85933"/>
  <line class="cls-4" x1="490.79716" y1="1141.60677" x2="474.63441" y2="1194.60676"/>
  <line class="cls-4" x1="497.36548" y1="1118.01065" x2="486.09004" y2="1128.25783"/>
  <line class="cls-4" x1="492.76294" y1="1140.14277" x2="511.2479" y2="1148.8886"/>
  <g>
    <polygon class="cls-35" points="661.09033 1199.40106 662.52343 1194.08563 664.34661 1194.08563 664.61108 1193.24676 661.24682 1193.24676 660.29791 1196.76629 661.09033 1199.40106"/>
    <polygon class="cls-35" points="659.18017 1210.06707 659.18017 1204.03191 655.98193 1194.08563 658.4674 1194.08563 658.21508 1193.24676 654.70532 1193.24676 657.90356 1203.19305 657.90356 1210.06707 659.18017 1210.06707"/>
  </g>
  <g>
    <polygon class="cls-35" points="670.97558 1198.57098 670.39416 1202.84271 670.59155 1204.29363 670.19671 1204.29363 670.08252 1205.1325 671.86816 1205.1325 670.97558 1198.57098"/>
    <polygon class="cls-35" points="668.83642 1194.08563 671.95251 1194.08563 671.79614 1193.24676 667.55981 1193.24676 664.38256 1210.06707 665.81762 1210.06707 668.83642 1194.08563"/>
    <polygon class="cls-35" points="672.22119 1207.35516 671.07714 1207.35516 671.50561 1210.06707 672.64965 1210.06707 672.22119 1207.35516"/>
  </g>
  <g>
    <polygon class="cls-35" points="683.97509 1203.8659 685.96875 1194.08563 688.54846 1194.08563 688.53393 1193.24676 684.69213 1193.24676 683.27868 1200.1806 683.97509 1203.8659"/>
    <polygon class="cls-35" points="678.14013 1194.08563 681.00885 1194.08563 680.85034 1193.24676 676.86352 1193.24676 676.57251 1210.06707 677.86364 1210.06707 678.14013 1194.08563"/>
    <polygon class="cls-35" points="680.77734 1199.62957 680.65698 1205.06927 681.57739 1210.06707 682.69952 1210.06707 680.77734 1199.62957"/>
    <polygon class="cls-35" points="687.15234 1199.71258 686.07159 1205.91107 686.18725 1210.06707 687.44049 1210.06707 687.15234 1199.71258"/>
  </g>
  <g>
    <polygon class="cls-35" points="694.89795 1194.08563 698.01403 1194.08563 697.85766 1193.24676 693.62133 1193.24676 690.44409 1210.06707 691.87915 1210.06707 694.89795 1194.08563"/>
    <polygon class="cls-35" points="698.28271 1207.35516 697.13867 1207.35516 697.56713 1210.06707 698.71118 1210.06707 698.28271 1207.35516"/>
    <polygon class="cls-35" points="697.03711 1198.57098 696.45568 1202.84271 696.65307 1204.29363 696.25824 1204.29363 696.14404 1205.1325 697.92968 1205.1325 697.03711 1198.57098"/>
  </g>
  <g>
    <polygon class="cls-35" points="707.58642 1200.89617 710.18212 1200.89617 710.18212 1194.08563 712.64379 1194.08563 712.64379 1193.24676 708.90551 1193.24676 708.90551 1200.05731 707.58642 1200.05731 707.58642 1200.89617"/>
    <polygon class="cls-35" points="703.86914 1194.08563 706.30981 1194.08563 706.30981 1193.24676 702.59253 1193.24676 702.59253 1210.06707 703.86914 1210.06707 703.86914 1194.08563"/>
    <rect class="cls-35" x="708.90551" y="1203.55438" width="1.27661" height="6.5127"/>
  </g>
  <g>
    <polygon class="cls-35" points="720.98046 1198.57098 720.39904 1202.84271 720.59643 1204.29363 720.2016 1204.29363 720.0874 1205.1325 721.87304 1205.1325 720.98046 1198.57098"/>
    <polygon class="cls-35" points="718.8413 1194.08563 721.95739 1194.08563 721.80102 1193.24676 717.56469 1193.24676 714.38745 1210.06707 715.82251 1210.06707 718.8413 1194.08563"/>
    <polygon class="cls-35" points="722.22607 1207.35516 721.08203 1207.35516 721.51049 1210.06707 722.65454 1210.06707 722.22607 1207.35516"/>
  </g>
  <circle class="cls-4" cx="565.01443" cy="1189.53191" r="10.85106"/>
  <circle class="cls-33" cx="565.01443" cy="1189.53191" r="4.58016"/>
  <polygon class="cls-13" points="274.02963 1203.59224 266.67681 1199.34709 259.324 1203.59224 259.324 1212.08253 266.67681 1216.32768 274.02963 1212.08253 274.02963 1203.59224"/>
  <circle class="cls-4" cx="266.67681" cy="1207.83739" r="10.85106"/>
  <circle class="cls-33" cx="266.67681" cy="1207.83739" r="4.58016"/>
  <path class="cls-4" d="m548.10814,1183.43157c0,.48332,7.45948,17.88728,7.45948,17.88728l26.29787,17.70243s8.04255,5.48936,17.3617,5.48936h16.7234l11.87234-4.34043s5.66488,7.64365,5.23404,8.07449-26.80851,28.81166-26.80851,28.81166h-42.89362l-23.48936-14.54572-4.34043,1.78723h-8.80851l-8.42553-8.80851,3.82979-10.85106"/>
  <circle class="cls-4" cx="516.6033" cy="1214.23404" r="11.87234"/>
  <g>
    <circle class="cls-34" cx="536.00756" cy="1199.23404" r="7.53191"/>
    <circle class="cls-34" cx="534.62154" cy="1200.30547" r="7.53191"/>
    <circle class="cls-34" cx="533.23552" cy="1201.3769" r="7.53191"/>
    <circle class="cls-34" cx="531.8495" cy="1202.44833" r="7.53191"/>
    <circle class="cls-34" cx="530.46348" cy="1203.51976" r="7.53191"/>
    <circle class="cls-34" cx="529.07747" cy="1204.59119" r="7.53191"/>
    <circle class="cls-34" cx="527.69145" cy="1205.66261" r="7.53191"/>
    <circle class="cls-34" cx="526.30543" cy="1206.73404" r="7.53191"/>
    <circle class="cls-34" cx="524.91941" cy="1207.80547" r="7.53191"/>
    <circle class="cls-34" cx="523.53339" cy="1208.8769" r="7.53191"/>
    <circle class="cls-34" cx="522.14738" cy="1209.94833" r="7.53191"/>
    <circle class="cls-34" cx="520.76136" cy="1211.01976" r="7.53191"/>
    <circle class="cls-34" cx="519.37534" cy="1212.09119" r="7.53191"/>
    <circle class="cls-34" cx="517.98932" cy="1213.16261" r="7.53191"/>
    <circle class="cls-34" cx="516.6033" cy="1214.23404" r="7.53191"/>
  </g>
  <path class="cls-34" d="m296.84868,875.61819s-20.34489-1.40542-42.55765,6.50947-30.12766,13.78723-30.12766,17.87234,21.36759,17.52206,37.61997,17.52206"/>
  <path class="cls-34" d="m519.8882,1168.10676l-81.51207,17.21238-42.89362,1.91489-5.74468-5.55319h-57.95745l-12.12766-13.57409s-54.33556,17.02088-62.92842,19.70174-17.40137,6.70214-17.40137,21.51065c0,12.57447,13.02128,19.2766,19.81915,19.2766h51.19149l11.61702-3.95745,60.23254-2.87234,91.77189-10.7462,55.41017-16.10334"/>
  <polyline class="cls-34" points="377.86835 1193.6325 293.99315 1197.57447 293.99315 1216.53191 370.28306 1213.34047"/>
  <path class="cls-34" d="m654.38025,1090.32005h-31.16551"/>
  <line class="cls-34" x1="616.15126" y1="1090.32005" x2="599.1974" y2="1090.32005"/>
  <path class="cls-34" d="m649.95807,1101.34553c-1.19896-.15404-16.8777,0-16.8777,0l-4.83393,5.63984"/>
  <polyline class="cls-34" points="621.29685 1109.71902 599.1974 1109.71902 592.71656 1114.05546 592.71656 1133.48936"/>
  <g>
    <path class="cls-4" d="m642.78637,1015.32971c1.42242-8.32653,4.12156-16.67289,8.16553-24.75775,15.33008-30.64941,51.0478-46.49665,52.70503-47.22419"/>
    <path class="cls-4" d="m659.73683,1079.04976c-10.78247-12.27954-16.98006-28.00106-18.00071-44.71889"/>
    <path class="cls-4" d="m650.68737,1031.80872c.15976,13.91901,4.83845,26.83553,14.21255,37.51125"/>
    <path class="cls-4" d="m714.7095,948.80361c-.37305.16406-41.11649,18.85525-54.81424,46.241-3.20622,6.41037-5.58478,12.82947-7.12112,19.15521"/>
  </g>
  <path class="cls-11" d="m647.76521,1108.12979s-33.47418,5.83216-45.34652,23.63842-16.0941,27.11739-26.73299,34.27435c-13.51206,9.08979-21.52233,6.35321-21.52233,6.35321"/>
  <path class="cls-35" d="m586.38647,1178.99969c-3.71484-1.92871-14.75781-10.6123-.90234-41.37695,4.79492-10.64648,10.74805-17.44141,16.50586-24.0127,5.06641-5.7832,10.90363-12.94743,14.86847-20.83903l1.42193,5.13324c-4.19385,8.34863-8.27282,12.62375-13.2821,18.34153-5.56396,6.35059-11.31738,12.91797-15.8667,23.01953-9.86426,21.90234-6.93408,33.05273-.90234,36.18359l-1.84277,3.55078Z"/>
  <path class="cls-35" d="m622.66945,1088.67534s-2.34548-5.70788-2.05446-6.73229c4.74805-16.72266,12.6076-29.54702,22.36004-37.66812l.93525,4.51486c-9.11279,7.58789-14.92664,18.32318-19.44764,34.24506-.30469,1.0752-1.46458,4.63171-1.79319,5.64049Z"/>
  <path class="cls-35" d="m651.89508,1043.27078l-.78215-4.18496c8.30029-4.4209,17.7291-6.37324,29.11435-6.37324v4c-10.72266,0-20.61737,2.44785-28.33221,6.5582Z"/>
  <polyline class="cls-4" points="687.76111 964.91489 707.0109 964.91489 707.0109 1005.78005"/>
  <polyline class="cls-4" points="696.2141 1020.44123 675.78392 1020.44123 675.78392 974.76476"/>
  <polyline class="cls-4" points="683.02401 1039.59574 680.2272 1039.59574 680.2272 1020.44123 696.2141 1020.44123"/>
  <rect class="cls-4" x="671.99315" y="989.04255" width="3.79077" height="28.15417"/>
  <polyline class="cls-4" points="654.15539 1017.19673 671.99315 1017.19673 671.99315 989.04255 663.56762 989.04255"/>
  <circle class="cls-4" cx="682.5889" cy="987.06383" r="1.97872"/>
  <polyline class="cls-4" points="699.9506 964.91489 699.9506 989.04255 693.56762 989.04255 685.04635 997.56383 685.04635 1003.11964 687.98857 1006.06187 687.98857 1010.29787 677.79152 1020.49492"/>
  <polyline class="cls-4" points="675.78392 1011.20292 682.5889 1009.14894 682.5889 995.48936 691.97188 986.10638 697.80342 986.10638 697.80342 976.85106 686.62725 965.67489"/>
  <rect class="cls-34" x="317.96195" y="1123.17415" width="23.43543" height="50.00266" transform="translate(599.93583 -15.42119) rotate(29.0962)"/>
  <path class="cls-34" d="m304.12182,1169.58511h23.43543c0,3.81932-3.1008,6.92012-6.92011,6.92012h-9.59521c-3.81931,0-6.92011-3.1008-6.92011-6.92011h0Z" transform="translate(610.28284 -5.55261) rotate(29.0962)"/>
  <polygon class="cls-34" points="331.38028 1146.63872 328.35323 1144.95415 333.30649 1136.05351 335.41307 1136.05351 336.02755 1138.28793 331.38028 1146.63872"/>
  <rect class="cls-34" x="350.25733" y="1058.56377" width="18.33191" height="72.32925" transform="translate(577.69924 -36.62962) rotate(29.0962)"/>
  <rect class="cls-34" x="377.82978" y="1045.58183" width="7.46579" height="18.72741" transform="translate(561.14763 -52.41593) rotate(29.0962)"/>
  <polygon class="cls-34" points="415.83411 1018.8615 394.16432 1006.80214 378.89607 1034.23804 382.85422 1044.94827 389.37785 1048.57871 400.56586 1046.2974 415.83411 1018.8615"/>
  <path class="cls-34" d="m415.83411,1018.8615l-21.66978-12.05938,5.79443-10.41213c1.26074-2.26544,3.73933-3.57376,6.32108-3.33657l5.18891.47672,6.52363,3.63045,3.14003,4.15838c1.56233,2.06902,1.75687,4.86496.49613,7.1304l-5.79443,10.41212Z"/>
  <polyline class="cls-34" points="328.98522 1125.32657 329.67966 1129.46809 331.26975 1129.46809 332.92933 1134.70213 336.37613 1134.70213 337.39741 1138.7234 341.92933 1140.82979 348.16407 1129.85013"/>
  <path class="cls-15" d="m354.69528,1128.82979l-25.965-13.71717s32.47259,11.1868,34.28089,7.93741-26.93527-21.13697-24.81378-24.94912,32.6263,10.9106,34.27764,7.94325-26.84331-21.3022-24.81553-24.94597,32.32997,11.44307,34.2775,7.94351-26.74946-21.47085-24.8184-24.94082c1.93106-3.46997,32.75172,10.68523,34.27619,7.94586,1.52448-2.73937-26.58643-21.7638-24.81722-24.94293,1.76921-3.17913,32.91357,10.39439,34.27697,7.94446s-26.29534-22.28686-24.8169-24.94351,32.81431,10.57276,34.27703,7.94435-26.84971-21.29071-24.81819-24.9412c2.03152-3.65049,34.2764,7.94549,34.2764,7.94549l-28.21589-15.08157"/>
  <polyline class="cls-34" points="263.1481 1197.58235 226.20592 1205.08221 226.20592 1215.57447 263.1481 1218.09024"/>
  <rect class="cls-34" x="211.52507" y="1208.29787" width="29.3617" height="3.06383"/>
  <rect class="cls-34" x="208.97188" y="1206" width="2.55319" height="7.65957"/>
  <g>
    <g>
      <circle class="cls-4" cx="226.71865" cy="1147.98044" r="2.01606"/>
      <circle class="cls-4" cx="215.81092" cy="1156.92404" r="2.01606"/>
      <circle class="cls-4" cx="206.85716" cy="1167.82343" r="2.01606"/>
      <circle class="cls-4" cx="200.20132" cy="1180.25992" r="2.01606"/>
      <circle class="cls-4" cx="196.09908" cy="1193.75577" r="2.01606"/>
      <circle class="cls-4" cx="194.70803" cy="1207.79256" r="2.01606"/>
      <circle class="cls-4" cx="196.08159" cy="1221.83107" r="2.01606"/>
      <circle class="cls-4" cx="200.16702" cy="1235.33203" r="2.01606"/>
      <circle class="cls-4" cx="206.80736" cy="1247.7768" r="2.01606"/>
      <circle class="cls-4" cx="215.74753" cy="1258.68733" r="2.01606"/>
      <circle class="cls-4" cx="226.64412" cy="1267.64451" r="2.01606"/>
      <circle class="cls-4" cx="239.07852" cy="1274.30424" r="2.01606"/>
      <circle class="cls-4" cx="252.57309" cy="1278.41071" r="2.01606"/>
      <circle class="cls-4" cx="266.60945" cy="1279.80616" r="2.01606"/>
      <circle class="cls-4" cx="280.64839" cy="1278.43699" r="2.01606"/>
      <circle class="cls-4" cx="294.15062" cy="1274.35579" r="2.01606"/>
      <circle class="cls-4" cx="306.59747" cy="1267.71935" r="2.01606"/>
      <circle class="cls-4" cx="317.5108" cy="1258.78259" r="2.01606"/>
      <circle class="cls-4" cx="326.47139" cy="1247.88881" r="2.01606"/>
      <circle class="cls-4" cx="333.13502" cy="1235.4565" r="2.01606"/>
      <circle class="cls-4" cx="337.24571" cy="1221.96321" r="2.01606"/>
      <circle class="cls-4" cx="338.64556" cy="1207.9273" r="2.01606"/>
      <circle class="cls-4" cx="337.28079" cy="1193.88793" r="2.01606"/>
      <circle class="cls-4" cx="333.20382" cy="1180.38442" r="2.01606"/>
      <circle class="cls-4" cx="326.57128" cy="1167.93549" r="2.01606"/>
      <circle class="cls-4" cx="317.63794" cy="1157.01936" r="2.01606"/>
      <circle class="cls-4" cx="306.74697" cy="1148.05536" r="2.01606"/>
      <circle class="cls-4" cx="294.31674" cy="1141.38783" r="2.01606"/>
      <circle class="cls-4" cx="280.82474" cy="1137.27292" r="2.01606"/>
      <circle class="cls-4" cx="266.78927" cy="1135.86867" r="2.01606"/>
      <circle class="cls-4" cx="252.74947" cy="1137.22905" r="2.01606"/>
      <circle class="cls-4" cx="239.24468" cy="1141.30178" r="2.01606"/>
    </g>
    <circle class="cls-4" cx="266.67681" cy="1207.83739" r="227.10638"/>
    <circle class="cls-16" cx="266.67681" cy="1207.83739" r="196.34043"/>
    <polygon class="cls-4" points="471.96648 1207.83739 469.10783 1210.98742 471.86903 1214.22322 468.91535 1217.28431 471.57597 1220.60329 468.5295 1223.57201 471.08647 1226.97146 467.94966 1229.84452 470.40006 1233.32153 467.17557 1236.09577 469.51665 1239.64726 466.20731 1242.31967 468.43648 1245.94239 465.04531 1248.5101 467.16015 1252.20069 463.69031 1254.66097 465.68858 1258.41591 462.14338 1260.76624 464.023 1264.5819 460.40589 1266.81989 462.16497 1270.69256 458.47948 1272.81598 460.1163 1276.74185 456.36608 1278.74865 457.87907 1282.72384 454.06784 1284.61213 455.45563 1288.6327 451.58709 1290.40091 452.84837 1294.46304 448.92648 1296.10934 450.06025 1300.20881 446.0889 1301.73176 447.09423 1305.86455 443.07736 1307.26285 443.95344 1311.42491 439.895 1312.69741 440.64117 1316.88467 436.54515 1318.03032 437.16085 1322.23874 433.03121 1323.25665 433.51599 1327.48217 429.35676 1328.37151 429.71032 1332.61004 425.52553 1333.37009 425.74767 1337.61753 421.54136 1338.24767 421.63196 1342.49994 417.40819 1342.99967 417.36726 1347.2527 413.13006 1347.62158 412.95769 1351.8713 408.71112 1352.10902 408.40749 1356.35137 404.15562 1356.45771 403.721 1360.68863 399.46789 1360.66345 398.90265 1364.8789 394.65237 1364.72217 393.95697 1368.91811 389.71358 1368.62988 388.88859 1372.80227 384.65617 1372.38271 383.70233 1376.52746 379.48503 1375.97678 378.403 1380.08995 374.2048 1379.4086 372.99543 1383.48619 368.82039 1382.67466 367.48467 1386.71268 363.33686 1385.77158 361.87595 1389.76602 357.75957 1388.696 356.1748 1392.64287 352.09391 1391.44481 350.38666 1395.34021 346.34528 1394.01513 344.51705 1397.8552 340.51914 1396.40428 338.57159 1400.18522 334.62108 1398.60979 332.55598 1402.32785 328.65674 1400.62939 326.47604 1404.28092 322.63186 1402.46107 320.3378 1406.04243 316.55246 1404.10302 314.14702 1407.6108 310.42438 1405.55375 307.9106 1408.98445 304.25429 1406.81192 301.63458 1410.16237 298.04781 1407.87675 295.32468 1411.14391 291.81076 1408.7477 288.98691 1411.92865 285.54898 1409.42452 282.62841 1412.51641 279.26933 1409.90721 276.25396 1412.90758 272.97684 1410.19626 269.87047 1413.10271 266.67681 1410.2924 263.48356 1413.10271 260.37756 1410.19628 257.09984 1412.90759 254.08452 1409.90722 250.72495 1412.51639 247.80365 1409.42443 244.36505 1411.92847 241.54101 1408.74747 238.02637 1411.14355 235.30268 1407.87627 231.71516 1410.1617 229.09475 1406.81106 225.43766 1408.98336 222.92334 1405.55245 219.20013 1407.60927 216.79451 1404.10133 213.00875 1406.04052 210.71431 1402.45893 206.86967 1404.27851 204.6887 1400.62676 200.78895 1402.32491 198.72359 1398.6066 194.77258 1400.18169 192.82481 1396.40049 188.82643 1397.85104 186.99806 1394.01072 182.9561 1395.33535 181.24866 1391.43966 177.16736 1392.63731 175.58257 1388.6902 171.46593 1389.75986 170.00515 1385.76526 165.85722 1386.70605 164.52168 1382.6679 160.34651 1383.4791 159.13732 1379.40137 154.93897 1380.08237 153.85709 1375.96904 149.6396 1376.51933 148.68588 1372.37439 144.45335 1372.79359 143.62857 1368.62108 139.38507 1368.90895 138.68991 1364.71289 134.43954 1364.86927 133.87455 1360.65372 129.62139 1360.67855 129.18704 1356.44756 124.93516 1356.34089 124.63182 1352.0985 120.38528 1351.86047 120.21323 1347.61075 115.97608 1347.24158 115.9355 1342.98858 111.7118 1342.4886 111.80276 1338.2364 107.59656 1337.60602 107.81906 1333.35867 103.63439 1332.5984 103.98831 1328.35999 99.82921 1327.47043 100.3144 1323.24512 96.18494 1322.22707 96.801 1318.01882 92.70512 1316.873 93.45163 1312.68588 89.39333 1311.4132 90.26973 1307.25127 86.25299 1305.85277 87.25864 1301.72017 83.2875 1300.19716 84.42166 1296.09803 80.50004 1294.45184 81.76175 1290.3902 77.89353 1288.62227 79.28169 1284.60212 75.47071 1282.71402 76.98406 1278.73932 73.2341 1276.73277 74.87124 1272.80741 71.18599 1270.68426 72.94536 1266.81208 69.32845 1264.57435 71.20836 1260.75927 67.66334 1258.40916 69.6618 1254.65459 66.19216 1252.19469 68.30724 1248.50481 64.91628 1245.93775 67.14566 1242.31583 63.83648 1239.64408 66.1777 1236.09323 62.95333 1233.31964 65.40379 1229.84288 62.26707 1226.97045 64.8241 1223.57175 61.77767 1220.60351 64.43828 1217.28448 61.48462 1214.224 64.24581 1210.98781 61.38715 1207.83739 64.2458 1204.68736 61.48459 1201.45155 64.43827 1198.39047 61.77766 1195.07149 64.82412 1192.10276 62.26716 1188.70331 65.40396 1185.83025 62.95357 1182.35324 66.17806 1179.579 63.83698 1176.02751 67.14631 1173.35511 64.91715 1169.73238 68.30832 1167.16468 66.19348 1163.47409 69.66331 1161.0138 67.66505 1157.25886 71.21024 1154.90853 69.33062 1151.09287 72.94774 1148.85488 71.18866 1144.98221 74.87414 1142.85879 73.23733 1138.93293 76.98755 1136.92612 75.47456 1132.95094 79.28579 1131.06265 77.898 1127.04207 81.76653 1125.27386 80.50526 1121.21173 84.42715 1119.56544 83.29338 1115.46596 87.26472 1113.94301 86.2594 1109.81022 90.27627 1108.41192 89.40019 1104.24986 93.45862 1102.97737 92.71246 1098.7901 96.80848 1097.64446 96.19278 1093.43603 100.32242 1092.41812 99.83764 1088.1926 103.99686 1087.30326 103.64331 1083.06474 107.82809 1082.30468 107.60596 1078.05724 111.81227 1077.4271 111.72166 1073.17483 115.94544 1072.67511 115.98637 1068.42208 120.22357 1068.05319 120.39594 1063.80347 124.6425 1063.56575 124.94614 1059.3234 129.198 1059.21707 129.63263 1054.98614 133.88574 1055.01132 134.45097 1050.79587 138.70126 1050.9526 139.39665 1046.75666 143.64004 1047.04489 144.46504 1042.8725 148.69746 1043.29206 149.6513 1039.14732 153.86859 1039.69799 154.95063 1035.58482 159.14883 1036.26617 160.3582 1032.18858 164.53323 1033.00011 165.86896 1028.96209 170.01677 1029.90319 171.47768 1025.90875 175.59406 1026.97877 177.17882 1023.0319 181.25971 1024.22996 182.96696 1020.33456 187.00835 1021.65964 188.83657 1017.81957 192.83449 1019.27049 194.78204 1015.48955 198.73255 1017.06499 200.79764 1013.34692 204.69688 1015.04538 206.87759 1011.39386 210.72176 1013.2137 213.01583 1009.63234 216.80117 1011.57175 219.2066 1008.06397 222.92925 1010.12102 225.44303 1006.69032 229.09933 1008.86285 231.71905 1005.5124 235.30582 1007.79802 238.02895 1004.53087 241.54287 1006.92707 244.36672 1003.74613 247.80465 1006.25025 250.72522 1003.15837 254.08429 1005.76757 257.09966 1002.76719 260.37679 1005.47851 263.48316 1002.57206 266.67681 1005.38237 269.87007 1002.57206 272.97606 1005.47849 276.25378 1002.76718 279.26911 1005.76755 282.62867 1003.15839 285.54997 1006.25034 288.98857 1003.74631 291.81262 1006.9273 295.32726 1004.53123 298.05095 1007.79851 301.63847 1005.51307 304.25887 1008.86371 307.91596 1006.69142 310.43029 1010.12232 314.1535 1008.0655 316.55911 1011.57344 320.34487 1009.63425 322.63932 1013.21584 326.48395 1011.39626 328.66493 1015.04801 332.56467 1013.34986 334.63003 1017.06818 338.58105 1015.49309 340.52882 1019.27428 344.5272 1017.82373 346.35556 1021.66405 350.39752 1020.33942 352.10496 1024.23511 356.18627 1023.03747 357.77106 1026.98457 361.8877 1025.91492 363.34848 1029.90952 367.49641 1028.96872 368.83195 1033.00687 373.00712 1032.19567 374.21631 1036.2734 378.41465 1035.5924 379.49654 1039.70573 383.71402 1039.15544 384.66775 1043.30038 388.90028 1042.88118 389.72506 1047.05369 393.96855 1046.76583 394.66372 1050.96188 398.91409 1050.8055 399.47908 1055.02105 403.73224 1054.99622 404.16659 1059.22721 408.41847 1059.33388 408.72181 1063.57627 412.96835 1063.8143 413.1404 1068.06402 417.37754 1068.43319 417.41813 1072.68619 421.64183 1073.18617 421.55087 1077.43838 425.75707 1078.06876 425.53457 1082.3161 429.71924 1083.07637 429.36532 1087.31479 433.52442 1088.20434 433.03923 1092.42966 437.16869 1093.4477 436.55262 1097.65595 440.6485 1098.80177 439.902 1102.9889 443.9603 1104.26157 443.0839 1108.4235 447.10064 1109.822 446.09498 1113.95461 450.06613 1115.47761 448.93197 1119.57675 452.85359 1121.22294 451.59188 1125.28457 455.4601 1127.05251 454.07194 1131.07265 457.88292 1132.96075 456.36956 1136.93545 460.11953 1138.94201 458.48238 1142.86736 462.16764 1144.99051 460.40826 1148.86269 464.02517 1151.10043 462.14527 1154.91551 465.69029 1157.26561 463.69182 1161.02018 467.16147 1163.48008 465.04639 1167.16996 468.43735 1169.73702 466.20797 1173.35894 469.51714 1176.03069 467.17593 1179.58154 470.40029 1182.35513 467.94984 1185.83189 471.08656 1188.70432 468.52952 1192.10302 471.57596 1195.07126 468.91535 1198.39029 471.86901 1201.45077 469.10782 1204.68696 471.96648 1207.83739"/>
    <polygon class="cls-3" points="476.7894 1207.83739 474.49703 1211.07118 476.68966 1214.37342 474.29944 1217.53556 476.38971 1220.9035 473.90333 1223.99056 475.8887 1227.42135 473.30805 1230.43001 475.18616 1233.92063 472.51335 1236.84768 474.282 1240.39497 471.51932 1243.23728 473.17646 1246.83797 470.32637 1249.59256 471.87015 1253.24323 468.93529 1255.90725 470.36402 1259.60441 467.34716 1262.17513 468.65934 1265.91519 465.56339 1268.39001 466.75768 1272.16932 463.58567 1274.54581 464.6609 1278.36066 461.41597 1280.63649 462.37114 1284.48312 459.05652 1286.65613 459.89078 1290.53074 456.50979 1292.5989 457.22238 1296.49782 453.77833 1298.45935 454.36878 1302.37855 450.8652 1304.2315 451.33309 1308.16714 447.77347 1309.90987 448.11853 1313.85813 444.50639 1315.48912 444.72845 1319.44616 441.06736 1320.96401 441.16635 1324.92603 437.45988 1326.32947 437.43585 1330.29268 433.68763 1331.58049 433.54076 1335.54105 429.75443 1336.71211 429.48498 1340.66622 425.66422 1341.71952 425.27255 1345.66339 421.42105 1346.59798 420.90761 1350.52785 417.02907 1351.34291 416.39441 1355.25501 412.49253 1355.94978 411.73727 1359.84038 407.8158 1360.4142 406.94063 1364.27959 403.00331 1364.73188 402.00904 1368.56835 398.05962 1368.89862 396.94713 1372.70248 392.98939 1372.91034 391.75964 1376.67792 387.79736 1376.76307 386.45151 1380.49065 382.48857 1380.45281 381.02766 1384.13686 377.06777 1383.976 375.49304 1387.6129 371.54002 1387.32902 369.85282 1390.91519 365.91049 1390.50839 364.11235 1394.04025 360.18468 1393.51069 358.2773 1396.98468 354.36815 1396.3327 352.35322 1399.74537 348.46642 1398.97148 346.34576 1402.31943 342.48511 1401.42426 340.26068 1404.70417 336.42996 1403.68851 334.10381 1406.89712 330.30676 1405.76191 327.8811 1408.89604 324.1214 1407.64238 321.59872 1410.69893 317.88006 1409.32806 315.26257 1412.30412 311.58877 1410.81743 308.87969 1413.71003 305.25437 1412.10911 302.45626 1414.91562 298.88261 1413.2023 295.99813 1415.92021 292.47923 1414.09647 289.51121 1416.72342 286.05084 1414.79129 283.00334 1417.32498 279.60415 1415.28681 276.47911 1417.72534 273.14432 1415.58355 269.94556 1417.92505 266.67681 1415.68225 263.40844 1417.92506 260.21004 1415.58357 256.8746 1417.72534 253.74958 1415.28682 250.34985 1417.32495 247.30158 1414.79118 243.84049 1416.72321 240.87224 1414.09621 237.35288 1415.91985 234.46782 1413.20181 230.89341 1414.91494 228.09459 1412.10824 224.46849 1413.70892 221.75883 1410.81611 218.08447 1412.30257 215.46677 1409.32634 211.74771 1410.69698 209.22462 1407.6402 205.46448 1408.89359 203.03852 1405.75922 199.24098 1406.89412 196.91453 1403.68525 193.08333 1404.70057 190.85864 1401.42039 186.99755 1402.3152 184.87671 1398.96698 180.98955 1399.74051 178.97438 1396.32753 175.06484 1396.97911 173.15739 1393.50486 169.22949 1394.03407 167.43146 1390.50203 163.48903 1390.90854 161.80198 1387.32221 157.84885 1387.60578 156.27427 1383.96872 152.31427 1384.12925 150.85347 1380.44502 146.89037 1380.48249 145.5446 1376.75469 141.58224 1376.66921 140.35267 1372.90148 136.39486 1372.69328 135.28256 1368.88928 131.33309 1368.55866 130.33904 1364.72207 126.4017 1364.26946 125.52678 1360.40397 121.60532 1359.82985 120.85032 1355.93917 116.9485 1355.24412 116.31413 1351.33199 112.43567 1350.51668 111.92255 1346.58681 108.07116 1345.65199 107.67982 1341.70815 103.8592 1340.65466 103.59009 1336.7006 99.80391 1335.52936 99.65738 1331.56887 95.9093 1330.28089 95.88567 1326.31785 92.1794 1324.91432 92.27874 1320.95243 88.61782 1319.43445 88.8402 1315.47752 85.22822 1313.84638 85.57358 1309.89822 82.0141 1308.15533 82.48232 1304.21984 78.97896 1302.36687 79.56978 1298.44799 76.12602 1296.48661 76.83903 1292.58816 73.45829 1290.52012 74.29292 1286.64593 70.97857 1284.47313 71.9341 1280.62698 68.68944 1278.35142 69.765 1274.53707 66.59324 1272.16088 67.78782 1268.38205 64.69208 1265.9075 66.00455 1262.16801 62.98786 1259.59754 64.4168 1255.90074 61.48213 1253.23714 63.02616 1249.58717 60.17628 1246.83325 61.83364 1243.23337 59.07113 1240.39174 60.83991 1236.84509 58.16719 1233.91845 60.04537 1230.42811 57.46481 1227.42012 59.45027 1223.99014 56.96393 1220.9036 59.05419 1217.53564 56.66399 1214.37416 58.8566 1211.07155 56.56423 1207.83739 58.85659 1204.60359 56.66397 1201.30135 59.05418 1198.13922 56.96392 1194.77127 59.4503 1191.68421 57.46493 1188.25342 60.04557 1185.24476 58.16746 1181.75414 60.84027 1178.8271 59.07163 1175.2798 61.83431 1172.43749 60.17717 1168.83681 63.02726 1166.08221 61.48348 1162.43154 64.41834 1159.76752 62.9896 1156.07036 66.00647 1153.49965 64.69429 1149.75958 67.79024 1147.28476 66.59595 1143.50545 69.76796 1141.12896 68.69273 1137.31412 71.93766 1135.03828 70.98249 1131.19166 74.2971 1129.01864 73.46284 1125.14403 76.84384 1123.07587 76.13125 1119.17695 79.5753 1117.21542 78.98485 1113.29622 82.48843 1111.44327 82.02053 1107.50763 85.58016 1105.7649 85.2351 1101.81664 88.84724 1100.18565 88.62518 1096.22861 92.28627 1094.71076 92.18728 1090.74874 95.89374 1089.3453 95.91777 1085.3821 99.666 1084.09429 99.81287 1080.13372 103.59919 1078.96266 103.86865 1075.00855 107.68941 1073.95526 108.08108 1070.01138 111.93258 1069.07679 112.44601 1065.14692 116.32456 1064.33187 116.95922 1060.41976 120.86109 1059.72499 121.61636 1055.83439 125.53783 1055.26057 126.41299 1051.39518 130.35032 1050.94289 131.34458 1047.10642 135.294 1046.77615 136.40649 1042.97229 140.36424 1042.76443 141.59398 1038.99685 145.55626 1038.91171 146.90212 1035.18412 150.86505 1035.22196 152.32597 1031.53791 156.28585 1031.69877 157.86058 1028.06187 161.81361 1028.34576 163.5008 1024.75958 167.44314 1025.16638 169.24128 1021.63452 173.16894 1022.16409 175.07633 1018.69009 178.98548 1019.34207 181.00041 1015.9294 184.88721 1016.7033 187.00787 1013.35534 190.86851 1014.25051 193.09295 1010.9706 196.92367 1011.98626 199.24982 1008.77766 203.04687 1009.91287 205.47253 1006.77873 209.23223 1008.03239 211.7549 1004.97585 215.47356 1006.34671 218.09106 1003.37065 221.76486 1004.85734 224.47394 1001.96474 228.09926 1003.56566 230.89737 1000.75915 234.47101 1002.47247 237.3555 999.75456 240.8744 1001.5783 243.84242 998.95135 247.30279 1000.88348 250.35028 998.34979 253.74948 1000.38796 256.87452 997.94943 260.20931 1000.09122 263.40806 997.74972 266.67681 999.99252 269.94519 997.74971 273.14358 1000.0912 276.47902 997.94943 279.60404 1000.38795 283.00378 998.34983 286.05205 1000.88359 289.51314 998.95156 292.48139 1001.57856 296.00075 999.75492 298.88581 1002.47297 302.46021 1000.75983 305.25903 1003.56653 308.88514 1001.96585 311.5948 1004.85867 315.26915 1003.37221 317.88685 1006.34843 321.60592 1004.97779 324.129 1008.03457 327.88915 1006.78118 330.3151 1009.91555 334.11265 1008.78065 336.43909 1011.98952 340.2703 1010.9742 342.49499 1014.25438 346.35608 1013.35957 348.47691 1016.7078 352.36408 1015.93426 354.37925 1019.34725 358.28879 1018.69567 360.19624 1022.16992 364.12414 1021.6407 365.92217 1025.17274 369.8646 1024.76624 371.55164 1028.35256 375.50477 1028.06899 377.07936 1031.70605 381.03936 1031.54552 382.50016 1035.22975 386.46325 1035.19228 387.80902 1038.92008 391.77138 1039.00556 393.00095 1042.77329 396.95877 1042.9815 398.07107 1046.7855 402.02053 1047.11611 403.01459 1050.9527 406.95193 1051.40532 407.82685 1055.2708 411.7483 1055.84493 412.5033 1059.7356 416.40513 1060.43065 417.03949 1064.34279 420.91796 1065.1581 421.43108 1069.08796 425.28247 1070.02278 425.6738 1073.96662 429.49443 1075.02012 429.76354 1078.97417 433.54972 1080.14541 433.69625 1084.1059 437.44432 1085.39388 437.46796 1089.35692 441.17423 1090.76045 441.07488 1094.72234 444.7358 1096.24032 444.51343 1100.19725 448.12541 1101.82839 447.78005 1105.77655 451.33953 1107.51944 450.87131 1111.45493 454.37467 1113.3079 453.78384 1117.22678 457.22761 1119.18817 456.5146 1123.08662 459.89533 1125.15465 459.06071 1129.02884 462.37505 1131.20164 461.41953 1135.04779 464.66419 1137.32335 463.58863 1141.1377 466.76039 1143.51389 465.56581 1147.29272 468.66155 1149.76727 467.34908 1153.50676 470.36576 1156.07723 468.93683 1159.77403 471.87149 1162.43764 470.32747 1166.08761 473.17734 1168.84153 471.51999 1172.4414 474.2825 1175.28303 472.51372 1178.82968 475.18643 1181.75632 473.30826 1185.24666 475.88881 1188.25465 473.90336 1191.68464 476.3897 1194.77117 474.29944 1198.13913 476.68964 1201.30061 474.49703 1204.60322 476.7894 1207.83739"/>
    <polygon class="cls-21" points="484.16551 1207.83739 482.43913 1211.19466 484.06227 1214.60306 482.23399 1217.90593 483.75178 1221.3625 481.82275 1224.60752 483.23318 1228.10923 481.20473 1231.29302 482.50597 1234.83671 480.37966 1237.95593 481.57007 1241.53832 479.34763 1244.58974 480.42572 1248.20747 478.10909 1251.18794 479.07357 1254.83754 476.66483 1257.74401 477.51458 1261.42197 475.01599 1264.25149 475.75008 1267.95421 473.16402 1270.70397 473.78168 1274.42783 471.1107 1277.09509 471.61132 1280.83643 468.85806 1283.41861 469.2412 1287.17376 466.40842 1289.66837 466.6738 1293.43362 463.76433 1295.8383 463.91181 1299.60998 460.92854 1301.92261 460.95806 1305.69712 457.90407 1307.91538 457.81582 1311.6889 454.69417 1313.81078 454.48841 1317.57967 451.30224 1319.60326 450.97932 1323.36388 447.73179 1325.28738 447.29217 1329.03614 443.98646 1330.85788 443.4307 1334.59121 440.07007 1336.30956 439.39884 1340.02386 435.98658 1341.63726 435.20066 1345.329 431.74009 1346.836 430.84032 1350.50164 427.3348 1351.90087 426.32211 1355.53692 422.77501 1356.82708 421.65042 1360.43008 418.06515 1361.60997 416.82974 1365.17648 413.20973 1366.24497 411.86467 1369.77157 408.21337 1370.72762 406.75991 1374.21093 403.0808 1375.05357 401.52026 1378.49023 397.81683 1379.21858 396.15063 1382.60527 392.42641 1383.21853 390.65603 1386.55193 386.91467 1387.04933 385.04176 1390.32615 381.28672 1390.70715 379.31284 1393.92422 375.54771 1394.18831 373.47462 1397.34243 369.70303 1397.4892 367.53265 1400.57719 363.75838 1400.60624 361.49278 1403.62497 357.71953 1403.53612 355.36078 1406.48255 351.5922 1406.27576 349.14249 1409.14695 345.38225 1408.8223 342.84385 1411.61538 339.09562 1411.17311 336.47092 1413.88529 332.73834 1413.32577 330.02983 1415.95436 326.31653 1415.27813 323.52699 1417.82051 319.8366 1417.02826 316.96847 1419.48204 313.30481 1418.57456 310.36158 1420.93729 306.72827 1419.91561 303.7127 1422.1852 300.11298 1421.05058 297.02787 1423.22505 293.46488 1421.97893 290.31322 1424.05645 286.79085 1422.7003 283.57684 1424.67914 280.09787 1423.21475 276.82348 1425.09356 273.39129 1423.52282 270.06041 1425.30029 266.67681 1423.62529 263.2936 1425.30029 259.96309 1423.52284 256.53024 1425.09356 253.25586 1423.21476 249.77634 1424.6791 246.56151 1422.70018 243.03841 1424.05624 239.8865 1421.97865 236.32304 1423.22467 233.23732 1421.05007 229.63683 1422.18449 226.6205 1419.9147 222.9864 1420.93614 220.04255 1418.57318 216.37833 1419.48043 213.50997 1417.02647 209.81918 1417.8185 207.0292 1415.27587 203.31545 1415.95182 200.60661 1413.32298 196.87355 1413.88219 194.24851 1411.16973 190.49981 1411.61165 187.96111 1408.81828 184.20045 1409.14257 181.75051 1406.27108 177.98159 1406.47752 175.62272 1403.53081 171.84909 1403.61927 169.58339 1400.60026 165.80891 1400.57087 163.6386 1397.48266 159.86694 1397.33562 157.79397 1394.18132 154.02877 1393.91693 152.05499 1390.69967 148.29987 1390.31835 146.42704 1387.04132 142.68555 1386.54356 140.9153 1383.20997 137.19104 1382.59639 135.52498 1379.20953 131.82151 1378.48086 130.26114 1375.04402 126.58201 1374.20106 125.12873 1370.7176 121.47745 1369.76125 120.1326 1366.23451 116.51264 1365.16574 115.27747 1361.59913 111.69229 1360.41899 110.56796 1356.81592 107.02098 1355.52554 106.00858 1351.88945 102.50321 1350.49003 101.60375 1346.82438 98.14334 1345.31722 97.35774 1341.62551 93.94566 1340.01195 93.27476 1336.29769 89.9143 1334.5792 89.35886 1330.84593 86.05338 1329.02412 85.6141 1325.27548 82.36676 1323.35187 82.04415 1319.59134 78.85816 1317.56763 78.65269 1313.79881 75.53122 1311.6768 75.44328 1307.90341 72.38954 1305.68517 72.41943 1301.91095 69.43647 1299.59851 69.5843 1295.82713 66.67512 1293.42262 66.94086 1289.65776 64.10837 1287.16341 64.49187 1283.40872 61.7389 1280.82686 62.23985 1277.08601 59.56914 1274.41908 60.18709 1270.69569 57.60126 1267.94624 58.33564 1264.2441 55.83724 1261.41485 56.6872 1257.73724 54.27867 1254.83123 55.2434 1251.18233 52.92699 1248.20258 54.0053 1244.58567 51.78304 1241.53497 52.97359 1237.95324 50.84737 1234.83444 52.14869 1231.29103 50.12033 1228.10796 51.53085 1224.60708 49.60185 1221.3626 51.11964 1217.90602 49.29138 1214.60382 50.9145 1211.19505 49.18812 1207.83739 50.91449 1204.48011 49.29136 1201.07172 51.11963 1197.76884 49.60185 1194.31227 51.53088 1191.06725 50.12045 1187.56554 52.1489 1184.38176 50.84765 1180.83807 52.97397 1177.71885 51.78356 1174.13645 54.006 1171.08503 52.9279 1167.4673 55.24454 1164.48683 54.28006 1160.83723 56.6888 1157.93076 55.83904 1154.25281 58.33764 1151.42328 57.60355 1147.72056 60.1896 1144.9708 59.57195 1141.24695 62.24293 1138.57968 61.74231 1134.83834 64.49557 1132.25616 64.11243 1128.50102 66.94521 1126.00641 66.67983 1122.24115 69.58929 1119.83647 69.44182 1116.0648 72.42509 1113.75217 72.39557 1109.97765 75.44956 1107.75939 75.53781 1103.98587 78.65945 1101.86399 78.86521 1098.0951 82.05139 1096.07151 82.3743 1092.31089 85.62184 1090.38739 86.06145 1086.63863 89.36717 1084.81689 89.92292 1081.08357 93.28356 1079.36522 93.95478 1075.65091 97.36705 1074.03751 98.15297 1070.34577 101.61354 1068.83877 102.51331 1065.17313 106.01883 1063.7739 107.03152 1060.13785 110.57861 1058.84769 111.70321 1055.24469 115.28848 1054.0648 116.52389 1050.49829 120.1439 1049.4298 121.48896 1045.9032 125.14026 1044.94715 126.59372 1041.46384 130.27283 1040.6212 131.83337 1037.18454 135.53679 1036.45619 137.203 1033.06951 140.92721 1032.45625 142.6976 1029.12284 146.43896 1028.62544 148.31187 1025.34862 152.06691 1024.96762 154.04079 1021.75055 157.80591 1021.48646 159.879 1018.33234 163.6506 1018.18557 165.82098 1015.09758 169.59524 1015.06853 171.86084 1012.0498 175.6341 1012.13866 177.99285 1009.19222 181.76143 1009.39901 184.21114 1006.52782 187.97138 1006.85247 190.50978 1004.05939 194.258 1004.50166 196.88271 1001.78948 200.61528 1002.349 203.32379 999.72041 207.0371 1000.39664 209.82664 997.85426 213.51703 998.64652 216.38515 996.19273 220.04882 997.10021 222.99205 994.73748 226.62535 995.75916 229.64093 993.48958 233.24064 994.62419 236.32575 992.44972 239.88874 993.69584 243.04041 991.61832 246.56278 992.97447 249.77679 990.99563 253.25576 992.46002 256.53015 990.58121 259.96233 992.15195 263.29321 990.37448 266.67681 992.04948 270.06002 990.37448 273.39053 992.15193 276.82339 990.58121 280.09776 992.46002 283.57729 990.99567 286.79211 992.97459 290.31522 991.61853 293.46713 993.69612 297.03059 992.4501 300.11631 994.6247 303.71679 993.49028 306.73313 995.76007 310.36723 994.73863 313.31107 997.10159 316.9753 996.19434 319.84366 998.6483 323.53444 997.85627 326.32443 1000.39891 330.03818 999.72295 332.74702 1002.35179 336.48008 1001.79259 339.10512 1004.50504 342.85382 1004.06312 345.39252 1006.85649 349.15318 1006.5322 351.60311 1009.40369 355.37204 1009.19725 357.7309 1012.14396 361.50454 1012.05551 363.77024 1015.07452 367.54471 1015.1039 369.71503 1018.19211 373.48669 1018.33915 375.55966 1021.49345 379.32486 1021.75785 381.29863 1024.9751 385.05375 1025.35642 386.92659 1028.63345 390.66808 1029.13121 392.43832 1032.4648 396.16258 1033.07838 397.82865 1036.46524 401.53211 1037.19392 403.09249 1040.63075 406.77162 1041.47371 408.2249 1044.95717 411.87618 1045.91353 413.22103 1049.44026 416.84099 1050.50903 418.07616 1054.07564 421.66134 1055.25578 422.78567 1058.85885 426.33265 1060.14924 427.34504 1063.78532 430.85042 1065.18474 431.74988 1068.85039 435.21028 1070.35756 435.99588 1074.04927 439.40797 1075.66282 440.07887 1079.37708 443.43932 1081.09557 443.99477 1084.82884 447.30025 1086.65065 447.73952 1090.39929 450.98687 1092.3229 451.30947 1096.08343 454.49546 1098.10714 454.70094 1101.87596 457.8224 1103.99797 457.91034 1107.77136 460.96409 1109.9896 460.9342 1113.76382 463.91715 1116.07626 463.76933 1119.84764 466.67851 1122.25215 466.41277 1126.01701 469.24526 1128.51136 468.86176 1132.26605 471.61473 1134.84791 471.11378 1138.58877 473.78449 1141.25569 473.16654 1144.97908 475.75236 1147.72853 475.01798 1151.43068 477.51639 1154.25992 476.66643 1157.93753 479.07496 1160.84355 478.11023 1164.49244 480.42664 1167.47219 479.34833 1171.0891 481.57059 1174.1398 480.38004 1177.72154 482.50625 1180.84033 481.20494 1184.38374 483.23329 1187.56681 481.82278 1191.06769 483.75177 1194.31217 482.23399 1197.76875 484.06224 1201.07095 482.43913 1204.47972 484.16551 1207.83739"/>
    <polygon class="cls-12" points="490.77566 1207.83739 489.61536 1211.30623 490.66928 1214.80886 489.40341 1218.24056 490.34935 1221.77386 488.97849 1225.16496 489.81498 1228.72572 488.33992 1232.07276 489.06567 1235.65769 487.48741 1238.95727 488.10132 1242.56298 486.42105 1245.81175 486.9222 1249.43479 485.1413 1252.62944 485.52896 1256.26632 483.649 1259.40363 483.92261 1263.0508 481.9453 1266.12762 482.10449 1269.78152 480.03172 1272.79477 480.07629 1276.45181 477.91008 1279.39854 477.83999 1283.05512 475.58249 1285.93245 475.39787 1289.58499 473.05135 1292.39013 472.75245 1296.03505 470.3193 1298.76533 469.90654 1302.39908 467.38923 1305.05191 466.8631 1308.67106 464.26415 1311.24404 463.62537 1314.84493 460.94749 1317.33555 460.19685 1320.91473 457.44274 1323.3207 456.58111 1326.87474 453.75354 1329.19387 452.78189 1332.71942 449.88365 1334.94964 448.80304 1338.44335 445.83702 1340.58261 444.64862 1344.04115 441.61774 1346.08749 440.32281 1349.50757 437.23004 1351.45911 435.82992 1354.83747 432.67827 1356.6924 431.17435 1360.02583 427.96686 1361.78242 426.36063 1365.06776 423.10039 1366.72435 421.39339 1369.95846 418.08353 1371.51347 416.27738 1374.69326 412.92103 1376.14518 411.01743 1379.26758 407.61778 1380.61498 405.61849 1383.67698 402.17878 1384.9185 400.08562 1387.91711 396.6091 1389.05146 394.424 1391.98375 390.91396 1393.00973 388.63898 1395.87275 385.09884 1396.78921 382.73595 1399.58018 379.16895 1400.38614 376.7203 1403.10228 373.12986 1403.79682 370.59775 1406.43534 366.98747 1407.01755 364.37434 1409.57573 360.74773 1410.04489 358.05601 1412.52014 354.41656 1412.87567 351.64878 1415.2655 348.00001 1415.50694 345.15877 1417.80893 341.50423 1417.93596 338.59222 1420.14779 334.93543 1420.16024 331.95544 1422.27973 328.29995 1422.17756 325.25485 1424.20263 321.60426 1423.98595 318.49709 1425.91463 314.85518 1425.58369 311.68947 1427.41409 308.05989 1426.96935 304.83857 1428.6999 301.22456 1428.14207 297.95062 1429.77135 294.35536 1429.10128 291.0319 1430.62801 287.45941 1429.84663 284.09076 1431.26962 280.54391 1430.37819 277.13207 1431.69664 273.61442 1430.6965 270.16334 1431.90966 266.67681 1430.80237 263.19068 1431.90966 259.73997 1430.69652 256.22162 1431.69664 252.80978 1430.37819 249.26235 1431.26958 245.89285 1429.84651 242.31959 1430.62778 238.99585 1429.10098 235.40011 1429.77094 232.12551 1428.14151 228.5107 1428.69915 225.28859 1426.96838 221.65818 1427.41287 218.49181 1425.58223 214.84933 1425.91292 211.74189 1423.98406 208.0909 1424.2005 205.04549 1422.17521 201.38957 1422.27711 198.40921 1420.15735 194.75195 1420.14459 191.83957 1417.93246 188.18456 1417.80508 185.34299 1415.50278 181.69381 1415.26097 178.92577 1412.87083 175.28599 1412.51495 172.59412 1410.0394 168.96729 1409.56991 166.35401 1407.01142 162.74356 1406.42888 160.21147 1403.79013 156.621 1403.09531 154.17243 1400.37897 150.60539 1399.57272 148.24257 1396.78153 144.70237 1395.86477 142.42743 1393.00151 138.91739 1391.97524 136.73239 1389.04275 133.25585 1387.90809 131.16281 1384.90927 127.72309 1383.66745 125.72392 1380.60525 122.3243 1379.25755 120.42085 1376.13496 117.06455 1374.68276 115.25858 1371.50281 111.9488 1369.94754 110.24201 1366.7133 106.98189 1365.05648 105.3759 1361.77104 102.16856 1360.01425 100.66491 1356.68075 97.51344 1354.82566 96.1136 1351.44726 93.02103 1349.49559 91.7264 1346.07551 88.69573 1344.02905 87.50764 1340.57052 84.54182 1338.43115 83.46151 1334.93746 80.56347 1332.70712 79.59215 1329.18166 76.76481 1326.86246 75.90347 1323.30847 73.14957 1320.90242 72.39921 1317.32328 69.72152 1314.83257 69.08305 1311.23178 66.48437 1308.65886 65.9586 1305.03998 63.44157 1302.38724 63.02916 1298.75377 60.59631 1296.0237 60.29778 1292.37915 57.95158 1289.57431 57.76731 1285.92221 55.51012 1283.04524 55.44036 1279.38913 53.27443 1276.44278 53.3193 1272.7862 51.24677 1269.77329 51.40621 1266.11978 49.42911 1263.04329 49.70293 1259.39646 47.82319 1256.25965 48.21111 1252.6235 46.43045 1249.42961 46.93183 1245.80741 45.25175 1242.55941 45.86582 1238.95439 44.28765 1235.65526 45.01348 1232.07063 43.53852 1228.72434 44.3751 1225.16444 43.00428 1221.77392 43.95022 1218.24062 42.68437 1214.80962 43.73827 1211.30662 42.57797 1207.83739 43.73826 1204.36854 42.68435 1200.86591 43.95022 1197.43421 43.00428 1193.90091 44.37514 1190.50981 43.53865 1186.94905 45.01371 1183.60201 44.28795 1180.01708 45.86622 1176.7175 45.2523 1173.11179 46.93258 1169.86303 46.43142 1166.23998 48.21232 1163.04533 47.82466 1159.40845 49.70463 1156.27114 49.43102 1152.62397 51.40833 1149.54716 51.24913 1145.89326 53.32191 1142.88 53.27733 1139.22296 55.44355 1136.27623 55.51363 1132.61965 57.77114 1129.74232 57.95576 1126.08978 60.30228 1123.28464 60.60117 1119.63972 63.03433 1116.90944 63.44708 1113.27569 65.96439 1110.62286 66.49053 1107.00372 69.08948 1104.43074 69.72825 1100.82984 72.40614 1098.33922 73.15678 1094.76004 75.91089 1092.35407 76.77252 1088.80003 79.60009 1086.4809 80.57174 1082.95536 83.46998 1080.72514 84.55058 1077.23143 87.51661 1075.09216 88.705 1071.63362 91.73589 1069.58728 93.03081 1066.1672 96.12358 1064.21567 97.52371 1060.8373 100.67536 1058.98238 102.17928 1055.64894 105.38676 1053.89235 106.993 1050.60701 110.25323 1048.95042 111.96024 1045.71631 115.2701 1044.1613 117.07625 1040.98151 120.4326 1039.52959 122.3362 1036.40719 125.73584 1035.05979 127.73514 1031.99779 131.17485 1030.75627 133.26801 1027.75766 136.74453 1026.62331 138.92963 1023.69102 142.43967 1022.66504 144.71464 1019.80202 148.25479 1018.88557 150.61768 1016.09459 154.18467 1015.28863 156.63333 1012.57249 160.22377 1011.87795 162.75588 1009.23943 166.36615 1008.65722 168.97928 1006.09904 172.6059 1005.62988 175.29761 1003.15463 178.93707 1002.7991 181.70485 1000.40927 185.35361 1000.16783 188.19485 997.86585 191.8494 997.73882 194.76141 995.52698 198.41819 995.51453 201.39818 993.39504 205.05367 993.49721 208.09878 991.47215 211.74937 991.68882 214.85654 989.76014 218.49845 990.09108 221.66416 988.26069 225.29374 988.70542 228.51506 986.97488 232.12906 987.53271 235.40301 985.90342 238.99826 986.57349 242.32173 985.04676 245.89422 985.82814 249.26287 984.40515 252.80972 985.29658 256.22156 983.97813 259.73921 984.97827 263.19029 983.76512 266.67681 984.8724 270.16295 983.76511 273.61365 984.97825 277.13201 983.97813 280.54385 985.29658 284.09128 984.40519 287.46078 985.82827 291.03404 985.04699 294.35778 986.57379 297.95352 985.90383 301.22811 987.53326 304.84292 986.97562 308.06504 988.70639 311.69544 988.26191 314.86182 990.09254 318.50429 989.76185 321.61174 991.69072 325.26273 991.47427 328.30814 993.49956 331.96405 993.39766 334.94441 995.51742 338.60167 995.53018 341.51405 997.74232 345.16906 997.8697 348.01064 1000.172 351.65982 1000.4138 354.42786 1002.80394 358.06763 1003.15982 360.7595 1005.63537 364.38634 1006.10486 366.99961 1008.66335 370.61007 1009.24589 373.14216 1011.88464 376.73263 1012.57946 379.1812 1015.2958 382.74824 1016.10205 385.11106 1018.89324 388.65126 1019.81 390.92619 1022.67326 394.43624 1023.69953 396.62123 1026.63203 400.09777 1027.76668 402.19082 1030.7655 405.63053 1032.00732 407.6297 1035.06952 411.02933 1036.41722 412.93278 1039.53981 416.28908 1040.99202 418.09505 1044.17196 421.40483 1045.72723 423.11162 1048.96148 426.37174 1050.61829 427.97773 1053.90374 431.18506 1055.66052 432.68871 1058.99402 435.84019 1060.84911 437.24002 1064.22751 440.3326 1066.17918 441.62722 1069.59926 444.6579 1071.64573 445.84599 1075.10425 448.8118 1077.24362 449.89212 1080.73732 452.79015 1082.96765 453.76148 1086.49311 456.58882 1088.81231 457.45016 1092.3663 460.20405 1094.77235 460.95442 1098.35149 463.6321 1100.8422 464.27058 1104.44299 466.86926 1107.01592 467.39502 1110.6348 469.91206 1113.28753 470.32447 1116.921 472.75732 1119.65107 473.05585 1123.29562 475.40205 1126.10046 475.58632 1129.75256 477.84351 1132.62953 477.91326 1136.28564 480.07919 1139.23199 480.03432 1142.88857 482.10685 1145.90148 481.94742 1149.555 483.92451 1152.63149 483.65069 1156.27831 485.53043 1159.41512 485.14252 1163.05128 486.92318 1166.24516 486.42179 1169.86736 488.10188 1173.11536 487.48781 1176.72039 489.06597 1180.01951 488.34015 1183.60414 489.81511 1186.95044 488.97853 1190.51033 490.34934 1193.90085 489.4034 1197.43415 490.66925 1200.86515 489.61536 1204.36816 490.77566 1207.83739"/>
    <circle class="cls-4" cx="266.67681" cy="1207.83739" r="163.40426"/>
    <circle class="cls-16" cx="266.67681" cy="1207.83739" r="159.57447"/>
    <circle class="cls-9" cx="266.67681" cy="1207.83739" r="144.12766"/>
    <circle class="cls-4" cx="266.67681" cy="1207.83739" r="136.85106"/>
    <g>
      <ellipse class="cls-16" cx="406.84701" cy="1207.83741" rx="1.02128" ry="3.38298"/>
      <ellipse class="cls-16" cx="404.15475" cy="1180.4969" rx="1.02128" ry="3.38298" transform="translate(-222.49586 101.50524) rotate(-11.24777)"/>
      <ellipse class="cls-16" cx="396.18136" cy="1154.20666" rx="1.02128" ry="3.38298" transform="translate(-411.46715 239.40801) rotate(-22.49555)"/>
      <ellipse class="cls-16" cx="383.23315" cy="1129.9766" rx="1.02128" ry="3.38298" transform="translate(-563.1102 403.23797) rotate(-33.74332)"/>
      <ellipse class="cls-16" cx="365.80752" cy="1108.73751" rx="1.02128" ry="3.38298" transform="translate(-676.77159 583.24458) rotate(-44.99109)"/>
      <ellipse class="cls-16" cx="344.57385" cy="1091.30528" rx="1.02128" ry="3.38298" transform="translate(-754.18613 771.29769) rotate(-56.23887)"/>
      <ellipse class="cls-16" cx="320.34782" cy="1078.34953" rx="1.02128" ry="3.38298" transform="translate(-798.4818 961.3849) rotate(-67.48664)"/>
      <ellipse class="cls-16" cx="294.06006" cy="1070.36798" rx="1.02128" ry="3.38298" transform="translate(-813.13098 1149.65808) rotate(-78.73441)"/>
      <ellipse class="cls-16" cx="266.72039" cy="1067.66721" rx="3.38298" ry="1.02128"/>
      <ellipse class="cls-16" cx="239.37904" cy="1070.35097" rx="3.38298" ry="1.02128" transform="translate(-203.86459 67.11191) rotate(-11.22996)"/>
      <ellipse class="cls-16" cx="213.08632" cy="1078.31618" rx="3.38298" ry="1.02128" transform="translate(-396.07794 163.3897) rotate(-22.47773)"/>
      <ellipse class="cls-16" cx="188.85224" cy="1091.25685" rx="3.38298" ry="1.02128" transform="translate(-574.09934 288.50435) rotate(-33.7255)"/>
      <ellipse class="cls-16" cx="167.60773" cy="1108.67588" rx="3.38298" ry="1.02128" transform="translate(-734.5506 442.81936) rotate(-44.97328)"/>
      <ellipse class="cls-16" cx="150.16889" cy="1129.90413" rx="3.38298" ry="1.02128" transform="translate(-872.4872 626.5071) rotate(-56.22105)"/>
      <ellipse class="cls-16" cx="137.20562" cy="1154.12613" rx="3.38298" ry="1.02128" transform="translate(-981.40269 838.6139) rotate(-67.46882)"/>
      <ellipse class="cls-16" cx="129.21589" cy="1180.41141" rx="3.38298" ry="1.02128" transform="translate(-1053.66244 1076.16794) rotate(-78.7166)"/>
      <ellipse class="cls-16" cx="126.50662" cy="1207.75024" rx="1.02128" ry="3.38298"/>
      <ellipse class="cls-16" cx="129.18188" cy="1235.09242" rx="1.02128" ry="3.38298" transform="translate(-237.68854 48.69142) rotate(-11.21214)"/>
      <ellipse class="cls-16" cx="137.13891" cy="1261.38761" rx="1.02128" ry="3.38298" transform="translate(-471.4943 148.07211) rotate(-22.45991)"/>
      <ellipse class="cls-16" cx="150.07205" cy="1285.62572" rx="1.02128" ry="3.38298" transform="translate(-688.2356 299.42321) rotate(-33.70769)"/>
      <ellipse class="cls-16" cx="167.48447" cy="1306.87564" rx="1.02128" ry="3.38298" transform="translate(-874.41894 500.39424) rotate(-44.95546)"/>
      <ellipse class="cls-16" cx="188.7073" cy="1324.32108" rx="1.02128" ry="3.38298" transform="translate(-1016.79272 744.48793) rotate(-56.20323)"/>
      <ellipse class="cls-16" cx="212.92527" cy="1337.29189" rx="1.02128" ry="3.38298" transform="translate(-1103.78443 1021.1237) rotate(-67.45101)"/>
      <ellipse class="cls-16" cx="239.20806" cy="1345.28979" rx="1.02128" ry="3.38298" transform="translate(-1126.87411 1316.22727) rotate(-78.69878)"/>
      <ellipse class="cls-16" cx="266.54604" cy="1348.00756" rx="3.38298" ry="1.02128"/>
      <ellipse class="cls-16" cx="293.88905" cy="1345.3408" rx="3.38298" ry="1.02128" transform="translate(-255.58927 82.65073) rotate(-11.19433)"/>
      <ellipse class="cls-16" cx="320.18672" cy="1337.39194" rx="3.38298" ry="1.02128" transform="translate(-486.29973 223.51747) rotate(-22.4421)"/>
      <ellipse class="cls-16" cx="344.42885" cy="1324.46634" rx="3.38298" ry="1.02128" transform="translate(-676.8319 413.49498) rotate(-33.68987)"/>
      <ellipse class="cls-16" cx="365.68418" cy="1307.06053" rx="3.38298" ry="1.02128" transform="translate(-816.39981 640.12006) rotate(-44.93764)"/>
      <ellipse class="cls-16" cx="383.13622" cy="1285.84313" rx="3.38298" ry="1.02128" transform="translate(-898.41538 888.5883) rotate(-56.18542)"/>
      <ellipse class="cls-16" cx="396.11456" cy="1261.6292" rx="3.38298" ry="1.02128" transform="translate(-920.92817 1143.25092) rotate(-67.43319)"/>
      <ellipse class="cls-16" cx="404.12063" cy="1235.34889" rx="3.38298" ry="1.02128" transform="translate(-886.51765 1389.14485) rotate(-78.68096)"/>
    </g>
    <circle class="cls-2" cx="266.67681" cy="1207.83739" r="78.0278"/>
    <circle class="cls-26" cx="266.67681" cy="1207.83739" r="63.39919"/>
    <line class="cls-2" x1="266.72039" y1="1067.66721" x2="241.96104" y2="1133.85241"/>
    <line class="cls-2" x1="213.08633" y1="1078.31619" x2="215.53307" y2="1148.90685"/>
    <line class="cls-2" x1="167.60775" y1="1108.67589" x2="196.86882" y2="1172.94088"/>
    <line class="cls-2" x1="137.20564" y1="1154.12614" x2="188.84164" y2="1202.31755"/>
    <line class="cls-2" x1="126.50665" y1="1207.75025" x2="192.63025" y2="1232.50998"/>
    <line class="cls-2" x1="137.13896" y1="1261.38762" x2="207.73074" y2="1258.9628"/>
    <line class="cls-2" x1="167.48454" y1="1306.87563" x2="231.75854" y2="1277.63456"/>
    <line class="cls-2" x1="212.92534" y1="1337.29186" x2="261.13272" y2="1285.67092"/>
    <line class="cls-2" x1="266.54611" y1="1348.00751" x2="291.35232" y2="1281.82242"/>
    <line class="cls-2" x1="320.18678" y1="1337.39187" x2="317.78392" y2="1266.79997"/>
    <line class="cls-2" x1="365.68422" y1="1307.06044" x2="336.46321" y2="1242.77752"/>
    <line class="cls-2" x1="396.11457" y1="1261.6291" x2="344.48252" y2="1213.76388"/>
    <line class="cls-2" x1="406.84689" y1="1208.01165" x2="340.66183" y2="1183.182"/>
    <line class="cls-2" x1="396.24792" y1="1154.36769" x2="325.65452" y2="1156.74863"/>
    <line class="cls-2" x1="365.93063" y1="1108.86082" x2="301.63838" y2="1138.06197"/>
    <line class="cls-2" x1="320.50875" y1="1078.41635" x2="272.26927" y2="1130.00733"/>
    <line class="cls-2" x1="294.23092" y1="1070.40213" x2="306.74643" y2="1148.05511"/>
    <line class="cls-2" x1="344.71863" y1="1091.40223" x2="326.57089" y2="1167.93513"/>
    <line class="cls-2" x1="383.32981" y1="1130.12161" x2="337.28057" y2="1193.88752"/>
    <line class="cls-2" x1="404.18855" y1="1180.66789" x2="337.24565" y2="1221.96283"/>
    <line class="cls-2" x1="404.12053" y1="1235.34886" x2="326.47144" y2="1247.8885"/>
    <line class="cls-2" x1="383.13612" y1="1285.84309" x2="306.59759" y2="1267.71914"/>
    <line class="cls-2" x1="344.42875" y1="1324.4663" x2="280.64853" y2="1278.43688"/>
    <line class="cls-2" x1="293.88895" y1="1345.34075" x2="252.57321" y2="1278.41068"/>
    <line class="cls-2" x1="239.20796" y1="1345.28973" x2="226.64419" y2="1267.64454"/>
    <line class="cls-2" x1="188.70721" y1="1324.32101" x2="206.80738" y2="1247.77685"/>
    <line class="cls-2" x1="150.07198" y1="1285.62564" x2="196.08157" y2="1221.83112"/>
    <line class="cls-2" x1="129.18182" y1="1235.09234" x2="196.09904" y2="1193.75579"/>
    <line class="cls-2" x1="129.21585" y1="1180.41133" x2="206.85713" y2="1167.82343"/>
    <line class="cls-2" x1="150.16887" y1="1129.90407" x2="226.71865" y2="1147.98044"/>
    <line class="cls-2" x1="188.85223" y1="1091.25681" x2="252.66105" y2="1137.24658"/>
    <line class="cls-2" x1="239.37904" y1="1070.35095" x2="280.73638" y2="1137.25532"/>
  </g>
  <rect class="cls-4" x="779.09954" y="777.44681" width="63.19149" height="4.08511"/>
  <polyline class="cls-4" points="840.02507 789.08723 840.02507 781.53191 781.90805 781.53191 781.90805 791.87234"/>
  <path class="cls-4" d="m814.24815,769.91489c-37.98366,0-35.14376,7.53191-35.14376,7.53191h70.28752s2.8399-7.53191-35.14376-7.53191Z"/>
</svg>